G04 ================== begin FILE IDENTIFICATION RECORD ==================*
G04 Layout Name:  autohood_teamschematic_v2FUCKUFUCKERT.brd*
G04 Film Name:    BOTTOM*
G04 File Format:  Gerber RS274X*
G04 File Origin:  Cadence Allegro 17.4-S024*
G04 Origin Date:  Fri Mar  4 17:00:27 2022*
G04 *
G04 Layer:  ETCH/BOTTOM*
G04 Layer:  PIN/BOTTOM*
G04 Layer:  VIA CLASS/BOTTOM*
G04 *
G04 Offset:    (0.00 0.00)*
G04 Mirror:    No*
G04 Mode:      Positive*
G04 Rotation:  0*
G04 FullContactRelief:  No*
G04 UndefLineWidth:     0.00*
G04 ================== end FILE IDENTIFICATION RECORD ====================*
%FSLAX25Y25*MOIN*%
%IR0*IPPOS*OFA0.00000B0.00000*MIA0B0*SFA1.00000B1.00000*%
%ADD12C,.05*%
%ADD10C,.06*%
%ADD13C,.065*%
%ADD11C,.059*%
%ADD14C,.015*%
%ADD15C,.035*%
G75*
%LPD*%
G75*
G36*
G01X403125Y1541250D02*
X793125D01*
Y1151250D01*
X403125D01*
Y1541250D01*
G37*
%LPC*%
G75*
G36*
G01X697500Y1373750D02*
Y1534375D01*
X779375D01*
Y1373750D01*
X697500D01*
G37*
%LPD*%
G75*
G54D10*
X867500Y1235000D03*
Y1225000D03*
X870000Y1300000D03*
Y1310000D03*
Y1325000D03*
X867500Y1405000D03*
X880000Y1368750D03*
Y1378750D03*
X900000Y1368750D03*
Y1378750D03*
Y1455000D03*
X935000Y1300000D03*
Y1320000D03*
Y1310000D03*
X941562Y1402188D03*
X927500Y1440000D03*
X930000Y1555000D03*
X955000Y1307500D03*
Y1537500D03*
X970000Y1192500D03*
X962500Y1395000D03*
X976250Y1398750D03*
X980000Y1192500D03*
Y1332500D03*
X987500Y1369375D03*
Y1467500D03*
Y1511875D03*
Y1555000D03*
X1007500Y1277500D03*
X997500Y1351250D03*
X993750Y1435000D03*
X1003750D03*
X997500Y1530000D03*
X1017500Y1277500D03*
X1013750Y1435000D03*
X1023750D03*
X1030000Y1362500D03*
X1033750Y1435000D03*
X1057500Y1417500D03*
X1043750Y1435000D03*
X1053750D03*
X1055000Y1450000D03*
X1072500Y1385000D03*
X1067500Y1377500D03*
X1063750Y1435000D03*
X1067500Y1490000D03*
X1062500Y1520000D03*
X1072500D03*
X1082500Y1400000D03*
Y1410000D03*
X1080000Y1477500D03*
X1085000Y1520000D03*
X1102500Y1405000D03*
Y1395000D03*
X1092500Y1400000D03*
Y1390000D03*
X1095000Y1467500D03*
X1107500Y1482500D03*
Y1510000D03*
Y1520000D03*
X1095000D03*
X1114375Y1377500D03*
X1112500Y1400000D03*
Y1410000D03*
X1117500Y1460000D03*
X1132500D03*
Y1487500D03*
X1141875Y1377500D03*
X1210000Y1342500D03*
Y1367500D03*
G54D11*
X880472Y1427500D03*
X890315D03*
X900158D03*
X910000D03*
G54D12*
X983750Y1223750D03*
X1052500Y1358750D03*
X1220000Y1225000D03*
G54D13*
X1145000Y1420000D03*
Y1430000D03*
Y1440000D03*
Y1450000D03*
Y1460000D03*
Y1470000D03*
Y1480000D03*
Y1490000D03*
Y1500000D03*
Y1510000D03*
Y1520000D03*
Y1530000D03*
Y1540000D03*
Y1550000D03*
Y1560000D03*
X1245000Y1420000D03*
Y1430000D03*
Y1450000D03*
Y1440000D03*
Y1470000D03*
Y1460000D03*
Y1480000D03*
Y1500000D03*
Y1490000D03*
Y1520000D03*
Y1510000D03*
Y1530000D03*
Y1550000D03*
Y1540000D03*
Y1560000D03*
G54D14*
G01X1080000Y1477500D02*
X1062500Y1460000D01*
X990000D01*
X967500Y1437500D01*
Y1425000D01*
X962500Y1420000D01*
Y1395000D01*
G01X980000Y1332500D02*
Y1342500D01*
X988750Y1351250D01*
X997500D01*
G01D02*
X1016250Y1370000D01*
X1023500D01*
X1025000Y1371500D01*
Y1417500D01*
X1022500Y1420000D01*
X990000D01*
X985000Y1425000D01*
Y1450000D01*
X992500Y1457500D01*
X1065000D01*
X1075000Y1467500D01*
X1082500D01*
X1087500Y1472500D01*
Y1482500D01*
X1080000Y1490000D01*
X1067500D01*
G01X997500Y1530000D02*
Y1477500D01*
X987500Y1467500D01*
G01X1067500Y1377500D02*
X1106250D01*
X1127500Y1398750D01*
Y1440000D01*
X1110000Y1457500D01*
Y1465000D01*
X1132500Y1487500D01*
G01X1072500Y1385000D02*
X1077500D01*
X1082500Y1380000D01*
X1105000D01*
X1125000Y1400000D01*
Y1437500D01*
X1107500Y1455000D01*
Y1482500D01*
G01X1132500Y1460000D02*
X1117500D01*
G54D15*
G01X941562Y1402188D02*
X925938D01*
X918750Y1395000D01*
X877500D01*
X867500Y1405000D01*
G01X900000Y1455000D02*
X912500D01*
X927500Y1440000D01*
G01X941562Y1402188D02*
X957500Y1386250D01*
Y1380000D01*
X968125Y1369375D01*
X987500D01*
G01X930000Y1555000D02*
X937500D01*
X955000Y1537500D01*
G01X976250Y1398750D02*
X987500Y1387500D01*
Y1369375D01*
G01Y1555000D02*
Y1511875D01*
G01X1030000Y1362500D02*
Y1400000D01*
X1047500Y1417500D01*
X1057500D01*
G01X1055000Y1450000D02*
X1077500D01*
X1095000Y1467500D01*
G01X1114375Y1377500D02*
X1141875D01*
G01X1210000Y1342500D02*
Y1367500D01*
M02*
