G04 ================== begin FILE IDENTIFICATION RECORD ==================*
G04 Layout Name:  autohood_teamschematic_v1.brd*
G04 Film Name:    SilkScreenTop*
G04 File Format:  Gerber RS274X*
G04 File Origin:  Cadence Allegro 17.4-S024*
G04 Origin Date:  Sun Feb 27 17:43:24 2022*
G04 *
G04 Layer:  MANUFACTURING/AUTOSILK_TOP*
G04 *
G04 Offset:    (0.00 0.00)*
G04 Mirror:    No*
G04 Mode:      Positive*
G04 Rotation:  0*
G04 FullContactRelief:  No*
G04 UndefLineWidth:     0.00*
G04 ================== end FILE IDENTIFICATION RECORD ====================*
%FSLAX25Y25*MOIN*%
%IR0*IPPOS*OFA0.00000B0.00000*MIA0B0*SFA1.00000B1.00000*%
%ADD10C,.006*%
%ADD11C,.00787*%
G75*
%LPD*%
G75*
G54D10*
G01X887300Y1213200D02*
X872700D01*
Y1186800D01*
X887300D01*
Y1213200D01*
G01X885500Y1295500D02*
X894500D01*
G01X885500Y1317500D02*
Y1295500D01*
G01X894500Y1317500D02*
X885500D01*
G01X875052Y1446504D02*
Y1398260D01*
G01D02*
X921328D01*
G01Y1446504D02*
X875052D01*
G01X900500Y1204500D02*
Y1182500D01*
G01D02*
X909500D01*
G01X891251Y1218800D02*
X908749D01*
G01X909500Y1204500D02*
X900500D01*
G01X908749Y1241200D02*
X891251D01*
G01X897175Y1246500D02*
X908000D01*
G01X894500Y1295500D02*
Y1317500D01*
G01X908000Y1288500D02*
X897175D01*
G01X898000Y1472650D02*
X905044D01*
G01X898000Y1481589D02*
Y1472650D01*
G01Y1517350D02*
Y1508411D01*
G01X905044Y1517350D02*
X898000D01*
G01X895500Y1550500D02*
X917500D01*
G01X895500Y1559500D02*
Y1550500D01*
G01X917500Y1559500D02*
X895500D01*
G01X909500Y1182500D02*
Y1204500D01*
G01X919825Y1195950D02*
X925175D01*
G01Y1204050D02*
X919825D01*
G01X908000Y1246500D02*
Y1288500D01*
G01X909900Y1255600D02*
X918000D01*
G01X909900Y1265600D02*
X918000D01*
G01X909900Y1259400D02*
X918000D01*
G01X909900Y1269400D02*
X918000D01*
G01X909900Y1275600D02*
X918000D01*
G01X909900Y1279400D02*
X918000D01*
G01X912325Y1295950D02*
X917675D01*
G01Y1304050D02*
X912325D01*
G01X921328Y1398260D02*
Y1446504D01*
G01X917500Y1550500D02*
Y1559500D01*
G01X938861Y1186850D02*
X941139D01*
G01Y1193150D02*
X938861D01*
G01X947000Y1219500D02*
X925000D01*
G01Y1210500D02*
X947000D01*
G01X925000Y1219500D02*
Y1210500D01*
G01X934500Y1223000D02*
Y1245000D01*
G01X925500Y1223000D02*
X934500D01*
G01X925500Y1245000D02*
Y1223000D01*
G01X934500Y1245000D02*
X925500D01*
G01X929200Y1375553D02*
Y1369447D01*
G01X937500Y1430500D02*
X959500D01*
G01X937500Y1439500D02*
Y1430500D01*
G01X959500Y1439500D02*
X937500D01*
G01X953861Y1187050D02*
X956139D01*
G01Y1192950D02*
X953861D01*
G01X947000Y1210500D02*
Y1219500D01*
G01X943000Y1282000D02*
Y1260000D01*
G01X952000D02*
Y1282000D01*
G01X943000Y1260000D02*
X952000D01*
G01Y1282000D02*
X943000D01*
G01X951361Y1316850D02*
X953639D01*
G01Y1323150D02*
X951361D01*
G01X944800Y1380200D02*
Y1354800D01*
G01D02*
X970200D01*
G01X964400Y1367500D02*
G03I-6900J0D01*
G01X970200Y1380200D02*
X944800D01*
G01X940800Y1369447D02*
Y1375553D01*
G01X954956Y1472650D02*
X962000D01*
G01Y1517350D02*
X954956D01*
G01X962950Y1190000D02*
X967950D01*
G01X966950Y1187500D02*
Y1192500D01*
G01Y1190000D02*
X963950Y1187500D01*
G01X966950Y1190000D02*
X963950Y1188000D01*
G01X966950Y1190000D02*
X963950Y1188500D01*
G01X966950Y1190000D02*
X963950Y1189000D01*
G01X966950Y1190000D02*
X963950Y1189500D01*
G01X966950Y1190000D02*
X963950Y1192500D01*
G01X966950Y1190000D02*
X963950Y1192000D01*
G01X966950Y1190000D02*
X963950Y1191500D01*
G01X966950Y1190000D02*
X963950Y1191000D01*
G01X966950Y1190000D02*
X963950Y1190500D01*
G01Y1187500D02*
Y1192500D01*
G01X962325Y1275950D02*
X967675D01*
G01Y1284050D02*
X962325D01*
G01X966361Y1316850D02*
X968639D01*
G01Y1323150D02*
X966361D01*
G01X970200Y1354800D02*
Y1380200D01*
G01X959500Y1430500D02*
Y1439500D01*
G01X962000Y1472650D02*
Y1481589D01*
G01Y1508411D02*
Y1517350D01*
G01X981361Y1269350D02*
X983639D01*
G01Y1275650D02*
X981361D01*
G01X975500Y1378000D02*
X997500D01*
G01X975500Y1387000D02*
Y1378000D01*
G01X997500Y1387000D02*
X975500D01*
G01X985500Y1393000D02*
X1007500D01*
G01X985500Y1402000D02*
Y1393000D01*
G01X1007500Y1402000D02*
X985500D01*
G01X986139Y1412950D02*
X983861D01*
G01Y1407050D02*
X986139D01*
G01X988250Y1445500D02*
Y1424500D01*
G01D02*
X1069250D01*
G01Y1445500D02*
X988250D01*
G01X996361Y1269350D02*
X998639D01*
G01Y1275650D02*
X996361D01*
G01X997500Y1378000D02*
Y1387000D01*
G01X992950Y1410000D02*
X997950D01*
G01X996950Y1407500D02*
Y1412500D01*
G01Y1410000D02*
X993950Y1407500D01*
G01X996950Y1410000D02*
X993950Y1408000D01*
G01X996950Y1410000D02*
X993950Y1408500D01*
G01X996950Y1410000D02*
X993950Y1409000D01*
G01X996950Y1410000D02*
X993950Y1409500D01*
G01X996950Y1410000D02*
X993950Y1412500D01*
G01X996950Y1410000D02*
X993950Y1412000D01*
G01X996950Y1410000D02*
X993950Y1411500D01*
G01X996950Y1410000D02*
X993950Y1411000D01*
G01X996950Y1410000D02*
X993950Y1410500D01*
G01Y1407500D02*
Y1412500D01*
G01X1010111Y1269550D02*
X1012389D01*
G01X1019200Y1272500D02*
X1024200D01*
G01X1023200D02*
X1020200Y1270000D01*
G01X1023200Y1272500D02*
X1020200Y1270500D01*
G01X1023200Y1272500D02*
X1020200Y1271000D01*
G01X1023200Y1272500D02*
X1020200Y1271500D01*
G01X1023200Y1272500D02*
X1020200Y1272000D01*
G01X1023200Y1272500D02*
X1020200Y1275000D01*
G01X1023200Y1272500D02*
X1020200Y1274500D01*
G01X1023200Y1272500D02*
X1020200Y1274000D01*
G01X1023200Y1272500D02*
X1020200Y1273500D01*
G01X1023200Y1272500D02*
X1020200Y1273000D01*
G01Y1270000D02*
Y1275000D01*
G01X1012389Y1275450D02*
X1010111D01*
G01X1019500Y1303000D02*
Y1325000D01*
G01X1010500Y1303000D02*
X1019500D01*
G01X1010500Y1325000D02*
Y1303000D01*
G01X1019500Y1325000D02*
X1010500D01*
G01X1019350Y1377350D02*
X1035650D01*
G01X1007500Y1393000D02*
Y1402000D01*
G01X1035650Y1397650D02*
X1019350D01*
G01X1012250Y1464250D02*
X1042750D01*
G01X1012250Y1465090D02*
Y1464250D01*
G01X1042750Y1535750D02*
X1012250D01*
G01D02*
Y1534910D01*
G01X1029500Y1559500D02*
X1007500D01*
G01Y1550500D02*
X1029500D01*
G01X1007500Y1559500D02*
Y1550500D01*
G01X1023200Y1270000D02*
Y1275000D01*
G01X1029500Y1550500D02*
Y1559500D01*
G01X1042750Y1464250D02*
Y1465090D01*
G01Y1534910D02*
Y1535750D01*
G01X1069250Y1424500D02*
Y1445500D01*
G01X1080000Y1414550D02*
Y1409550D01*
G01X1077500Y1410550D02*
X1082500D01*
G01X1080000D02*
X1077500Y1413550D01*
G01X1080000Y1410550D02*
X1078000Y1413550D01*
G01X1080000Y1410550D02*
X1078500Y1413550D01*
G01X1080000Y1410550D02*
X1079000Y1413550D01*
G01X1080000Y1410550D02*
X1079500Y1413550D01*
G01X1080000Y1410550D02*
X1082500Y1413550D01*
G01X1080000Y1410550D02*
X1082000Y1413550D01*
G01X1080000Y1410550D02*
X1081500Y1413550D01*
G01X1080000Y1410550D02*
X1081000Y1413550D01*
G01X1080000Y1410550D02*
X1080500Y1413550D01*
G01X1077500D02*
X1082500D01*
G01X1087500Y1410550D02*
X1092500D01*
G01X1090000D02*
X1087500Y1413550D01*
G01X1090000Y1410550D02*
X1088000Y1413550D01*
G01X1087500D02*
X1092500D01*
G01X1082950Y1421361D02*
Y1423639D01*
G01X1077050D02*
Y1421361D01*
G01X1087050Y1423639D02*
Y1421361D01*
G01X1081900Y1437611D02*
Y1439889D01*
G01X1075600D02*
Y1437611D01*
G01X1085600Y1439889D02*
Y1437611D01*
G01X1090000Y1414550D02*
Y1409550D01*
G01Y1410550D02*
X1088500Y1413550D01*
G01X1090000Y1410550D02*
X1089000Y1413550D01*
G01X1090000Y1410550D02*
X1089500Y1413550D01*
G01X1090000Y1410550D02*
X1092500Y1413550D01*
G01X1090000Y1410550D02*
X1092000Y1413550D01*
G01X1090000Y1410550D02*
X1091500Y1413550D01*
G01X1090000Y1410550D02*
X1091000Y1413550D01*
G01X1090000Y1410550D02*
X1090500Y1413550D01*
G01X1100000Y1414550D02*
Y1409550D01*
G01X1097500Y1410550D02*
X1102500D01*
G01X1100000D02*
X1097500Y1413550D01*
G01X1100000Y1410550D02*
X1098000Y1413550D01*
G01X1100000Y1410550D02*
X1098500Y1413550D01*
G01X1100000Y1410550D02*
X1099000Y1413550D01*
G01X1100000Y1410550D02*
X1099500Y1413550D01*
G01X1100000Y1410550D02*
X1102500Y1413550D01*
G01X1100000Y1410550D02*
X1102000Y1413550D01*
G01X1100000Y1410550D02*
X1101500Y1413550D01*
G01X1100000Y1410550D02*
X1101000Y1413550D01*
G01X1100000Y1410550D02*
X1100500Y1413550D01*
G01X1097500D02*
X1102500D01*
G01X1092950Y1421361D02*
Y1423639D01*
G01X1102950Y1421361D02*
Y1423639D01*
G01X1097050D02*
Y1421361D01*
G01X1091900Y1437611D02*
Y1439889D01*
G01X1101900Y1437611D02*
Y1439889D01*
G01X1095600D02*
Y1437611D01*
G01X1110000Y1414550D02*
Y1409550D01*
G01X1107500Y1410550D02*
X1112500D01*
G01X1110000D02*
X1107500Y1413550D01*
G01X1110000Y1410550D02*
X1108000Y1413550D01*
G01X1110000Y1410550D02*
X1108500Y1413550D01*
G01X1110000Y1410550D02*
X1109000Y1413550D01*
G01X1110000Y1410550D02*
X1109500Y1413550D01*
G01X1110000Y1410550D02*
X1112500Y1413550D01*
G01X1110000Y1410550D02*
X1112000Y1413550D01*
G01X1110000Y1410550D02*
X1111500Y1413550D01*
G01X1110000Y1410550D02*
X1111000Y1413550D01*
G01X1110000Y1410550D02*
X1110500Y1413550D01*
G01X1107500D02*
X1112500D01*
G01X1112950Y1421361D02*
Y1423639D01*
G01X1107050D02*
Y1421361D01*
G01X1111900Y1437611D02*
Y1439889D01*
G01X1105600D02*
Y1437611D01*
G01X1115500Y1560500D02*
X1137500D01*
G01X1115500Y1569500D02*
Y1560500D01*
G01X1137500Y1569500D02*
X1115500D01*
G01X1137500Y1560500D02*
Y1569500D01*
G01X1215500Y1370500D02*
X1237500D01*
G01X1215500Y1379500D02*
Y1370500D01*
G01X1237500Y1379500D02*
X1215500D01*
G01X1237500Y1370500D02*
Y1379500D01*
G54D11*
G01X962500Y1404291D02*
Y1415709D01*
G01X1063209Y1340000D02*
X1051791D01*
G01X1080709D02*
X1069291D01*
G01X1099459Y1361250D02*
X1088041D01*
G01X1116959D02*
X1105541D01*
G01X1134459D02*
X1123041D01*
M02*
