G04 ================== begin FILE IDENTIFICATION RECORD ==================*
G04 Layout Name:  autohood_teamschematic_v1.brd*
G04 Film Name:    SolderMaskBottom*
G04 File Format:  Gerber RS274X*
G04 File Origin:  Cadence Allegro 17.4-S024*
G04 Origin Date:  Sun Feb 27 17:43:24 2022*
G04 *
G04 Layer:  VIA CLASS/SOLDERMASK_BOTTOM*
G04 Layer:  PIN/SOLDERMASK_BOTTOM*
G04 Layer:  DRC ERROR CLASS/SOLDERMASK_BOTTOM*
G04 *
G04 Offset:    (0.00 0.00)*
G04 Mirror:    No*
G04 Mode:      Positive*
G04 Rotation:  0*
G04 FullContactRelief:  No*
G04 UndefLineWidth:     0.01*
G04 ================== end FILE IDENTIFICATION RECORD ====================*
%FSLAX25Y25*MOIN*%
%IR0*IPPOS*OFA0.00000B0.00000*MIA0B0*SFA1.00000B1.00000*%
%ADD14C,.06*%
%ADD11C,.08*%
%ADD10C,.075*%
%ADD12C,.059*%
%ADD13R,.06181X.02559*%
%LPD*%
G75*
G54D10*
X867500Y1235000D03*
Y1225000D03*
X870000Y1300000D03*
Y1310000D03*
Y1325000D03*
X935000Y1300000D03*
Y1320000D03*
Y1310000D03*
X1062500Y1520000D03*
X1072500D03*
X1085000D03*
X1107500Y1510000D03*
Y1520000D03*
X1095000D03*
G54D11*
X867500Y1405000D03*
X900000Y1455000D03*
X942500Y1395000D03*
X927500Y1440000D03*
X930000Y1555000D03*
X955000Y1537500D03*
X962500Y1395000D03*
X980000Y1332500D03*
X987500Y1467500D03*
Y1512500D03*
Y1555000D03*
X1002500Y1372500D03*
X1007500Y1410000D03*
X997500Y1530000D03*
X1030000Y1362500D03*
X1057500Y1395000D03*
Y1417500D03*
X1055000Y1450000D03*
X1070000Y1365000D03*
Y1377500D03*
X1067500Y1490000D03*
X1077500Y1385000D03*
X1080000Y1477500D03*
X1095000Y1467500D03*
X1107500Y1482500D03*
X1117500Y1460000D03*
X1132500D03*
Y1487500D03*
X1145000Y1420000D03*
Y1430000D03*
Y1440000D03*
Y1450000D03*
Y1460000D03*
Y1470000D03*
Y1480000D03*
Y1490000D03*
Y1500000D03*
Y1510000D03*
Y1520000D03*
Y1530000D03*
Y1540000D03*
Y1550000D03*
Y1560000D03*
X1245000Y1420000D03*
Y1430000D03*
Y1450000D03*
Y1440000D03*
Y1470000D03*
Y1460000D03*
Y1480000D03*
Y1500000D03*
Y1490000D03*
Y1520000D03*
Y1510000D03*
Y1530000D03*
Y1550000D03*
Y1540000D03*
Y1560000D03*
G54D12*
X880472Y1427500D03*
X890315D03*
X900158D03*
X910000D03*
G54D13*
X979134Y1305000D03*
Y1310000D03*
Y1315000D03*
Y1320000D03*
X1000866D03*
Y1315000D03*
Y1310000D03*
Y1305000D03*
G54D14*
X993750Y1435000D03*
X1003750D03*
X1013750D03*
X1023750D03*
X1033750D03*
X1043750D03*
X1053750D03*
X1063750D03*
M02*
