G04 ================== begin FILE IDENTIFICATION RECORD ==================*
G04 Layout Name:  autohood_teamschematic_v2FUCKUFUCKERT.brd*
G04 Film Name:    SolderMaskTop*
G04 File Format:  Gerber RS274X*
G04 File Origin:  Cadence Allegro 17.4-S024*
G04 Origin Date:  Fri Mar  4 17:00:27 2022*
G04 *
G04 Layer:  VIA CLASS/SOLDERMASK_TOP*
G04 Layer:  PIN/SOLDERMASK_TOP*
G04 Layer:  DRC ERROR CLASS/SOLDERMASK_TOP*
G04 Layer:  BOARD GEOMETRY/SOLDERMASK_TOP*
G04 *
G04 Offset:    (0.00 0.00)*
G04 Mirror:    No*
G04 Mode:      Positive*
G04 Rotation:  0*
G04 FullContactRelief:  No*
G04 UndefLineWidth:     0.01*
G04 ================== end FILE IDENTIFICATION RECORD ====================*
%FSLAX25Y25*MOIN*%
%IR0*IPPOS*OFA0.00000B0.00000*MIA0B0*SFA1.00000B1.00000*%
%ADD21R,.118X.04*%
%ADD15R,.091X.221*%
%ADD22R,.108X.036*%
%ADD10R,.064X.125*%
%ADD27C,.06*%
%ADD13C,.08*%
%ADD23R,.05X.05*%
%ADD11C,.075*%
%ADD16R,.06X.06*%
%ADD17C,.059*%
%ADD25C,.2*%
%ADD12R,.315X.414*%
%ADD28R,.09X.022*%
%ADD19R,.63X.244*%
%ADD24R,.03X.048*%
%ADD18R,.023X.083*%
%ADD29R,.044X.018*%
%ADD14R,.064X.035*%
%ADD20R,.039X.075*%
%ADD26R,.06181X.02559*%
%LPD*%
G75*
G54D10*
X867400Y1200000D03*
G54D20*
X916600D03*
X920900Y1300000D03*
X909100D03*
X928400Y1200000D03*
X970900Y1280000D03*
X959100D03*
G54D11*
X867500Y1235000D03*
Y1225000D03*
X870000Y1300000D03*
Y1310000D03*
Y1325000D03*
X880000Y1368750D03*
Y1378750D03*
X900000Y1368750D03*
Y1378750D03*
X935000Y1300000D03*
Y1320000D03*
Y1310000D03*
X955000Y1307500D03*
X970000Y1192500D03*
X980000D03*
X1007500Y1277500D03*
X997500Y1351250D03*
X1017500Y1277500D03*
X1062500Y1520000D03*
X1072500D03*
X1082500Y1400000D03*
Y1410000D03*
X1085000Y1520000D03*
X1102500Y1405000D03*
Y1395000D03*
X1092500Y1400000D03*
Y1390000D03*
X1107500Y1510000D03*
Y1520000D03*
X1095000D03*
X1112500Y1400000D03*
Y1410000D03*
G54D12*
X880150Y1267500D03*
G54D21*
X925300D03*
Y1257500D03*
Y1277500D03*
G54D13*
X867500Y1405000D03*
X900000Y1455000D03*
X941562Y1402188D03*
X927500Y1440000D03*
X930000Y1555000D03*
X955000Y1537500D03*
X962500Y1395000D03*
X976250Y1398750D03*
X980000Y1332500D03*
X987500Y1369375D03*
Y1467500D03*
Y1511875D03*
Y1555000D03*
X997500Y1530000D03*
X1030000Y1362500D03*
X1057500Y1417500D03*
X1055000Y1450000D03*
X1072500Y1385000D03*
X1067500Y1377500D03*
Y1490000D03*
X1080000Y1477500D03*
X1095000Y1467500D03*
X1107500Y1482500D03*
X1114375Y1377500D03*
X1117500Y1460000D03*
X1132500D03*
Y1487500D03*
X1141875Y1377500D03*
X1145000Y1420000D03*
Y1430000D03*
Y1440000D03*
Y1450000D03*
Y1460000D03*
Y1470000D03*
Y1480000D03*
Y1490000D03*
Y1500000D03*
Y1510000D03*
Y1520000D03*
Y1530000D03*
Y1540000D03*
Y1550000D03*
Y1560000D03*
X1210000Y1342500D03*
Y1367500D03*
X1245000Y1420000D03*
Y1430000D03*
Y1450000D03*
Y1440000D03*
Y1470000D03*
Y1460000D03*
Y1480000D03*
Y1500000D03*
Y1490000D03*
Y1520000D03*
Y1510000D03*
Y1530000D03*
Y1550000D03*
Y1540000D03*
Y1560000D03*
G54D22*
X935000Y1366400D03*
Y1378600D03*
G54D14*
X892600Y1200000D03*
Y1190900D03*
Y1209100D03*
G54D23*
X947500Y1320000D03*
Y1328400D03*
X967500Y1320000D03*
X959100D03*
G54D24*
X948650Y1350800D03*
Y1384200D03*
X966350Y1350800D03*
Y1384200D03*
G54D15*
X885400Y1230000D03*
X914600D03*
G54D25*
X983750Y1223750D03*
X1052500Y1358750D03*
X1220000Y1225000D03*
G54D16*
X890000Y1300000D03*
Y1313000D03*
X905000Y1187000D03*
Y1200000D03*
X900000Y1555000D03*
X913000D03*
X942000Y1192500D03*
X942500Y1215000D03*
X929500D03*
X930000Y1227500D03*
Y1240500D03*
X942000Y1435000D03*
X955000Y1192500D03*
X947500Y1264500D03*
Y1277500D03*
X955000Y1435000D03*
X982000Y1277500D03*
X980000Y1382500D03*
X990000Y1397500D03*
X995000Y1277500D03*
X993000Y1382500D03*
X1003000Y1397500D03*
X1015000Y1307500D03*
Y1320500D03*
X1025000Y1555000D03*
X1012000D03*
X1082500Y1420000D03*
Y1433000D03*
X1107500Y1349500D03*
Y1362500D03*
X1102500Y1420000D03*
X1092500D03*
X1102500Y1433000D03*
X1092500D03*
X1117500Y1349500D03*
Y1362500D03*
X1112500Y1420000D03*
Y1433000D03*
X1115000Y1555000D03*
X1127500Y1349500D03*
Y1362500D03*
X1128000Y1555000D03*
G54D26*
X979134Y1305000D03*
Y1310000D03*
Y1315000D03*
Y1320000D03*
X1000866D03*
Y1315000D03*
Y1310000D03*
Y1305000D03*
G54D17*
X880472Y1427500D03*
X890315D03*
X900158D03*
X910000D03*
G54D18*
X907500Y1468400D03*
Y1521600D03*
X922500Y1468400D03*
X917500D03*
X912500D03*
Y1521600D03*
X917500D03*
X922500D03*
X937500Y1468400D03*
X932500D03*
X927500D03*
Y1521600D03*
X932500D03*
X937500D03*
X952500Y1468400D03*
X947500D03*
X942500D03*
Y1521600D03*
X947500D03*
X952500D03*
G54D27*
X993750Y1435000D03*
X1003750D03*
X1013750D03*
X1023750D03*
X1033750D03*
X1043750D03*
X1053750D03*
X1063750D03*
G54D19*
X930000Y1495000D03*
G54D28*
X1009500Y1467500D03*
Y1472500D03*
Y1477500D03*
Y1482500D03*
Y1487500D03*
Y1492500D03*
Y1497500D03*
Y1502500D03*
Y1507500D03*
Y1512500D03*
Y1517500D03*
Y1522500D03*
Y1527500D03*
Y1532500D03*
X1045500Y1467500D03*
Y1482500D03*
Y1477500D03*
Y1472500D03*
Y1497500D03*
Y1492500D03*
Y1487500D03*
Y1517500D03*
Y1512500D03*
Y1507500D03*
Y1502500D03*
Y1532500D03*
Y1527500D03*
Y1522500D03*
G54D29*
X1016500Y1380000D03*
Y1385000D03*
Y1390000D03*
Y1395000D03*
X1038500Y1385000D03*
Y1380000D03*
Y1395000D03*
Y1390000D03*
M02*
