G04 ================== begin FILE IDENTIFICATION RECORD ==================*
G04 Layout Name:  autohood_teamschematic_v3.4.brd*
G04 Film Name:    BOTTOM*
G04 File Format:  Gerber RS274X*
G04 File Origin:  Cadence Allegro 17.4-S024*
G04 Origin Date:  Sun Mar 27 22:53:37 2022*
G04 *
G04 Layer:  ETCH/BOTTOM*
G04 Layer:  PIN/BOTTOM*
G04 Layer:  VIA CLASS/BOTTOM*
G04 *
G04 Offset:    (0.00 0.00)*
G04 Mirror:    No*
G04 Mode:      Positive*
G04 Rotation:  0*
G04 FullContactRelief:  No*
G04 UndefLineWidth:     0.00*
G04 ================== end FILE IDENTIFICATION RECORD ====================*
%FSLAX25Y25*MOIN*%
%IR0*IPPOS*OFA0.00000B0.00000*MIA0B0*SFA1.00000B1.00000*%
%ADD11C,.05*%
%ADD10C,.06*%
%ADD12C,.065*%
%ADD13C,.015*%
%ADD14C,.025*%
%ADD15C,.035*%
%ADD16R,.25002X.25002*%
%ADD17C,.11004*%
%ADD18R,.25002X.25004*%
%ADD19R,.25004X.25004*%
G75*
%LPD*%
G75*
G36*
G01X861250Y1570000D02*
X1251250D01*
Y1180000D01*
X861250D01*
Y1570000D01*
G37*
%LPC*%
G75*
G36*
G01X1127048Y1486758D02*
G02X1126998Y1487500I5452J740D01*
G02X1132500Y1481998I5502J0D01*
G02X1131758Y1482048I-2J5502D01*
G01X1131660Y1482062D01*
X1115540Y1465941D01*
G03X1115936Y1465275I283J-283D01*
G02X1117500Y1465502I1564J-5274D01*
G02X1121938Y1463252I0J-5502D01*
G01X1128062D01*
G02X1132500Y1465502I4438J-3252D01*
G02Y1454498I0J-5502D01*
G02X1128062Y1456748I0J5502D01*
G01X1121938D01*
G02X1118417Y1454575I-4438J3252D01*
G03X1118201Y1453898I67J-394D01*
G01X1130424Y1441674D01*
G02X1131376Y1439375I-2300J-2299D01*
G01Y1400625D01*
G02X1130424Y1398326I-3252J0D01*
G01X1107299Y1375201D01*
G02X1105000Y1374248I-2300J2299D01*
G01X1079254D01*
X1079243Y1374060D01*
G02X1073750Y1368873I-5493J315D01*
G02X1068248Y1374375I0J5502D01*
G02X1070858Y1379056I5503J0D01*
G03X1070774Y1379776I-210J340D01*
G02X1066998Y1385000I1726J5224D01*
G02X1072500Y1390502I5502J0D01*
G02X1076880Y1388330I0J-5502D01*
G01X1076940Y1388252D01*
X1077500D01*
G02X1079799Y1387299I-1J-3252D01*
G01X1082597Y1384502D01*
X1103027D01*
X1115014Y1396488D01*
G03X1114622Y1397156I-283J283D01*
G02X1113125Y1396948I-1498J5294D01*
G02X1108907Y1398917I0J5502D01*
G03X1108201Y1398668I-306J-257D01*
G02X1102700Y1393273I-5501J107D01*
G02X1098828Y1394866I0J5502D01*
G03X1098150Y1394527I-282J-284D01*
G02X1098202Y1393775I-5450J-755D01*
G02X1087198I-5502J0D01*
G02X1089777Y1398436I5501J0D01*
G03Y1399114I-213J339D01*
G02X1087757Y1401358I2922J4662D01*
G03X1087010Y1401280I-359J-176D01*
G02X1081675Y1397123I-5335J1345D01*
G02X1076173Y1402625I0J5502D01*
G02X1078752Y1407286I5501J0D01*
G03Y1407964I-213J339D01*
G02X1077085Y1409591I2922J4662D01*
G03X1076352Y1409370I-333J-221D01*
G01Y1407525D01*
G02X1075399Y1405226I-3252J1D01*
G01X1058252Y1388078D01*
Y1371875D01*
G02X1057299Y1369576I-3252J1D01*
G01X1035424Y1347701D01*
G02X1033125Y1346748I-2300J2299D01*
G01X994438D01*
G02X992326Y1345014I-4438J3252D01*
G03X992495Y1344252I169J-362D01*
G01X1037500D01*
G02X1040506Y1343006I-1J-4252D01*
G01X1058371Y1325141D01*
G03X1059042Y1325522I283J283D01*
G02X1058873Y1326875I5333J1353D01*
G02X1064375Y1321373I5502J0D01*
G02X1063022Y1321542I0J5502D01*
G03X1062641Y1320871I-98J-388D01*
G01X1083036Y1300476D01*
X1083106Y1300469D01*
G02X1088002Y1295000I-607J-5469D01*
G02X1082500Y1289498I-5502J0D01*
G02X1077031Y1294394I0J5503D01*
G01X1077024Y1294464D01*
X1076185Y1295303D01*
G03X1075502Y1295019I-283J-283D01*
G01Y1295000D01*
G02X1070000Y1289498I-5502J0D01*
G01X1069981D01*
G03X1069697Y1288815I-1J-400D01*
G01X1070536Y1287976D01*
X1070606Y1287969D01*
G02X1075502Y1282500I-607J-5469D01*
G02X1070000Y1276998I-5502J0D01*
G02X1064531Y1281894I0J5503D01*
G01X1064524Y1281964D01*
X1063685Y1282803D01*
G03X1063002Y1282519I-283J-283D01*
G01Y1282500D01*
G02X1057500Y1276998I-5502J0D01*
G02X1052031Y1281894I0J5503D01*
G01X1052024Y1281964D01*
X1045739Y1288248D01*
X927500D01*
G02X924494Y1289494I1J4252D01*
G01X921994Y1291994D01*
G02X920748Y1295000I3006J3007D01*
G01Y1354008D01*
G02X919498Y1357500I4253J3492D01*
G02X925000Y1363002I5502J0D01*
G02X929661Y1360423I0J-5501D01*
G03X930339I339J213D01*
G02X935000Y1363002I4661J-2922D01*
G02X938438Y1361795I-1J-5502D01*
G01X938493Y1361752D01*
X940000D01*
G02X943006Y1360506I-1J-4252D01*
G01X946700Y1356813D01*
G03X947356Y1356954I282J283D01*
G02X952500Y1360502I5144J-1955D01*
G02X957969Y1355606I0J-5503D01*
G01X957976Y1355536D01*
X963815Y1349697D01*
G03X964498Y1349981I283J283D01*
G01Y1350000D01*
G02X970000Y1355502I5502J0D01*
G02X973492Y1354252I0J-5503D01*
G01X977500D01*
G02X980506Y1353006I-1J-4252D01*
G01X983815Y1349697D01*
G03X984498Y1349981I283J283D01*
G01Y1350000D01*
G02X990000Y1355502I5502J0D01*
G02X994438Y1353252I0J-5502D01*
G01X1031778D01*
X1051748Y1373222D01*
Y1389425D01*
G02X1052701Y1391724I3252J-1D01*
G01X1069848Y1408872D01*
Y1446603D01*
X1059240Y1457212D01*
X1059142Y1457198D01*
G02X1058400Y1457148I-740J5452D01*
G02X1063902Y1462650I0J5502D01*
G02X1063852Y1461908I-5502J-2D01*
G01X1063838Y1461810D01*
X1075399Y1450249D01*
G02X1076352Y1447950I-2299J-2300D01*
G01Y1415880D01*
G03X1077085Y1415659I400J0D01*
G02X1081675Y1418127I4590J-3034D01*
G02X1087177Y1412625I0J-5502D01*
G02X1084598Y1407964I-5501J0D01*
G03Y1407286I213J-339D01*
G02X1086618Y1405042I-2922J-4662D01*
G03X1087365Y1405120I359J176D01*
G02X1092700Y1409277I5335J-1345D01*
G02X1096572Y1407684I0J-5502D01*
G03X1097250Y1408023I282J284D01*
G02X1097198Y1408775I5450J755D01*
G02X1102700Y1414277I5502J0D01*
G02X1106918Y1412308I0J-5502D01*
G03X1107624Y1412557I306J257D01*
G02X1113125Y1417952I5501J-107D01*
G02X1118627Y1412450I0J-5502D01*
G02X1116048Y1407789I-5501J0D01*
G03Y1407111I213J-339D01*
G02X1118627Y1402450I-2922J-4661D01*
G02X1118419Y1400953I-5502J1D01*
G03X1119087Y1400561I385J-109D01*
G01X1121748Y1403223D01*
Y1436153D01*
X1105201Y1452701D01*
G02X1104248Y1455000I2299J2300D01*
G01Y1478062D01*
G02X1101998Y1482500I3252J4438D01*
G02X1113002I5502J0D01*
G02X1110752Y1478062I-5502J0D01*
G01Y1471315D01*
G03X1111434Y1471033I400J1D01*
G01X1127062Y1486660D01*
X1127048Y1486758D01*
G37*
G36*
G01X975339Y1189577D02*
G03X974661I-339J-213D01*
G02X970000Y1186998I-4661J2922D01*
G02Y1198002I0J5502D01*
G02X974661Y1195423I0J-5501D01*
G03X975339I339J213D01*
G02X980000Y1198002I4661J-2922D01*
G02Y1186998I0J-5502D01*
G02X975339Y1189577I0J5501D01*
G37*
G36*
G01X869577Y1230286D02*
G03Y1230964I-213J339D01*
G02X866998Y1235625I2922J4661D01*
G02X878002I5502J0D01*
G02X875423Y1230964I-5501J0D01*
G03Y1230286I213J-339D01*
G02X878002Y1225625I-2922J-4661D01*
G02X866998I-5502J0D01*
G02X869577Y1230286I5501J0D01*
G37*
G36*
G01X994164Y1251374D02*
X987167D01*
G02X983675Y1250123I-3493J4251D01*
G02Y1261127I0J5502D01*
G02X987167Y1259876I-1J-5502D01*
G01X995925D01*
G02X998931Y1258631I0J-4251D01*
G01X1005036Y1252526D01*
X1005106Y1252519D01*
G02X1010002Y1247050I-607J-5469D01*
G02X1004500Y1241548I-5502J0D01*
G02X999031Y1246444I0J5503D01*
G01X999024Y1246514D01*
X994164Y1251374D01*
G37*
G36*
G01X1012839Y1274577D02*
G03X1012161I-339J-213D01*
G02X1007500Y1271998I-4661J2922D01*
G02Y1283002I0J5502D01*
G02X1012161Y1280423I0J-5501D01*
G03X1012839I339J213D01*
G02X1017500Y1283002I4661J-2922D01*
G02Y1271998I0J-5502D01*
G02X1012839Y1274577I0J5501D01*
G37*
G36*
G01X1140739Y1279252D02*
X1148269Y1286781D01*
G02X1151275Y1288026I3006J-3006D01*
G01X1156225D01*
G02X1159231Y1286781I0J-4251D01*
G01X1167794Y1278219D01*
G03X1168461Y1278391I283J283D01*
G02X1173750Y1282377I5289J-1516D01*
G02X1178411Y1279798I0J-5501D01*
G03X1179089I339J213D01*
G02X1188411I4661J-2922D01*
G03X1189089I339J213D01*
G02X1198411I4661J-2922D01*
G03X1199089I339J213D01*
G02X1203750Y1282377I4661J-2922D01*
G02Y1271373I0J-5502D01*
G02X1199089Y1273952I0J5501D01*
G03X1198411I-339J-213D01*
G02X1189089I-4661J2922D01*
G03X1188411I-339J-213D01*
G02X1179089I-4661J2922D01*
G03X1178411I-339J-213D01*
G02X1175266Y1271586I-4661J2923D01*
G03X1175094Y1270919I111J-384D01*
G01X1185536Y1260476D01*
X1185606Y1260469D01*
G02X1190502Y1255000I-607J-5469D01*
G02X1185000Y1249498I-5502J0D01*
G02X1179531Y1254394I0J5503D01*
G01X1179524Y1254464D01*
X1154464Y1279524D01*
X1153036D01*
X1152197Y1278685D01*
G03X1152481Y1278002I283J-283D01*
G01X1152500D01*
G02X1158002Y1272500I0J-5502D01*
G02X1156752Y1269008I-5503J0D01*
G01Y1264261D01*
X1163036Y1257976D01*
X1163106Y1257969D01*
G02X1168002Y1252500I-607J-5469D01*
G02X1162500Y1246998I-5502J0D01*
G02X1157031Y1251894I0J5503D01*
G01X1157024Y1251964D01*
X1149494Y1259494D01*
G02X1148248Y1262500I3006J3007D01*
G01Y1269008D01*
G02X1146998Y1272500I4253J3492D01*
G01Y1272519D01*
G03X1146315Y1272803I-400J1D01*
G01X1145506Y1271994D01*
G02X1142500Y1270748I-3007J3006D01*
G01X1138492D01*
G02X1135000Y1269498I-3492J4253D01*
G02Y1280502I0J5502D01*
G02X1138492Y1279252I0J-5503D01*
G01X1140739D01*
G37*
G36*
G01X869831Y1399182D02*
X866964Y1402049D01*
X866894Y1402056D01*
G02X861998Y1407525I607J5469D01*
G02X867500Y1413027I5502J0D01*
G02X872969Y1408131I0J-5503D01*
G01X872976Y1408061D01*
X874598Y1406440D01*
X938070D01*
G02X945054I3492J-4253D01*
G01X952812D01*
G02X955818Y1405194I-1J-4252D01*
G01X963006Y1398006D01*
G02X964252Y1395000I-3006J-3007D01*
G01Y1386761D01*
X977386Y1373626D01*
X983248D01*
Y1385739D01*
X975714Y1393274D01*
X975644Y1393281D01*
G02X970748Y1398750I607J5469D01*
G02X976250Y1404252I5502J0D01*
G02X981719Y1399356I0J-5503D01*
G01X981726Y1399286D01*
X990506Y1390506D01*
G02X991752Y1387500I-3006J-3007D01*
G01Y1372867D01*
G02X993002Y1369375I-4253J-3492D01*
G02X987500Y1363873I-5502J0D01*
G02X984008Y1365124I1J5502D01*
G01X975625D01*
G02X972619Y1366369I0J4251D01*
G01X956994Y1381994D01*
G02X955748Y1385000I3006J3007D01*
G01Y1393239D01*
X951051Y1397936D01*
X945054D01*
G02X938070I-3492J4253D01*
G01X872837D01*
G02X869831Y1399182I1J4252D01*
G37*
G36*
G01X1044494Y1420506D02*
G02X1047500Y1421752I3007J-3006D01*
G01X1054008D01*
G02X1057500Y1423002I3492J-4253D01*
G02Y1411998I0J-5502D01*
G02X1054008Y1413248I0J5503D01*
G01X1049261D01*
X1034252Y1398239D01*
Y1365992D01*
G02X1035502Y1362500I-4253J-3492D01*
G02X1024498I-5502J0D01*
G02X1025748Y1365992I5503J0D01*
G01Y1400000D01*
G02X1026994Y1403006I4252J-1D01*
G01X1044494Y1420506D01*
G37*
G36*
G01X978302Y1429136D02*
G03Y1429814I-213J339D01*
G02X975723Y1434475I2922J4661D01*
G02X986727I5502J0D01*
G02X984148Y1429814I-5501J0D01*
G03Y1429136I213J-339D01*
G02X986727Y1424475I-2922J-4661D01*
G02X975723I-5502J0D01*
G02X978302Y1429136I5501J0D01*
G37*
G36*
G01X1048411Y1437923D02*
G03X1049089I339J213D01*
G02X1058411I4661J-2922D01*
G03X1059089I339J213D01*
G02X1063750Y1440502I4661J-2922D01*
G02Y1429498I0J-5502D01*
G02X1059089Y1432077I0J5501D01*
G03X1058411I-339J-213D01*
G02X1049089I-4661J2922D01*
G03X1048411I-339J-213D01*
G02X1039089I-4661J2922D01*
G03X1038411I-339J-213D01*
G02X1029089I-4661J2922D01*
G03X1028411I-339J-213D01*
G02X1019089I-4661J2922D01*
G03X1018411I-339J-213D01*
G02X1009089I-4661J2922D01*
G03X1008411I-339J-213D01*
G02X999089I-4661J2922D01*
G03X998411I-339J-213D01*
G02X993750Y1429498I-4661J2922D01*
G02Y1440502I0J5502D01*
G02X998411Y1437923I0J-5501D01*
G03X999089I339J213D01*
G02X1008411I4661J-2922D01*
G03X1009089I339J213D01*
G02X1018411I4661J-2922D01*
G03X1019089I339J213D01*
G02X1028411I4661J-2922D01*
G03X1029089I339J213D01*
G02X1038411I4661J-2922D01*
G03X1039089I339J213D01*
G02X1048411I4661J-2922D01*
G37*
G36*
G01X1080889Y1498927D02*
G03X1080211I-339J-213D01*
G02X1075550Y1496348I-4661J2922D01*
G02Y1507352I0J5502D01*
G02X1080211Y1504773I0J-5501D01*
G03X1080889I339J213D01*
G02X1085550Y1507352I4661J-2922D01*
G02Y1496348I0J-5502D01*
G02X1080889Y1498927I0J5501D01*
G37*
G36*
G01X1067839Y1517077D02*
G03X1067161I-339J-213D01*
G02X1062500Y1514498I-4661J2922D01*
G02Y1525502I0J5502D01*
G02X1067161Y1522923I0J-5501D01*
G03X1067839I339J213D01*
G02X1072500Y1525502I4661J-2922D01*
G02Y1514498I0J-5502D01*
G02X1067839Y1517077I0J5501D01*
G37*
G36*
G01X1090339D02*
G03X1089661I-339J-213D01*
G02X1085000Y1514498I-4661J2922D01*
G02Y1525502I0J5502D01*
G02X1089661Y1522923I0J-5501D01*
G03X1090339I339J213D01*
G02X1095000Y1525502I4661J-2922D01*
G02Y1514498I0J-5502D01*
G02X1090339Y1517077I0J5501D01*
G37*
G36*
G01X917701Y1553549D02*
G02X920000Y1554502I2300J-2299D01*
G01X934312D01*
G02X938750Y1556752I4438J-3252D01*
G02Y1545748I0J-5502D01*
G02X934312Y1547998I0J5502D01*
G01X921347D01*
X914813Y1541465D01*
X914827Y1541367D01*
G02X914877Y1540625I-5452J-740D01*
G02X909375Y1546127I-5502J0D01*
G02X910117Y1546077I2J-5502D01*
G01X910215Y1546063D01*
X917701Y1553549D01*
G37*
G36*
G01X983248Y1515367D02*
Y1551508D01*
G02X981998Y1555000I4253J3492D01*
G02X993002I5502J0D01*
G02X991752Y1551508I-5503J0D01*
G01Y1535348D01*
G03X992324Y1534988I400J1D01*
G02X994700Y1535527I2375J-4963D01*
G02X1000202Y1530025I0J-5502D01*
G02X997952Y1525587I-5502J0D01*
G01Y1476125D01*
G02X996999Y1473826I-3252J1D01*
G01X992788Y1469615D01*
X992802Y1469517D01*
G02X992852Y1468775I-5452J-740D01*
G02X987350Y1474277I-5502J0D01*
G02X988092Y1474227I2J-5502D01*
G01X988190Y1474213D01*
X991448Y1477472D01*
Y1507159D01*
G03X990808Y1507479I-400J0D01*
G02X987500Y1506373I-3309J4396D01*
G02X981998Y1511875I0J5502D01*
G02X983248Y1515367I5503J0D01*
G37*
G36*
G01X1141024Y1554275D02*
G03Y1554925I-233J325D01*
G02X1138623Y1559600I3351J4675D01*
G02X1150127I5752J0D01*
G02X1147726Y1554925I-5752J0D01*
G03Y1554275I233J-325D01*
G02Y1544925I-3351J-4675D01*
G03Y1544275I233J-325D01*
G02Y1534925I-3351J-4675D01*
G03Y1534275I233J-325D01*
G02Y1524925I-3351J-4675D01*
G03Y1524275I233J-325D01*
G02Y1514925I-3351J-4675D01*
G03Y1514275I233J-325D01*
G02Y1504925I-3351J-4675D01*
G03Y1504275I233J-325D01*
G02Y1494925I-3351J-4675D01*
G03Y1494275I233J-325D01*
G02Y1484925I-3351J-4675D01*
G03Y1484275I233J-325D01*
G02Y1474925I-3351J-4675D01*
G03Y1474275I233J-325D01*
G02Y1464925I-3351J-4675D01*
G03Y1464275I233J-325D01*
G02Y1454925I-3351J-4675D01*
G03Y1454275I233J-325D01*
G02Y1444925I-3351J-4675D01*
G03Y1444275I233J-325D01*
G02Y1434925I-3351J-4675D01*
G03Y1434275I233J-325D01*
G02Y1424925I-3351J-4675D01*
G03Y1424275I233J-325D01*
G02X1150127Y1419600I-3351J-4675D01*
G02X1138623I-5752J0D01*
G02X1141024Y1424275I5752J0D01*
G03Y1424925I-233J325D01*
G02Y1434275I3351J4675D01*
G03Y1434925I-233J325D01*
G02Y1444275I3351J4675D01*
G03Y1444925I-233J325D01*
G02Y1454275I3351J4675D01*
G03Y1454925I-233J325D01*
G02Y1464275I3351J4675D01*
G03Y1464925I-233J325D01*
G02Y1474275I3351J4675D01*
G03Y1474925I-233J325D01*
G02Y1484275I3351J4675D01*
G03Y1484925I-233J325D01*
G02Y1494275I3351J4675D01*
G03Y1494925I-233J325D01*
G02Y1504275I3351J4675D01*
G03Y1504925I-233J325D01*
G02Y1514275I3351J4675D01*
G03Y1514925I-233J325D01*
G02Y1524275I3351J4675D01*
G03Y1524925I-233J325D01*
G02Y1534275I3351J4675D01*
G03Y1534925I-233J325D01*
G02Y1544275I3351J4675D01*
G03Y1544925I-233J325D01*
G02Y1554275I3351J4675D01*
G37*
G36*
G01X1241024D02*
G03Y1554925I-233J325D01*
G02X1238623Y1559600I3351J4675D01*
G02X1250127I5752J0D01*
G02X1247726Y1554925I-5752J0D01*
G03Y1554275I233J-325D01*
G02Y1544925I-3351J-4675D01*
G03Y1544275I233J-325D01*
G02Y1534925I-3351J-4675D01*
G03Y1534275I233J-325D01*
G02Y1524925I-3351J-4675D01*
G03Y1524275I233J-325D01*
G02Y1514925I-3351J-4675D01*
G03Y1514275I233J-325D01*
G02Y1504925I-3351J-4675D01*
G03Y1504275I233J-325D01*
G02Y1494925I-3351J-4675D01*
G03Y1494275I233J-325D01*
G02Y1484925I-3351J-4675D01*
G03Y1484275I233J-325D01*
G02Y1474925I-3351J-4675D01*
G03Y1474275I233J-325D01*
G02Y1464925I-3351J-4675D01*
G03Y1464275I233J-325D01*
G02Y1454925I-3351J-4675D01*
G03Y1454275I233J-325D01*
G02Y1444925I-3351J-4675D01*
G03Y1444275I233J-325D01*
G02Y1434925I-3351J-4675D01*
G03Y1434275I233J-325D01*
G02Y1424925I-3351J-4675D01*
G03Y1424275I233J-325D01*
G02X1250127Y1419600I-3351J-4675D01*
G02X1238623I-5752J0D01*
G02X1241024Y1424275I5752J0D01*
G03Y1424925I-233J325D01*
G02Y1434275I3351J4675D01*
G03Y1434925I-233J325D01*
G02Y1444275I3351J4675D01*
G03Y1444925I-233J325D01*
G02Y1454275I3351J4675D01*
G03Y1454925I-233J325D01*
G02Y1464275I3351J4675D01*
G03Y1464925I-233J325D01*
G02Y1474275I3351J4675D01*
G03Y1474925I-233J325D01*
G02Y1484275I3351J4675D01*
G03Y1484925I-233J325D01*
G02Y1494275I3351J4675D01*
G03Y1494925I-233J325D01*
G02Y1504275I3351J4675D01*
G03Y1504925I-233J325D01*
G02Y1514275I3351J4675D01*
G03Y1514925I-233J325D01*
G02Y1524275I3351J4675D01*
G03Y1524925I-233J325D01*
G02Y1534275I3351J4675D01*
G03Y1534925I-233J325D01*
G02Y1544275I3351J4675D01*
G03Y1544925I-233J325D01*
G02Y1554275I3351J4675D01*
G37*
G36*
G01X1093540Y1549087D02*
X1093442Y1549073D01*
G02X1092700Y1549023I-740J5452D01*
G02X1098202Y1554525I0J5502D01*
G02X1098152Y1553783I-5502J-2D01*
G01X1098138Y1553685D01*
X1121949Y1529874D01*
G02X1122902Y1527575I-2299J-2300D01*
G01Y1507975D01*
G02X1121949Y1505676I-3252J1D01*
G01X1116513Y1500240D01*
X1116527Y1500142D01*
G02X1116577Y1499400I-5452J-740D01*
G02X1105573I-5502J0D01*
G02X1107745Y1503780I5502J0D01*
G03X1107503Y1504498I-242J318D01*
G01X1107497D01*
G02X1101998Y1510000I3J5502D01*
G02X1104577Y1514661I5501J0D01*
G03Y1515339I-213J339D01*
G02X1101998Y1520000I2922J4661D01*
G02X1113002I5502J0D01*
G02X1110423Y1515339I-5501J0D01*
G03Y1514661I213J-339D01*
G02X1113002Y1510000I-2922J-4661D01*
G02X1110830Y1505620I-5502J0D01*
G03X1111072Y1504902I242J-318D01*
G01X1111078D01*
G02X1111817Y1504852I-1J-5502D01*
G01X1111915Y1504838D01*
X1116398Y1509322D01*
Y1526228D01*
X1093540Y1549087D01*
G37*
G36*
G01X1155625Y1402500D02*
Y1563125D01*
X1237500D01*
Y1402500D01*
X1155625D01*
G37*
G36*
G01X887624Y1531875D02*
G02X888869Y1534881I4251J0D01*
G01X892649Y1538661D01*
X892656Y1538731D01*
G02X898125Y1543627I5469J-607D01*
G02X903627Y1538125I0J-5502D01*
G02X898731Y1532656I-5503J0D01*
G01X898661Y1532649D01*
X896126Y1530114D01*
Y1446761D01*
X911574Y1431314D01*
X924926D01*
X926524Y1432911D01*
X926531Y1432981D01*
G02X927748Y1435867I5469J-606D01*
G01Y1438875D01*
G02X927749Y1438894I4241J-214D01*
G03X927066Y1439178I-400J1D01*
G01X926131Y1438244D01*
G02X923125Y1436998I-3007J3006D01*
G01X917242D01*
G02X913750Y1435748I-3492J4253D01*
G02X908248Y1441250I0J5502D01*
G02X908653Y1443323I5502J1D01*
G03X908283Y1443874I-370J151D01*
G01X907868D01*
X907813Y1443830D01*
G02X904375Y1442623I-3439J4295D01*
G02Y1453627I0J5502D01*
G02X907867Y1452376I-1J-5502D01*
G01X916364D01*
X923899Y1459911D01*
X923906Y1459981D01*
G02X929375Y1464877I5469J-607D01*
G02X934599Y1461101I0J-5502D01*
G03X935319Y1461017I380J126D01*
G02X940000Y1463627I4681J-2893D01*
G02X945402Y1459171I0J-5502D01*
G03X946077Y1458965I392J77D01*
G01X951399Y1464286D01*
X951406Y1464356D01*
G02X956875Y1469252I5469J-607D01*
G02X962377Y1463750I0J-5502D01*
G02X957481Y1458281I-5503J0D01*
G01X957411Y1458274D01*
X936252Y1437114D01*
Y1435868D01*
X936295Y1435813D01*
G02X937502Y1432375I-4295J-3439D01*
G02X932606Y1426906I-5503J0D01*
G01X932536Y1426899D01*
X929693Y1424056D01*
G02X926687Y1422810I-3007J3006D01*
G01X909813D01*
G02X906807Y1424056I1J4252D01*
G01X888869Y1441994D01*
G02X887624Y1445000I3006J3006D01*
G01Y1531875D01*
G37*
G36*
G01X1061498Y1262975D02*
G02X1062744Y1265981I4252J-1D01*
G01X1104374Y1307611D01*
X1104381Y1307681D01*
G02X1109850Y1312577I5469J-607D01*
G02X1115352Y1307075I0J-5502D01*
G02X1110456Y1301606I-5503J0D01*
G01X1110386Y1301599D01*
X1070002Y1261214D01*
Y1250542D01*
G02X1071252Y1247050I-4253J-3492D01*
G02X1060248I-5502J0D01*
G02X1061498Y1250542I5503J0D01*
G01Y1262975D01*
G37*
G54D16*
X994375Y1215625D03*
G54D17*
X1035000Y1239375D03*
X1095000Y1254375D03*
X1111250Y1265625D03*
X1115625Y1281875D03*
X870000Y1302500D03*
X1140000Y1305625D03*
X871250Y1560625D03*
G54D18*
X875625Y1372500D03*
G54D19*
X1235000Y1388750D03*
%LPD*%
G75*
G36*
G01X929252Y1354008D02*
G03X929661Y1354577I-4254J3489D01*
G02X930339I339J-213D01*
G03X935000Y1351998I4661J2922D01*
G03X938215Y1353035I0J5502D01*
G01X938353Y1353134D01*
X959494Y1331994D01*
G03X962500Y1330748I3007J3006D01*
G01X973239D01*
X976994Y1326994D01*
G03X980000Y1325748I3007J3006D01*
G01X1020739D01*
X1039678Y1306810D01*
G02X1039394Y1306127I-283J-283D01*
G01X1039375D01*
G03X1033873Y1300625I0J-5502D01*
G03X1034927Y1297387I5501J0D01*
G02X1034603Y1296752I-323J-235D01*
G01X939164D01*
G02X938924Y1297472I0J400D01*
G03X941127Y1301875I-3299J4403D01*
G03X938548Y1306536I-5501J0D01*
G02Y1307214I213J339D01*
G03Y1316536I-2922J4661D01*
G02Y1317214I213J339D01*
G03X941127Y1321875I-2922J4661D01*
G03X930123I-5502J0D01*
G03X932702Y1317214I5501J0D01*
G02Y1316536I-213J-339D01*
G03Y1307214I2922J-4661D01*
G02Y1306536I-213J-339D01*
G03X930123Y1301875I2922J-4661D01*
G03X932326Y1297472I5502J0D01*
G02X932086Y1296752I-240J-320D01*
G01X929261D01*
X929252Y1296761D01*
Y1354008D01*
G37*
G36*
G01X1044877Y1300644D02*
G02X1045560Y1300928I400J1D01*
G01X1049312Y1297176D01*
G02X1048897Y1296515I-283J-283D01*
G03X1047500Y1296752I-1400J-4015D01*
G01X1044147D01*
G02X1043823Y1297387I-1J400D01*
G03X1044877Y1300625I-4447J3238D01*
G01Y1300644D01*
G37*
G36*
G01X1105623Y1404114D02*
G03X1108201Y1408668I-2923J4661D01*
G02X1108907Y1408917I400J-8D01*
G03X1110202Y1407789I4217J3534D01*
G02Y1407111I-213J-339D01*
G03X1107624Y1402557I2923J-4661D01*
G02X1106918Y1402308I-400J8D01*
G03X1105623Y1403436I-4217J-3534D01*
G02Y1404114I213J339D01*
G37*
%LPC*%
G75*
G54D17*
X955000Y1307500D03*
X936875Y1340000D03*
%LPD*%
G75*
G54D10*
X872500Y1235625D03*
Y1225625D03*
X870000Y1302500D03*
X867500Y1407525D03*
X871250Y1560625D03*
X904375Y1448125D03*
X900625Y1458125D03*
X898125Y1538125D03*
X909375Y1540625D03*
X925000Y1357500D03*
X922500Y1410625D03*
X913750Y1441250D03*
X935625Y1301875D03*
Y1321875D03*
Y1311875D03*
X936875Y1340000D03*
X935000Y1357500D03*
X941562Y1402188D03*
X932000Y1432375D03*
X940000Y1458125D03*
X929375Y1459375D03*
X938750Y1551250D03*
X955000Y1307500D03*
X952500Y1355000D03*
X953750Y1431875D03*
X956875Y1463750D03*
X970000Y1192500D03*
Y1350000D03*
X976250Y1398750D03*
X980000Y1192500D03*
X983675Y1255625D03*
X990000Y1350000D03*
X987500Y1369375D03*
X981225Y1424475D03*
Y1434475D03*
X987350Y1468775D03*
X987500Y1511875D03*
Y1555000D03*
X1004500Y1247050D03*
X1007500Y1277500D03*
X993750Y1435000D03*
X1003750D03*
X994700Y1530025D03*
X1017500Y1277500D03*
X1013750Y1435000D03*
X1023750D03*
X1035000Y1239375D03*
X1039375Y1300625D03*
X1030000Y1362500D03*
X1033750Y1435000D03*
X1030225Y1455300D03*
X1041875Y1555000D03*
X1057500Y1282500D03*
Y1417500D03*
X1043750Y1435000D03*
X1053750D03*
X1058400Y1462650D03*
X1065750Y1247050D03*
X1070000Y1282500D03*
Y1295000D03*
X1064375Y1326875D03*
X1073750Y1374375D03*
X1072500Y1385000D03*
X1063750Y1435000D03*
X1075550Y1501850D03*
X1062500Y1520000D03*
X1072500D03*
X1082500Y1295000D03*
X1081675Y1402625D03*
Y1412625D03*
X1085550Y1501850D03*
X1085000Y1520000D03*
X1102500Y1229375D03*
X1095000Y1254375D03*
X1101875Y1273750D03*
X1102700Y1398775D03*
X1092700Y1403775D03*
Y1393775D03*
X1102700Y1408775D03*
X1097600Y1473675D03*
X1107500Y1482500D03*
X1097600Y1500625D03*
X1107500Y1510000D03*
Y1520000D03*
X1095000D03*
X1092700Y1554525D03*
X1121250Y1245625D03*
X1111250Y1265625D03*
X1115625Y1281875D03*
X1125000Y1308750D03*
X1109850Y1307075D03*
X1115000Y1376250D03*
X1113125Y1402450D03*
Y1412450D03*
X1117500Y1460000D03*
X1111075Y1499400D03*
X1135000Y1275000D03*
X1140000Y1305625D03*
X1138750Y1379375D03*
X1132500Y1460000D03*
Y1487500D03*
X1152500Y1272500D03*
X1144375Y1292500D03*
X1162500Y1252500D03*
X1173750Y1276875D03*
X1165000Y1310000D03*
X1185000Y1255000D03*
X1183750Y1276875D03*
X1190000Y1310000D03*
X1193750Y1276875D03*
X1203750D03*
X1212500Y1252500D03*
X1215000Y1310000D03*
X1225000Y1270000D03*
X1237500Y1310000D03*
G54D11*
X875625Y1372500D03*
X994375Y1215625D03*
X1235000Y1388750D03*
G54D12*
X1144375Y1419600D03*
Y1429600D03*
Y1439600D03*
Y1449600D03*
Y1459600D03*
Y1469600D03*
Y1479600D03*
Y1489600D03*
Y1499600D03*
Y1509600D03*
Y1519600D03*
Y1529600D03*
Y1539600D03*
Y1549600D03*
Y1559600D03*
X1244375Y1419600D03*
Y1429600D03*
Y1449600D03*
Y1439600D03*
Y1469600D03*
Y1459600D03*
Y1479600D03*
Y1499600D03*
Y1489600D03*
Y1519600D03*
Y1509600D03*
Y1529600D03*
Y1549600D03*
Y1539600D03*
Y1559600D03*
G54D13*
G01X938750Y1551250D02*
X920000D01*
X909375Y1540625D01*
G01X994700Y1530025D02*
Y1476125D01*
X987350Y1468775D01*
G01X990000Y1350000D02*
X1033125D01*
X1055000Y1371875D01*
Y1389425D01*
X1073100Y1407525D01*
Y1447950D01*
X1058400Y1462650D01*
G01X1072500Y1385000D02*
X1077500D01*
X1081250Y1381250D01*
X1104374D01*
X1125000Y1401876D01*
Y1437500D01*
X1107500Y1455000D01*
Y1482500D01*
G01X1132500Y1487500D02*
X1111250Y1466250D01*
Y1456250D01*
X1128125Y1439375D01*
Y1400625D01*
X1105000Y1377500D01*
X1076875D01*
X1073750Y1374375D01*
G01X1111075Y1499400D02*
X1119650Y1507975D01*
Y1527575D01*
X1092700Y1554525D01*
G01X1132500Y1460000D02*
X1117500D01*
G54D14*
G01X872500Y1235625D02*
X878202D01*
G01X866798D02*
X872500D01*
G01D02*
Y1241327D01*
G01X870000Y1302500D02*
X875702D01*
G01X864298D02*
X870000D01*
G01D02*
Y1308202D01*
G01Y1296798D02*
Y1302500D01*
G01X935625Y1321875D02*
X941327D01*
G01X929923D02*
X935625D01*
G01D02*
Y1327577D01*
G01X980000Y1186798D02*
Y1192500D01*
G01D02*
X985702D01*
G01X980000D02*
Y1198202D01*
G01X981225Y1418773D02*
Y1424475D01*
G01D02*
X986927D01*
G01X975523D02*
X981225D01*
G01X1017500Y1277500D02*
X1023202D01*
G01X1017500D02*
Y1283202D01*
G01Y1271798D02*
Y1277500D01*
G01X1043750Y1435000D02*
Y1440702D01*
G01Y1429298D02*
Y1435000D01*
G01X1072500Y1514298D02*
Y1520000D01*
G01D02*
X1078202D01*
G01X1072500D02*
Y1525702D01*
G01X1081675Y1396923D02*
Y1402625D01*
G01X1086998Y1393775D02*
X1092700D01*
G01X1075973Y1402625D02*
X1081675D01*
G01X1085550Y1496148D02*
Y1501850D01*
G01D02*
X1091252D01*
G01X1085550D02*
Y1507552D01*
G01X1092700Y1393775D02*
X1098402D01*
G01X1092700Y1388073D02*
Y1393775D01*
G01X1102700Y1398775D02*
X1108402D01*
G01X1102700Y1393073D02*
Y1398775D01*
G01X1095000Y1514298D02*
Y1520000D01*
G01X1101798D02*
X1107500D01*
G01X1095000D02*
X1100702D01*
G01X1095000D02*
Y1525702D01*
G01X1113125Y1402450D02*
X1118827D01*
G01X1107423D02*
X1113125D01*
G01Y1396748D02*
Y1402450D01*
G01X1107500Y1520000D02*
X1113202D01*
G01X1107500D02*
Y1525702D01*
G01X1138423Y1549600D02*
X1144375D01*
G01D02*
X1150327D01*
G54D15*
G01X867500Y1407525D02*
X872837Y1402188D01*
X941562D01*
G01X932000Y1432375D02*
X926687Y1427062D01*
X909813D01*
X891875Y1445000D01*
Y1531875D01*
X898125Y1538125D01*
G01X904375Y1448125D02*
X918125D01*
X929375Y1459375D01*
G01X925000Y1357500D02*
Y1295000D01*
X927500Y1292500D01*
X1047500D01*
X1057500Y1282500D01*
G01X913750Y1441250D02*
X923125D01*
X940000Y1458125D01*
G01X1070000Y1282500D02*
X1022500Y1330000D01*
X980000D01*
X975000Y1335000D01*
X962500D01*
X940000Y1357500D01*
X935000D01*
G01X932000Y1432375D02*
Y1438875D01*
X956875Y1463750D01*
G01X1070000Y1295000D02*
X1030000Y1335000D01*
X982500D01*
X975000Y1342500D01*
X965000D01*
X952500Y1355000D01*
G01X987500Y1369375D02*
X975625D01*
X960000Y1385000D01*
Y1395000D01*
X952812Y1402188D01*
X941562D01*
G01X1082500Y1295000D02*
X1037500Y1340000D01*
X987500D01*
X977500Y1350000D01*
X970000D01*
G01X983675Y1255625D02*
X995925D01*
X1004500Y1247050D01*
G01X976250Y1398750D02*
X987500Y1387500D01*
Y1369375D01*
G01Y1555000D02*
Y1511875D01*
G01X1030000Y1362500D02*
Y1400000D01*
X1047500Y1417500D01*
X1057500D01*
G01X1109850Y1307075D02*
X1065750Y1262975D01*
Y1247050D01*
G01X1185000Y1255000D02*
X1156225Y1283775D01*
X1151275D01*
X1142500Y1275000D01*
X1135000D01*
G01X1152500Y1272500D02*
Y1262500D01*
X1162500Y1252500D01*
M02*
