G04 ================== begin FILE IDENTIFICATION RECORD ==================*
G04 Layout Name:  autohood_teamschematic_v2FUCKUFUCKERT.brd*
G04 Film Name:    SilkScreenTop*
G04 File Format:  Gerber RS274X*
G04 File Origin:  Cadence Allegro 17.4-S024*
G04 Origin Date:  Fri Mar  4 16:44:14 2022*
G04 *
G04 Layer:  MANUFACTURING/AUTOSILK_TOP*
G04 *
G04 Offset:    (0.00 0.00)*
G04 Mirror:    No*
G04 Mode:      Positive*
G04 Rotation:  0*
G04 FullContactRelief:  No*
G04 UndefLineWidth:     0.00*
G04 ================== end FILE IDENTIFICATION RECORD ====================*
%FSLAX25Y25*MOIN*%
%IR0*IPPOS*OFA0.00000B0.00000*MIA0B0*SFA1.00000B1.00000*%
%ADD10C,.006*%
G75*
%LPD*%
G75*
G54D10*
G01X887300Y1213200D02*
X872700D01*
Y1186800D01*
X887300D01*
Y1213200D01*
G01X885500Y1295500D02*
X894500D01*
G01X885500Y1317500D02*
Y1295500D01*
G01X894500Y1317500D02*
X885500D01*
G01X875052Y1446504D02*
Y1398260D01*
G01D02*
X921328D01*
G01Y1446504D02*
X875052D01*
G01X900500Y1204500D02*
Y1182500D01*
G01D02*
X909500D01*
G01X891251Y1218800D02*
X908749D01*
G01X909500Y1204500D02*
X900500D01*
G01X908749Y1241200D02*
X891251D01*
G01X897175Y1246500D02*
X908000D01*
G01X894500Y1295500D02*
Y1317500D01*
G01X908000Y1288500D02*
X897175D01*
G01X898000Y1472650D02*
X905044D01*
G01X898000Y1481589D02*
Y1472650D01*
G01Y1517350D02*
Y1508411D01*
G01X905044Y1517350D02*
X898000D01*
G01X895500Y1550500D02*
X917500D01*
G01X895500Y1559500D02*
Y1550500D01*
G01X917500Y1559500D02*
X895500D01*
G01X909500Y1182500D02*
Y1204500D01*
G01X919825Y1195950D02*
X925175D01*
G01Y1204050D02*
X919825D01*
G01X908000Y1246500D02*
Y1288500D01*
G01X909900Y1255600D02*
X918000D01*
G01X909900Y1265600D02*
X918000D01*
G01X909900Y1259400D02*
X918000D01*
G01X909900Y1269400D02*
X918000D01*
G01X909900Y1275600D02*
X918000D01*
G01X909900Y1279400D02*
X918000D01*
G01X912325Y1295950D02*
X917675D01*
G01Y1304050D02*
X912325D01*
G01X921328Y1398260D02*
Y1446504D01*
G01X917500Y1550500D02*
Y1559500D01*
G01X959500Y1197000D02*
X937500D01*
G01Y1188000D02*
X959500D01*
G01X937500Y1197000D02*
Y1188000D01*
G01X947000Y1219500D02*
X925000D01*
G01Y1210500D02*
X947000D01*
G01X925000Y1219500D02*
Y1210500D01*
G01X934500Y1223000D02*
Y1245000D01*
G01X925500Y1223000D02*
X934500D01*
G01X925500Y1245000D02*
Y1223000D01*
G01X934500Y1245000D02*
X925500D01*
G01X929200Y1375553D02*
Y1369447D01*
G01X937500Y1430500D02*
X959500D01*
G01X937500Y1439500D02*
Y1430500D01*
G01X959500Y1439500D02*
X937500D01*
G01X947000Y1210500D02*
Y1219500D01*
G01X943000Y1282000D02*
Y1260000D01*
G01X952000D02*
Y1282000D01*
G01X943000Y1260000D02*
X952000D01*
G01Y1282000D02*
X943000D01*
G01X943750Y1316200D02*
Y1332200D01*
G01X951250Y1316200D02*
X943750D01*
G01X951250Y1332200D02*
Y1316200D01*
G01X955300Y1316250D02*
Y1323750D01*
G01X971300Y1316250D02*
X955300D01*
G01X943750Y1332200D02*
X951250D01*
G01X955300Y1323750D02*
X971300D01*
G01X944800Y1380200D02*
Y1354800D01*
G01D02*
X970200D01*
G01X964400Y1367500D02*
G03I-6900J0D01*
G01X970200Y1380200D02*
X944800D01*
G01X940800Y1369447D02*
Y1375553D01*
G01X954956Y1472650D02*
X962000D01*
G01Y1517350D02*
X954956D01*
G01X959500Y1188000D02*
Y1197000D01*
G01X962325Y1275950D02*
X967675D01*
G01Y1284050D02*
X962325D01*
G01X971300Y1323750D02*
Y1316250D01*
G01X970200Y1354800D02*
Y1380200D01*
G01X959500Y1430500D02*
Y1439500D01*
G01X962000Y1472650D02*
Y1481589D01*
G01Y1508411D02*
Y1517350D01*
G01X999500Y1282000D02*
X977500D01*
G01Y1273000D02*
X999500D01*
G01X977500Y1282000D02*
Y1273000D01*
G01X975500Y1378000D02*
X997500D01*
G01X975500Y1387000D02*
Y1378000D01*
G01X997500Y1387000D02*
X975500D01*
G01X985500Y1393000D02*
X1007500D01*
G01X985500Y1402000D02*
Y1393000D01*
G01X1007500Y1402000D02*
X985500D01*
G01X988250Y1445500D02*
Y1424500D01*
G01D02*
X1069250D01*
G01Y1445500D02*
X988250D01*
G01X999500Y1273000D02*
Y1282000D01*
G01X997500Y1378000D02*
Y1387000D01*
G01X1019500Y1303000D02*
Y1325000D01*
G01X1010500Y1303000D02*
X1019500D01*
G01X1010500Y1325000D02*
Y1303000D01*
G01X1019500Y1325000D02*
X1010500D01*
G01X1019350Y1377350D02*
X1035650D01*
G01X1007500Y1393000D02*
Y1402000D01*
G01X1035650Y1397650D02*
X1019350D01*
G01X1012250Y1464250D02*
X1042750D01*
G01X1012250Y1465090D02*
Y1464250D01*
G01X1042750Y1535750D02*
X1012250D01*
G01D02*
Y1534910D01*
G01X1029500Y1559500D02*
X1007500D01*
G01Y1550500D02*
X1029500D01*
G01X1007500Y1559500D02*
Y1550500D01*
G01X1029500D02*
Y1559500D01*
G01X1042750Y1464250D02*
Y1465090D01*
G01Y1534910D02*
Y1535750D01*
G01X1069250Y1424500D02*
Y1445500D01*
G01X1087000Y1415500D02*
Y1437500D01*
G01X1078000Y1415500D02*
X1087000D01*
G01X1078000Y1437500D02*
Y1415500D01*
G01X1088000D02*
X1097000D01*
G01X1088000Y1437500D02*
Y1415500D01*
G01X1087000Y1437500D02*
X1078000D01*
G01X1097000D02*
X1088000D01*
G01X1103000Y1367000D02*
Y1345000D01*
G01D02*
X1112000D01*
G01Y1367000D02*
X1103000D01*
G01X1098000Y1415500D02*
X1107000D01*
G01X1098000Y1437500D02*
Y1415500D01*
G01X1097000D02*
Y1437500D01*
G01X1107000D02*
X1098000D01*
G01X1113000Y1367000D02*
Y1345000D01*
G01D02*
X1122000D01*
G01X1112000D02*
Y1367000D01*
G01X1122000D02*
X1113000D01*
G01X1117000Y1415500D02*
Y1437500D01*
G01X1108000Y1415500D02*
X1117000D01*
G01X1108000Y1437500D02*
Y1415500D01*
G01X1107000D02*
Y1437500D01*
G01X1117000D02*
X1108000D01*
G01X1110500Y1550500D02*
X1132500D01*
G01X1110500Y1559500D02*
Y1550500D01*
G01X1132500Y1559500D02*
X1110500D01*
G01X1122000Y1345000D02*
Y1367000D01*
G01X1123000D02*
Y1345000D01*
G01X1132000D02*
Y1367000D01*
G01X1123000Y1345000D02*
X1132000D01*
G01Y1367000D02*
X1123000D01*
G01X1132500Y1550500D02*
Y1559500D01*
M02*
