G04 ================== begin FILE IDENTIFICATION RECORD ==================*
G04 Layout Name:  autohood_teamschematic_v3.4.brd*
G04 Film Name:    TOP*
G04 File Format:  Gerber RS274X*
G04 File Origin:  Cadence Allegro 17.4-S024*
G04 Origin Date:  Sun Mar 27 22:53:37 2022*
G04 *
G04 Layer:  ETCH/TOP*
G04 Layer:  PIN/TOP*
G04 Layer:  VIA CLASS/TOP*
G04 *
G04 Offset:    (0.00 0.00)*
G04 Mirror:    No*
G04 Mode:      Positive*
G04 Rotation:  0*
G04 FullContactRelief:  No*
G04 UndefLineWidth:     0.00*
G04 ================== end FILE IDENTIFICATION RECORD ====================*
%FSLAX25Y25*MOIN*%
%IR0*IPPOS*OFA0.00000B0.00000*MIA0B0*SFA1.00000B1.00000*%
%ADD19R,.118X.04*%
%ADD26R,.221X.091*%
%ADD15R,.091X.221*%
%ADD21R,.108X.036*%
%ADD25R,.036X.108*%
%ADD13C,.05*%
%ADD10R,.064X.125*%
%ADD11C,.06*%
%ADD27C,.065*%
%ADD20R,.05X.05*%
%ADD16R,.06X.06*%
%ADD12R,.315X.414*%
%ADD23R,.09X.022*%
%ADD17R,.02X.066*%
%ADD24R,.044X.018*%
%ADD14R,.064X.035*%
%ADD18R,.039X.075*%
%ADD22R,.05984X.02362*%
%ADD28C,.01*%
%ADD29C,.015*%
%ADD30C,.025*%
%ADD31C,.035*%
%ADD32R,.25002X.25002*%
%ADD33C,.11004*%
%ADD34R,.25002X.25004*%
%ADD35R,.25004X.25004*%
G75*
%LPD*%
G75*
G36*
G01X861250Y1570000D02*
X1251250D01*
Y1248750D01*
G02X1250562Y1248473I-400J0D01*
G03X1250506Y1248529I-3034J-2978D01*
G01X1241654Y1257381D01*
G03X1238648Y1258626I-3006J-3006D01*
G01X1228011D01*
X1209763Y1276875D01*
X1231131Y1298244D01*
G03X1232376Y1301250I-3006J3006D01*
G01Y1322098D01*
X1239175D01*
G03X1241676Y1324600I0J2501D01*
G01Y1333700D01*
G03X1239177Y1336201I-2501J0D01*
G02X1238978Y1336401I1J200D01*
G01Y1351099D01*
G02X1239177Y1351299I200J0D01*
G03X1241676Y1353800I-2J2501D01*
G01Y1362900D01*
G03X1239175Y1365402I-2502J0D01*
G01X1232373D01*
X1232355Y1365581D01*
G03X1231131Y1368156I-4229J-432D01*
G01X1226731Y1372556D01*
G03X1223725Y1373802I-3007J-3006D01*
G01X1136800D01*
G03X1133794Y1372556I1J-4252D01*
G01X1106844Y1345606D01*
G03X1105598Y1342600I3006J-3007D01*
G01Y1340643D01*
G02X1104895Y1340382I-400J0D01*
G03X1103000Y1341252I-1896J-1631D01*
G01X1097000D01*
G03X1094834Y1340002I0J-2502D01*
G01X1093916D01*
G03X1091750Y1341252I-2166J-1252D01*
G01X1085750D01*
G03X1083584Y1340002I0J-2502D01*
G01X1082666D01*
G03X1080500Y1341252I-2166J-1252D01*
G01X1074500D01*
G03X1071998Y1338750I0J-2502D01*
G01Y1336261D01*
X1067283Y1331546D01*
G03X1064981Y1332344I-2908J-4671D01*
G01X1064911Y1332351D01*
X1056756Y1340506D01*
G03X1053750Y1341752I-3007J-3006D01*
G01X1034252D01*
Y1359008D01*
G03X1035502Y1362500I-4253J3492D01*
G03X1024498I-5502J0D01*
G03X1025748Y1359008I5503J0D01*
G01Y1348730D01*
G02X1025066Y1348447I-400J0D01*
G01X1005506Y1368006D01*
G03X1002500Y1369252I-3007J-3006D01*
G01X993636D01*
X992976Y1369911D01*
X992969Y1369981D01*
G03X987500Y1374877I-5469J-607D01*
G03X981998Y1369375I0J-5502D01*
G03X984201Y1364972I5502J0D01*
G02X983961Y1364252I-240J-320D01*
G01X974261D01*
X942402Y1396111D01*
G02X942608Y1396786I283J283D01*
G03X947064Y1402188I-1046J5402D01*
G03X941562Y1407690I-5502J0D01*
G03X936984Y1405240I0J-5502D01*
G02X936252Y1405462I-332J222D01*
G01Y1415459D01*
G03X937502Y1417625I-1252J2166D01*
G01Y1423625D01*
G03X936252Y1425791I-2502J0D01*
G01Y1428883D01*
G03X937502Y1432375I-4253J3492D01*
G03X926498I-5502J0D01*
G03X927748Y1428883I5503J0D01*
G01Y1425791D01*
G03X926498Y1423625I1252J-2166D01*
G01Y1417625D01*
G03X927748Y1415459I2502J0D01*
G01Y1400500D01*
G03X927985Y1399103I4252J3D01*
G02X927324Y1398688I-378J-132D01*
G01X910574Y1415438D01*
Y1434562D01*
X912035Y1436022D01*
G03X913750Y1435748I1715J5228D01*
G03Y1446752I0J5502D01*
G03X910061Y1445332I0J-5502D01*
G03X909862Y1445269I1183J-4084D01*
G02X909368Y1445815I-131J378D01*
G03X909877Y1448125I-4993J2311D01*
G03X904375Y1453627I-5502J0D01*
G03X898906Y1448731I0J-5503D01*
G01X898899Y1448661D01*
X896994Y1446756D01*
G03X895748Y1443750I3006J-3007D01*
G01Y1431230D01*
G02X895066Y1430947I-400J0D01*
G01X884876Y1441136D01*
Y1521108D01*
G02X885617Y1521317I400J0D01*
G03X887750Y1520124I2132J1309D01*
G01X893750D01*
G03X896252Y1522625I0J2502D01*
G01Y1528625D01*
G03X893750Y1531126I-2501J0D01*
G01X887750D01*
G03X885617Y1529933I-1J-2502D01*
G02X884876Y1530142I-341J209D01*
G01Y1532615D01*
X892122Y1539860D01*
G02X892792Y1539479I282J-283D01*
G03X892623Y1538125I5333J-1353D01*
G03X897519Y1532656I5503J0D01*
G01X897589Y1532649D01*
X899135Y1531103D01*
G02X899114Y1530517I-283J-283D01*
G03X898248Y1528625I1636J-1893D01*
G01Y1522625D01*
G03X900750Y1520124I2501J0D01*
G01X903239D01*
X903248Y1520114D01*
Y1513250D01*
G03X903964Y1510889I4251J0D01*
G01X903998Y1510839D01*
Y1509950D01*
G03X906500Y1507448I2502J0D01*
G01X953500D01*
G03X956002Y1509950I0J2502D01*
G01Y1516550D01*
G03X955752Y1517641I-2502J1D01*
G01Y1541748D01*
X964653D01*
X966748Y1539653D01*
Y1497500D01*
G03X967701Y1495201I3252J1D01*
G01X971648Y1491254D01*
G02X971490Y1490591I-283J-283D01*
G03X970201Y1489799I1011J-3090D01*
G01X965201Y1484799D01*
G03X964248Y1482500I2299J-2300D01*
G01Y1461347D01*
X961153Y1458252D01*
X959848D01*
G02X959646Y1458997I0J400D01*
G03X962377Y1463750I-2771J4753D01*
G03X957481Y1469219I-5503J0D01*
G01X957411Y1469226D01*
X956752Y1469886D01*
Y1476750D01*
G03X956036Y1479111I-4251J0D01*
G01X956002Y1479161D01*
Y1480050D01*
G03X953500Y1482552I-2502J0D01*
G01X906500D01*
G03X903998Y1480050I0J-2502D01*
G01Y1473450D01*
G03X904248Y1472359I2502J-1D01*
G01Y1463125D01*
G03X905201Y1460826I3252J1D01*
G01X923326Y1442701D01*
G03X925625Y1441748I2300J2299D01*
G01X967010D01*
G02X967292Y1441066I-1J-400D01*
G01X961776Y1435549D01*
G03X960824Y1433250I2300J-2299D01*
G01Y1425276D01*
X958675D01*
G03X956174Y1422775I0J-2501D01*
G01Y1419175D01*
G03X958580Y1416675I2502J0D01*
G02X958772Y1416475I-8J-200D01*
G01Y1413275D01*
G02X958580Y1413075I-200J0D01*
G03X956174Y1410575I96J-2500D01*
G01Y1406975D01*
G03X958675Y1404474I2501J0D01*
G01X969475D01*
G03X969954Y1404520I0J2517D01*
G01X969973Y1404524D01*
X971998D01*
Y1402242D01*
G03X970748Y1398750I4253J-3492D01*
G03X981752I5502J0D01*
G03X980503Y1402241I-5503J0D01*
G01X982786Y1404524D01*
X989964D01*
X990803Y1403684D01*
G02X990520Y1403002I-283J-282D01*
G01X987000D01*
G03X984498Y1400500I0J-2502D01*
G01Y1394500D01*
G03X987000Y1391998I2502J0D01*
G01X993000D01*
G03X995502Y1394500I0J2502D01*
G01Y1398020D01*
G02X996184Y1398303I400J0D01*
G01X997498Y1396989D01*
Y1394500D01*
G03X997810Y1393292I2502J2D01*
G03X997494Y1393006I2691J-3291D01*
G01X992489Y1388002D01*
X990000D01*
G03X987498Y1385500I0J-2502D01*
G01Y1379500D01*
G03X990000Y1376998I2502J0D01*
G01X996000D01*
G03X998502Y1379500I0J2502D01*
G01Y1381989D01*
X1002261Y1385748D01*
X1011798D01*
Y1384100D01*
G03X1012377Y1382500I2502J1D01*
G03X1011798Y1380900I1923J-1601D01*
G01Y1379100D01*
G03X1014300Y1376598I2502J0D01*
G01X1018700D01*
G03X1021202Y1379100I0J2502D01*
G01Y1380900D01*
G03X1020623Y1382500I-2502J-1D01*
G03X1021202Y1384100I-1923J1601D01*
G01Y1385900D01*
G03X1020623Y1387500I-2502J-1D01*
G03X1021202Y1389100I-1923J1601D01*
G01Y1390900D01*
G03X1020623Y1392500I-2502J-1D01*
G03X1021202Y1394100I-1923J1601D01*
G01Y1395900D01*
G03X1019091Y1398371I-2502J0D01*
G03X1016500Y1399252I-2591J-3371D01*
G01X1012511D01*
X1011256Y1400506D01*
G03X1008250Y1401752I-3007J-3006D01*
G03X1008166Y1401751I9J-4252D01*
G03X1006000Y1403002I-2166J-1250D01*
G01X1003511D01*
X994731Y1411781D01*
G03X991725Y1413026I-3006J-3006D01*
G01X969973D01*
X969954Y1413030D01*
G03X969570Y1413075I-482J-2455D01*
G02X969378Y1413275I8J200D01*
G01Y1416475D01*
G02X969570Y1416675I200J0D01*
G03X971976Y1419175I-96J2500D01*
G01Y1422775D01*
G03X969475Y1425276I-2501J0D01*
G01X967326D01*
Y1431903D01*
X977291Y1441867D01*
G02X977974Y1441585I283J-283D01*
G01Y1438913D01*
G03X975723Y1434475I3251J-4439D01*
G03X978302Y1429814I5501J0D01*
G02Y1429136I-213J-339D01*
G03X975723Y1424475I2922J-4661D01*
G03X986727I5502J0D01*
G03X984148Y1429136I-5501J0D01*
G02Y1429814I213J339D01*
G03X986727Y1434475I-2922J4661D01*
G03X984476Y1438913I-5502J-1D01*
G01Y1440478D01*
X989649Y1445651D01*
G03X990602Y1447950I-2299J2300D01*
G01Y1464337D01*
G03X992852Y1468775I-3252J4438D01*
G03X990161Y1473505I-5502J0D01*
G02X990365Y1474248I205J343D01*
G01X995185D01*
G02X995467Y1473566I-1J-400D01*
G01X995201Y1473299D01*
G03X994248Y1471000I2299J-2300D01*
G01Y1455000D01*
G03X995201Y1452701I3252J1D01*
G01X1000201Y1447701D01*
G03X1002500Y1446748I2300J2299D01*
G01X1016153D01*
X1020498Y1442403D01*
Y1439438D01*
G03X1019089Y1437923I3252J-4438D01*
G02X1018411I-339J213D01*
G03X1009089I-4661J-2922D01*
G02X1008411I-339J213D01*
G03X999089I-4661J-2922D01*
G02X998411I-339J213D01*
G03X993750Y1440502I-4661J-2922D01*
G03Y1429498I0J-5502D01*
G03X998411Y1432077I0J5501D01*
G02X999089I339J-213D01*
G03X1008411I4661J2922D01*
G02X1009089I339J-213D01*
G03X1018411I4661J2922D01*
G02X1019089I339J-213D01*
G03X1028411I4661J2922D01*
G02X1029089I339J-213D01*
G03X1038411I4661J2922D01*
G02X1039089I339J-213D01*
G03X1048411I4661J2922D01*
G02X1049089I339J-213D01*
G03X1049498Y1431508I4663J2920D01*
G01Y1421250D01*
G03X1050744Y1418244I4252J1D01*
G01X1052024Y1416964D01*
X1052031Y1416894D01*
G03X1057500Y1411998I5469J607D01*
G03X1063002Y1417500I0J5502D01*
G03X1058037Y1422976I-5502J0D01*
G01X1058002Y1423011D01*
Y1431508D01*
G03X1058411Y1432077I-4254J3489D01*
G02X1059089I339J-213D01*
G03X1063750Y1429498I4661J2922D01*
G03X1068503Y1432229I0J5502D01*
G02X1069248Y1432027I345J-202D01*
G01Y1397500D01*
G03X1070201Y1395201I3252J1D01*
G01X1074460Y1390941D01*
G02X1074064Y1390275I-283J-283D01*
G03X1072500Y1390502I-1564J-5274D01*
G03X1068062Y1388252I0J-5502D01*
G01X1043567D01*
G02X1043171Y1388713I-1J400D01*
G03X1043202Y1389100I-2471J393D01*
G01Y1390900D01*
G03X1042623Y1392500I-2502J-1D01*
G03X1043202Y1394100I-1923J1601D01*
G01Y1395900D01*
G03X1040700Y1398402I-2502J0D01*
G01X1036300D01*
G03X1033798Y1395900I0J-2502D01*
G01Y1394100D01*
G03X1034377Y1392500I2502J1D01*
G03X1033798Y1390900I1923J-1601D01*
G01Y1389100D01*
G03X1034377Y1387500I2502J1D01*
G03X1033798Y1385900I1923J-1601D01*
G01Y1384100D01*
G03X1034377Y1382500I2502J1D01*
G03X1033798Y1380900I1923J-1601D01*
G01Y1379100D01*
G03X1036300Y1376598I2502J0D01*
G01X1040700D01*
G03X1041522Y1376737I0J2502D01*
G01X1041554Y1376748D01*
X1059403D01*
X1064076Y1372076D01*
G03X1066375Y1371124I2299J2300D01*
G01X1069312D01*
G03X1073750Y1368873I4439J3251D01*
G03X1078503Y1371604I0J5502D01*
G02X1079248Y1371402I345J-202D01*
G01Y1361971D01*
X1075201Y1357923D01*
G03X1074248Y1355624I2299J-2300D01*
G01Y1354245D01*
X1074082Y1354216D01*
G03X1071998Y1351750I417J-2466D01*
G01Y1345750D01*
G03X1074500Y1343248I2502J0D01*
G01X1080500D01*
G03X1082763Y1344684I0J2501D01*
G02X1083487I362J-170D01*
G03X1085750Y1343248I2263J1065D01*
G01X1091750D01*
G03X1094013Y1344684I0J2501D01*
G02X1094737I362J-170D01*
G03X1097000Y1343248I2263J1065D01*
G01X1103000D01*
G03X1105502Y1345750I0J2502D01*
G01Y1351750D01*
G03X1103418Y1354216I-2501J0D01*
G01X1103252Y1354245D01*
Y1355528D01*
X1107597Y1359874D01*
X1118617D01*
G03X1120916Y1360826I0J3252D01*
G01X1131049Y1370959D01*
G03X1132002Y1373258I-2299J2300D01*
G01Y1426825D01*
G02X1132661Y1427129I400J0D01*
G03X1134775Y1426348I2114J2471D01*
G01X1139630D01*
G03X1141024Y1424925I4744J3253D01*
G02Y1424275I-233J-325D01*
G03X1138623Y1419600I3351J-4675D01*
G03X1150127I5752J0D01*
G03X1147726Y1424275I-5752J0D01*
G02Y1424925I233J325D01*
G03Y1434275I-3351J4675D01*
G02Y1434925I233J325D01*
G03Y1444275I-3351J4675D01*
G02Y1444925I233J325D01*
G03Y1454275I-3351J4675D01*
G02Y1454925I233J325D01*
G03Y1464275I-3351J4675D01*
G02Y1464925I233J325D01*
G03Y1474275I-3351J4675D01*
G02Y1474925I233J325D01*
G03Y1484275I-3351J4675D01*
G02Y1484925I233J325D01*
G03Y1494275I-3351J4675D01*
G02Y1494925I233J325D01*
G03Y1504275I-3351J4675D01*
G02Y1504925I233J325D01*
G03Y1514275I-3351J4675D01*
G02Y1514925I233J325D01*
G03Y1524275I-3351J4675D01*
G02Y1524925I233J325D01*
G03Y1534275I-3351J4675D01*
G02Y1534925I233J325D01*
G03Y1544275I-3351J4675D01*
G02Y1544925I233J325D01*
G03Y1554275I-3351J4675D01*
G02Y1554925I233J325D01*
G03X1150127Y1559600I-3351J4675D01*
G03X1144375Y1565352I-5752J0D01*
G03X1140501Y1563852I0J-5753D01*
G01X1127361D01*
X1123206Y1568006D01*
G03X1120200Y1569252I-3007J-3006D01*
G01X1007500D01*
G03X1005222Y1568590I0J-4252D01*
G01X874963D01*
G03X871957Y1567344I1J-4252D01*
G01X870714Y1566101D01*
X870644Y1566094D01*
G03X865781Y1561231I606J-5469D01*
G01X865774Y1561161D01*
X863244Y1558631D01*
G03X861998Y1555625I3006J-3007D01*
G01Y1414025D01*
G03X863247Y1411016I4252J1D01*
G03X861998Y1407525I4254J-3491D01*
G03X873002I5502J0D01*
G03X871795Y1410963I-5502J-1D01*
G01X871752Y1411018D01*
Y1412775D01*
G03X870502Y1415786I-4251J0D01*
G01Y1432520D01*
G02X871184Y1432803I400J0D01*
G01X880748Y1423239D01*
Y1397500D01*
G03X881994Y1394494I4252J1D01*
G01X919524Y1356964D01*
X919531Y1356894D01*
G03X925000Y1351998I5469J607D01*
G03X929661Y1354577I0J5501D01*
G02X930339I339J-213D01*
G03X935000Y1351998I4661J2922D01*
G03X940502Y1357500I0J5502D01*
G03X935606Y1362969I-5503J0D01*
G01X935536Y1362976D01*
X896752Y1401761D01*
Y1403770D01*
G02X897434Y1404053I400J0D01*
G01X947024Y1354464D01*
X947031Y1354394D01*
G03X952500Y1349498I5469J607D01*
G03X958002Y1355000I0J5502D01*
G01Y1355019D01*
G02X958685Y1355303I400J1D01*
G01X964524Y1349464D01*
X964531Y1349394D01*
G03X970000Y1344498I5469J607D01*
G03X975502Y1350000I0J5502D01*
G03X970606Y1355469I-5503J0D01*
G01X970536Y1355476D01*
X969789Y1356224D01*
X970046Y1356529D01*
G03X972500Y1355748I2456J3470D01*
G01X987505D01*
G02X987674Y1354986I0J-400D01*
G03X984498Y1350000I2326J-4986D01*
G03X984548Y1349258I5502J-2D01*
G01X984562Y1349160D01*
X977701Y1342299D01*
G03X976748Y1340000I2299J-2300D01*
G01Y1328847D01*
X972251Y1324350D01*
G02X971697Y1324338I-283J282D01*
G03X970709Y1324899I-1697J-1838D01*
G03X969799Y1326674I-3209J-524D01*
G01X954174Y1342299D01*
G03X951875Y1343252I-2300J-2299D01*
G01X941313D01*
G03X936875Y1345502I-4438J-3252D01*
G03Y1334498I0J-5502D01*
G03X941313Y1336748I0J5502D01*
G01X950528D01*
X953227Y1334050D01*
G02X952883Y1333372I-283J-283D01*
G03X952500Y1333402I-386J-2472D01*
G01X947500D01*
G03X944998Y1330900I0J-2502D01*
G01Y1325900D01*
G03X945665Y1324200I2502J1D01*
G03X944998Y1322500I1835J-1701D01*
G01Y1317500D01*
G03X945144Y1316661I2501J3D01*
G02X944767Y1316126I-377J-135D01*
G01X939117D01*
G03X938548Y1316536I-3494J-4249D01*
G02Y1317214I213J339D01*
G03X941127Y1321875I-2922J4661D01*
G03X930123I-5502J0D01*
G03X932702Y1317214I5501J0D01*
G02Y1316536I-213J-339D01*
G03Y1307214I2922J-4661D01*
G02Y1306536I-213J-339D01*
G03X932133Y1306126I2925J-4659D01*
G01X912500D01*
G03X909494Y1304881I0J-4251D01*
G01X903244Y1298631D01*
G03X901998Y1295625I3006J-3007D01*
G01Y1260625D01*
G03X903244Y1257619I4252J1D01*
G01X906369Y1254494D01*
G03X909375Y1253248I3007J3006D01*
G01X918310D01*
G03X919400Y1252998I1090J2251D01*
G01X921048D01*
Y1243552D01*
X911925D01*
G03X909424Y1241052I0J-2501D01*
G01X909423Y1240852D01*
X894327D01*
X894326Y1241052D01*
G03X891825Y1243552I-2501J-1D01*
G01X882725D01*
G03X880224Y1241050I0J-2501D01*
G01Y1234252D01*
X878321D01*
G02X877927Y1234717I0J400D01*
G03X878002Y1235625I-5427J905D01*
G03X866998I-5502J0D01*
G03X869577Y1230964I5501J0D01*
G02Y1230286I-213J-339D01*
G03X866998Y1225625I2922J-4661D01*
G03X872500Y1220123I5502J0D01*
G03X877969Y1225019I0J5503D01*
G01X877976Y1225089D01*
X878636Y1225748D01*
X880224D01*
Y1218950D01*
G03X882725Y1216448I2502J0D01*
G01X891825D01*
G03X894326Y1218948I0J2501D01*
G01X894327Y1219148D01*
X909423D01*
X909424Y1218948D01*
G03X911925Y1216448I2501J1D01*
G01X921025D01*
G03X923526Y1218950I0J2501D01*
G01Y1225748D01*
X923875D01*
G03X925222Y1225967I0J4252D01*
G02X925748Y1225588I126J-379D01*
G01Y1221375D01*
G03X928250Y1218874I2501J0D01*
G01X934250D01*
G03X936752Y1221375I0J2502D01*
G01Y1227375D01*
G03X934250Y1229876I-2501J0D01*
G01X930730D01*
G02X930447Y1230559I0J400D01*
G01X931761Y1231874D01*
X934250D01*
G03X936752Y1234375I0J2502D01*
G01Y1240375D01*
G03X934250Y1242876I-2501J0D01*
G01X931761D01*
X929552Y1245086D01*
Y1252998D01*
X931200D01*
G03X933702Y1255500I0J2502D01*
G01Y1259500D01*
G03X931200Y1262002I-2502J0D01*
G01X919400D01*
G03X918310Y1261752I0J-2501D01*
G01X911136D01*
X910502Y1262386D01*
Y1293864D01*
X914261Y1297624D01*
X932133D01*
G03X935625Y1296373I3493J4251D01*
G03X941127Y1301875I0J5502D01*
G03X938548Y1306536I-5501J0D01*
G02Y1307214I213J339D01*
G03X939117Y1307624I-2925J4659D01*
G01X943614D01*
X946744Y1304494D01*
G03X949750Y1303248I3007J3006D01*
G01X951507D01*
X951562Y1303205D01*
G03X955000Y1301998I3439J4295D01*
G03X958438Y1303205I-1J5502D01*
G01X958493Y1303248D01*
X960250D01*
G03X963256Y1304494I-1J4252D01*
G01X964511Y1305748D01*
X973640D01*
Y1303819D01*
G03X976142Y1301318I2501J0D01*
G01X982126D01*
G03X984628Y1303819I0J2502D01*
G01Y1306181D01*
G03X984251Y1307500I-2502J-2D01*
G03X984628Y1308819I-2125J1321D01*
G01Y1311181D01*
G03X984251Y1312500I-2502J-2D01*
G03X984628Y1313819I-2125J1321D01*
G01Y1316181D01*
G03X984251Y1317500I-2502J-2D01*
G03X984628Y1318819I-2125J1321D01*
G01Y1321181D01*
G03X982126Y1323682I-2501J0D01*
G01X981746D01*
G02X981464Y1324365I1J400D01*
G01X982299Y1325201D01*
G03X983252Y1327500I-2299J2300D01*
G01Y1338653D01*
X989160Y1344562D01*
X989258Y1344548D01*
G03X990000Y1344498I740J5452D01*
G03X995502Y1350000I0J5502D01*
G03X992326Y1354986I-5502J0D01*
G02X992495Y1355748I169J362D01*
G01X993239D01*
X1023553Y1325434D01*
G02X1023270Y1324752I-283J-282D01*
G01X1020166D01*
G03X1018000Y1326002I-2166J-1252D01*
G01X1012000D01*
G03X1009834Y1324752I0J-2502D01*
G01X1006608D01*
G03X1004608Y1324252I0J-4252D01*
G01X1000866D01*
G03X998786Y1323708I1J-4252D01*
G01X998741Y1323682D01*
X997874D01*
G03X995372Y1321181I0J-2502D01*
G01Y1318819D01*
G03X995749Y1317500I2502J2D01*
G03X995372Y1316181I2125J-1321D01*
G01Y1313819D01*
G03X995749Y1312500I2502J2D01*
G03X995372Y1311181I2125J-1321D01*
G01Y1308819D01*
G03X995749Y1307500I2502J2D01*
G03X995372Y1306181I2125J-1321D01*
G01Y1303819D01*
G03X997874Y1301318I2501J0D01*
G01X1003858D01*
G03X1006360Y1303819I0J2502D01*
G01Y1306181D01*
G03X1005983Y1307500I-2502J-2D01*
G03X1006360Y1308819I-2125J1321D01*
G01Y1311181D01*
G03X1005983Y1312500I-2502J-2D01*
G03X1006360Y1313819I-2125J1321D01*
G01Y1315752D01*
X1006539Y1315770D01*
G03X1008066Y1316226I-432J4230D01*
G01X1008109Y1316248D01*
X1009834D01*
G03X1012000Y1314998I2166J1252D01*
G01X1018000D01*
G03X1020166Y1316248I0J2502D01*
G01X1032739D01*
X1035124Y1313864D01*
Y1304117D01*
G03X1033906Y1301231I4250J-3494D01*
G01X1033899Y1301161D01*
X1026989Y1294252D01*
X974900D01*
G03X971894Y1293006I1J-4252D01*
G01X967894Y1289006D01*
G03X966648Y1286000I3006J-3007D01*
G01Y1284731D01*
X966634Y1284695D01*
G03X966449Y1283752I2316J-944D01*
G01X966448Y1283552D01*
X963552D01*
X963551Y1283752D01*
G03X961050Y1286252I-2501J-1D01*
G01X957150D01*
G03X954734Y1284400I0J-2502D01*
G01X954694Y1284252D01*
X950000D01*
G03X946989Y1283002I0J-4251D01*
G01X944500D01*
G03X942334Y1281752I0J-2502D01*
G01X932290D01*
G03X931200Y1282002I-1090J-2251D01*
G01X919400D01*
G03X916898Y1279500I0J-2502D01*
G01Y1275500D01*
G03X919400Y1272998I2502J0D01*
G01X931200D01*
G03X932290Y1273248I0J2501D01*
G01X942334D01*
G03X944500Y1271998I2166J1252D01*
G01X950500D01*
G03X953002Y1274500I0J2502D01*
G01Y1275748D01*
X954694D01*
X954734Y1275600D01*
G03X957150Y1273748I2416J650D01*
G01X961050D01*
G03X963551Y1276248I0J2501D01*
G01X963552Y1276448D01*
X966448D01*
X966449Y1276248D01*
G03X966648Y1275270I2501J0D01*
G01Y1244661D01*
X951809Y1229822D01*
G02X951126Y1230105I-283J283D01*
G01Y1233625D01*
G03X948625Y1236126I-2501J0D01*
G01X942625D01*
G03X940124Y1233625I0J-2501D01*
G01Y1227625D01*
G03X942625Y1225124I2501J0D01*
G01X946145D01*
G02X946428Y1224441I0J-400D01*
G01X945114Y1223126D01*
X942625D01*
G03X940124Y1220625I0J-2501D01*
G01Y1218136D01*
X937489Y1215502D01*
X900200D01*
G03X897194Y1214256I1J-4252D01*
G01X896289Y1213352D01*
X889400D01*
G03X886898Y1210850I0J-2502D01*
G01Y1207350D01*
G03X889400Y1204848I2502J0D01*
G01X898050D01*
G03X901056Y1206094I-1J4252D01*
G01X901961Y1206998D01*
X939250D01*
G03X942256Y1208244I-1J4252D01*
G01X946136Y1212124D01*
X948270D01*
G02X948553Y1211441I0J-400D01*
G01X941364Y1204252D01*
X932806D01*
X932766Y1204400D01*
G03X930350Y1206252I-2416J-650D01*
G01X926450D01*
G03X923949Y1203752I0J-2501D01*
G01X923948Y1203552D01*
X921052D01*
X921051Y1203752D01*
G03X918550Y1206252I-2501J-1D01*
G01X914650D01*
G03X912234Y1204400I0J-2502D01*
G01X912194Y1204252D01*
X910166D01*
G03X908000Y1205502I-2166J-1252D01*
G01X902000D01*
G03X899834Y1204252I0J-2502D01*
G01X889400D01*
G03X886898Y1201750I0J-2502D01*
G01Y1198250D01*
G03X889400Y1195748I2502J0D01*
G01X899834D01*
G03X902000Y1194498I2166J1252D01*
G01X908000D01*
G03X910166Y1195748I0J2502D01*
G01X912194D01*
X912234Y1195600D01*
G03X914650Y1193748I2416J650D01*
G01X918550D01*
G03X921051Y1196248I0J2501D01*
G01X921052Y1196448D01*
X923948D01*
X923949Y1196248D01*
G03X926450Y1193748I2501J1D01*
G01X930350D01*
G03X932594Y1195145I0J2501D01*
G02X933236Y1195251I359J-176D01*
G01X936498Y1191989D01*
Y1189500D01*
G03X939000Y1186998I2502J0D01*
G01X945000D01*
G03X947502Y1189500I0J2502D01*
G01Y1195500D01*
G03X946854Y1197179I-2502J-1D01*
G02X946868Y1197730I297J268D01*
G01X998790Y1249653D01*
G02X999441Y1249213I283J-283D01*
G03X998998Y1247050I5059J-2163D01*
G03X1003894Y1241581I5503J0D01*
G01X1003964Y1241574D01*
X1009169Y1236369D01*
G03X1012175Y1235124I3006J3006D01*
G01X1031508D01*
G03X1035000Y1233873I3493J4251D01*
G03X1040469Y1238769I0J5503D01*
G01X1040476Y1238839D01*
X1044436Y1242798D01*
X1062258D01*
G03X1065750Y1241548I3492J4253D01*
G03Y1252552I0J5502D01*
G03X1062258Y1251302I0J-5503D01*
G01X1042675D01*
G03X1039669Y1250056I1J-4252D01*
G01X1034464Y1244851D01*
X1034394Y1244844D01*
G03X1031508Y1243626I608J-5468D01*
G01X1013936D01*
X1009976Y1247586D01*
X1009969Y1247656D01*
G03X1004500Y1252552I-5469J-607D01*
G03X1002337Y1252109I0J-5502D01*
G02X1001897Y1252760I-157J368D01*
G01X1007386Y1258248D01*
X1021251D01*
G03X1024257Y1259494I-1J4252D01*
G01X1058631Y1293868D01*
G03X1059876Y1296874I-3006J3006D01*
G01Y1316364D01*
X1064911Y1321399D01*
X1064981Y1321406D01*
G03X1067813Y1322580I-608J5468D01*
G01X1067868Y1322624D01*
X1068625D01*
G03X1071631Y1323869I0J4251D01*
G01X1078011Y1330248D01*
X1080500D01*
G03X1082666Y1331498I0J2502D01*
G01X1083584D01*
G03X1085750Y1330248I2166J1252D01*
G01X1091750D01*
G03X1093916Y1331498I0J2502D01*
G01X1094834D01*
G03X1097000Y1330248I2166J1252D01*
G01X1103000D01*
G03X1104895Y1331118I-1J2501D01*
G02X1105598Y1330857I303J-261D01*
G01Y1310567D01*
G03X1104348Y1307075I4253J-3492D01*
G03X1115352I5502J0D01*
G03X1114102Y1310567I-5503J0D01*
G01Y1340839D01*
X1136391Y1363128D01*
G02X1137074Y1362845I283J-283D01*
G01Y1353800D01*
G03X1139573Y1351299I2501J0D01*
G02X1139772Y1351099I-1J-200D01*
G01Y1336401D01*
G02X1139573Y1336201I-200J0D01*
G03X1137074Y1333700I2J-2501D01*
G01Y1324600D01*
G03X1139575Y1322098I2502J0D01*
G01X1146374D01*
Y1318011D01*
X1139464Y1311101D01*
X1139394Y1311094D01*
G03X1134531Y1306231I606J-5469D01*
G01X1134524Y1306161D01*
X1127614Y1299252D01*
X1085992D01*
G03X1082500Y1300502I-3492J-4253D01*
G03X1076998Y1295000I0J-5502D01*
G01Y1294981D01*
G02X1076315Y1294697I-400J-1D01*
G01X1075476Y1295536D01*
X1075469Y1295606D01*
G03X1070000Y1300502I-5469J-607D01*
G03X1064498Y1295000I0J-5502D01*
G03X1069394Y1289531I5503J0D01*
G01X1069464Y1289524D01*
X1070303Y1288685D01*
G02X1070019Y1288002I-283J-283D01*
G01X1070000D01*
G03X1064498Y1282500I0J-5502D01*
G03X1069394Y1277031I5503J0D01*
G01X1069464Y1277024D01*
X1083869Y1262619D01*
G03X1086875Y1261374I3006J3006D01*
G01X1107758D01*
G03X1111250Y1260123I3493J4251D01*
G03X1114742Y1261374I-1J5502D01*
G01X1125625D01*
G03X1128631Y1262619I0J4251D01*
G01X1135536Y1269524D01*
X1135606Y1269531D01*
G03X1140502Y1275000I-607J5469D01*
G03X1140097Y1277073I-5502J1D01*
G02X1140467Y1277624I370J151D01*
G01X1141364D01*
X1147024Y1271964D01*
X1147031Y1271894D01*
G03X1152500Y1266998I5469J607D01*
G03X1158002Y1272500I0J5502D01*
G03X1153106Y1277969I-5503J0D01*
G01X1153036Y1277976D01*
X1146131Y1284881D01*
G03X1143125Y1286126I-3006J-3006D01*
G01X1119117D01*
G03X1115625Y1287377I-3493J-4251D01*
G03X1112133Y1286126I1J-5502D01*
G01X1084886D01*
X1082197Y1288815D01*
G02X1082481Y1289498I283J283D01*
G01X1082500D01*
G03X1085992Y1290748I0J5503D01*
G01X1129375D01*
G03X1132381Y1291994I-1J4252D01*
G01X1140536Y1300149D01*
X1140606Y1300156D01*
G03X1145469Y1305019I-606J5469D01*
G01X1145476Y1305089D01*
X1145691Y1305303D01*
G02X1146374Y1305020I283J-283D01*
G01Y1300000D01*
G03X1147619Y1296994I4251J0D01*
G01X1167737Y1276875D01*
X1146369Y1255506D01*
G03X1145124Y1252500I3006J-3006D01*
G01Y1244152D01*
X1138325D01*
G03X1135824Y1241650I0J-2501D01*
G01Y1232550D01*
G03X1138323Y1230049I2501J0D01*
G02X1138522Y1229849I-1J-200D01*
G01Y1215151D01*
G02X1138323Y1214951I-200J0D01*
G03X1135824Y1212450I2J-2501D01*
G01Y1203350D01*
G03X1138325Y1200848I2502J0D01*
G01X1160425D01*
G03X1162188Y1201575I0J2501D01*
G03X1163950Y1200848I1763J1775D01*
G01X1186050D01*
G03X1187812Y1201575I-1J2502D01*
G03X1189575Y1200848I1763J1774D01*
G01X1211675D01*
G03X1213438Y1201575I0J2501D01*
G03X1215200Y1200848I1763J1775D01*
G01X1237300D01*
G03X1239802Y1203350I0J2502D01*
G01Y1212450D01*
G03X1237302Y1214951I-2501J0D01*
G02X1237102Y1215151I0J200D01*
G01Y1229849D01*
G02X1237302Y1230049I200J0D01*
G03X1239802Y1232550I-1J2501D01*
G01Y1241650D01*
G03X1237300Y1244152I-2502J0D01*
G01X1230502D01*
Y1250124D01*
X1236887D01*
X1243248Y1243762D01*
Y1201761D01*
X1233239Y1191752D01*
X1143636D01*
X1133002Y1202386D01*
Y1220625D01*
G03X1131756Y1223631I-4252J-1D01*
G01X1100476Y1254911D01*
X1100469Y1254981D01*
G03X1095000Y1259877I-5469J-607D01*
G03X1091508Y1258626I1J-5502D01*
G01X1077386D01*
X1061752Y1274261D01*
Y1279008D01*
G03X1063002Y1282500I-4253J3492D01*
G03X1051998I-5502J0D01*
G03X1053248Y1279008I5503J0D01*
G01Y1272500D01*
G03X1054494Y1269494I4252J1D01*
G01X1072619Y1251369D01*
G03X1075625Y1250124I3006J3006D01*
G01X1091508D01*
G03X1094394Y1248906I3494J4250D01*
G01X1094464Y1248899D01*
X1124498Y1218864D01*
Y1200625D01*
G03X1125744Y1197619I4252J1D01*
G01X1138869Y1184494D01*
G03X1141875Y1183248I3007J3006D01*
G01X1235000D01*
G03X1238006Y1184494I-1J4252D01*
G01X1250506Y1196994D01*
G03X1250562Y1197050I-2978J3034D01*
G02X1251250Y1196773I288J-277D01*
G01Y1180000D01*
X861250D01*
Y1570000D01*
G37*
G36*
G01X876728Y1560086D02*
X889608D01*
G02X889803Y1559337I0J-400D01*
G03X888869Y1558631I2072J-3712D01*
G01X871184Y1540947D01*
G02X870502Y1541230I-282J283D01*
G01Y1553864D01*
X871786Y1555149D01*
X871856Y1555156D01*
G03X876706Y1559912I-606J5469D01*
G01X876728Y1560086D01*
G37*
G36*
G01X896760Y1544498D02*
X904603D01*
G02X904927Y1543863I1J-400D01*
G03X903873Y1540625I4447J-3238D01*
G03X904295Y1538512I5501J0D01*
G01X904346Y1538388D01*
X904110Y1538152D01*
X903601Y1538661D01*
X903594Y1538731D01*
G03X898125Y1543627I-5469J-607D01*
G03X896771Y1543458I-1J-5502D01*
G02X896390Y1544128I-98J388D01*
G01X896760Y1544498D01*
G37*
G36*
G01X921752Y1470948D02*
X938248D01*
Y1463341D01*
G03X935319Y1461017I1752J-5216D01*
G02X934599Y1461101I-340J210D01*
G03X929981Y1464844I-5224J-1726D01*
G01X929911Y1464851D01*
X926443Y1468319D01*
G03X923437Y1469564I-3006J-3006D01*
G01X922073D01*
X921752Y1469886D01*
Y1470948D01*
G37*
G36*
G01Y1545250D02*
G03X921615Y1546319I-4252J-2D01*
G02X922285Y1546703I387J101D01*
G01X938248Y1530739D01*
Y1519052D01*
X921752D01*
Y1545250D01*
G37*
G36*
G01X907807Y1535351D02*
G03X909248Y1535124I1569J5274D01*
G01Y1530629D01*
G02X908559Y1530352I-400J-1D01*
G03X908002Y1530791I-1811J-1725D01*
G01Y1532500D01*
G03X907354Y1534756I-4251J0D01*
G02X907807Y1535351I339J212D01*
G37*
G36*
G01X1029704Y1560748D02*
X1049839D01*
X1059069Y1551519D01*
G03X1062075Y1550274I3006J3006D01*
G01X1063924D01*
Y1549125D01*
G03X1063957Y1548717I2501J-3D01*
G02X1063562Y1548252I-394J-65D01*
G01X987500D01*
G03X985201Y1547299I1J-3252D01*
G01X983754Y1545852D01*
G02X983091Y1546010I-283J283D01*
G03X982299Y1547299I-3090J-1011D01*
G01X972299Y1557299D01*
G03X970000Y1558252I-2300J-2299D01*
G01X942500D01*
G03X940201Y1557299I1J-3252D01*
G01X939590Y1556688D01*
X939492Y1556702D01*
G03X938750Y1556752I-740J-5452D01*
G03X944252Y1551250I0J-5502D01*
G03X944251Y1551342I-5502J-14D01*
G02X944651Y1551748I400J6D01*
G01X946810D01*
G02X947092Y1551066I-1J-400D01*
G01X945201Y1549174D01*
G03X944248Y1546875I2299J-2300D01*
G01Y1537730D01*
G02X943566Y1537447I-400J0D01*
G01X922381Y1558631D01*
G03X921447Y1559337I-3006J-3006D01*
G02X921642Y1560086I195J349D01*
G01X983913D01*
G02X984156Y1559369I-1J-400D01*
G03X981998Y1555000I3344J-4369D01*
G03X987500Y1549498I5502J0D01*
G03X992976Y1554463I0J5502D01*
G01X993011Y1554498D01*
X1000114D01*
X1002619Y1551994D01*
G03X1005625Y1550748I3007J3006D01*
G01X1006834D01*
G03X1009000Y1549498I2166J1252D01*
G01X1015000D01*
G03X1017502Y1552000I0J2502D01*
G01Y1558000D01*
G03X1016344Y1560110I-2501J0D01*
G01X1016252Y1560169D01*
Y1560500D01*
G03X1016251Y1560546I-4250J-69D01*
G01Y1560748D01*
X1020296D01*
G02X1020531Y1560025I0J-400D01*
G03X1019498Y1558000I1468J-2025D01*
G01Y1552000D01*
G03X1022000Y1549498I2502J0D01*
G01X1028000D01*
G03X1030502Y1552000I0J2502D01*
G01Y1558000D01*
G03X1029469Y1560025I-2501J0D01*
G02X1029704Y1560748I235J323D01*
G37*
G36*
G01X934056Y1456483D02*
G02X934776Y1456399I340J-210D01*
G03X936411Y1453955I5224J1726D01*
G02X936150Y1453252I-261J-303D01*
G01X927597D01*
X927415Y1453434D01*
G02X927811Y1454100I283J283D01*
G03X929375Y1453873I1564J5274D01*
G03X934056Y1456483I0J5503D01*
G37*
G36*
G01X1042381Y1318631D02*
X1028188Y1332824D01*
G02X1028603Y1333485I283J283D01*
G03X1030000Y1333248I1400J4015D01*
G01X1051989D01*
X1058362Y1326875D01*
X1052619Y1321131D01*
G03X1051374Y1318125I3006J-3006D01*
G01Y1298635D01*
X1019490Y1266752D01*
X1005625D01*
G03X1002619Y1265506I1J-4252D01*
G01X951809Y1214697D01*
G02X951126Y1214980I-283J283D01*
G01Y1217114D01*
X973544Y1239532D01*
G03X973956Y1239894I-2594J3368D01*
G01X984211Y1250149D01*
X984281Y1250156D01*
G03X989177Y1255625I-607J5469D01*
G03X983675Y1261127I-5502J0D01*
G03X978206Y1256231I0J-5503D01*
G01X978199Y1256161D01*
X975834Y1253797D01*
G02X975152Y1254080I-282J283D01*
G01Y1275270D01*
G03X975352Y1276250I-2301J980D01*
G01Y1283750D01*
G03X975299Y1284259I-2502J-3D01*
G01X975277Y1284365D01*
X976200Y1285287D01*
X977748Y1283739D01*
Y1282666D01*
G03X976498Y1280500I1252J-2166D01*
G01Y1274500D01*
G03X979000Y1271998I2502J0D01*
G01X985000D01*
G03X987502Y1274500I0J2502D01*
G01Y1280500D01*
G03X986252Y1282666I-2502J0D01*
G01Y1285748D01*
X1028750D01*
G03X1031756Y1286994I-1J4252D01*
G01X1039911Y1295149D01*
X1039981Y1295156D01*
G03X1044877Y1300625I-607J5469D01*
G03X1043626Y1304117I-5502J-1D01*
G01Y1315625D01*
G03X1042381Y1318631I-4251J0D01*
G37*
G36*
G01X952500Y1314998D02*
G03X954267Y1315729I0J2501D01*
G02X954832I282J-283D01*
G03X956600Y1314998I1767J1771D01*
G01X959504D01*
X960391Y1314111D01*
G02X960335Y1313499I-283J-283D01*
G03X959744Y1313006I2417J-3498D01*
G01X958491Y1311753D01*
G03X955000Y1313002I-3491J-4254D01*
G03X951647Y1311862I0J-5501D01*
G01X951508Y1311755D01*
X948947Y1314316D01*
G02X949230Y1314998I283J282D01*
G01X952500D01*
G37*
G36*
G01X955002Y1330900D02*
G03X954972Y1331283I-2502J-3D01*
G02X955650Y1331627I395J61D01*
G01X961592Y1325685D01*
G02X961309Y1325002I-283J-283D01*
G01X956600D01*
G03X955466Y1324730I0J-2502D01*
G02X954901Y1325199I-181J357D01*
G03X955002Y1325900I-2401J704D01*
G01Y1330900D01*
G37*
G36*
G01X950752Y1459472D02*
Y1463378D01*
G02X951093Y1463520I200J0D01*
G01X951399Y1463214D01*
X951406Y1463144D01*
G03X954104Y1458997I5469J607D01*
G02X953902Y1458252I-202J-345D01*
G01X951972D01*
X950752Y1459472D01*
G37*
G36*
G01X981347Y1474248D02*
X984335D01*
G02X984539Y1473505I-1J-400D01*
G03X981848Y1468775I2811J-4730D01*
G03X984098Y1464337I5502J0D01*
G01Y1457872D01*
X981434Y1455208D01*
G02X980752Y1455490I-282J283D01*
G01Y1473653D01*
X981347Y1474248D01*
G37*
G36*
G01X993062Y1514248D02*
X1002109D01*
G02X1002508Y1513814I1J-400D01*
G03X1002498Y1513600I2492J-224D01*
G01Y1511752D01*
X993636D01*
X992976Y1512411D01*
X992969Y1512481D01*
G03X992685Y1513715I-5468J-609D01*
G02X993062Y1514248I377J133D01*
G37*
G36*
G01X1000150Y1529248D02*
X1002109D01*
G02X1002508Y1528814I1J-400D01*
G03X1002498Y1528600I2492J-224D01*
G01Y1526400D01*
G03X1002508Y1526186I2502J10D01*
G02X1002109Y1525752I-398J-34D01*
G01X999153D01*
G02X998851Y1526414I0J400D01*
G03X1000121Y1529083I-4151J3612D01*
G01X1000150Y1529248D01*
G37*
G36*
G01X991971Y1536748D02*
X1051185D01*
G02X1051467Y1536066I-1J-400D01*
G01X1051201Y1535799D01*
X1051073Y1535860D01*
G03X1050000Y1536102I-1073J-2260D01*
G01X1041000D01*
G03X1038498Y1533600I0J-2502D01*
G01Y1531400D01*
G03X1038927Y1530000I2502J1D01*
G03X1038498Y1528600I2073J-1401D01*
G01Y1526400D01*
G03X1038927Y1525000I2502J1D01*
G03X1038498Y1523600I2073J-1401D01*
G01Y1521400D01*
G03X1038927Y1520000I2502J1D01*
G03X1038498Y1518600I2073J-1401D01*
G01Y1516400D01*
G03X1038927Y1515000I2502J1D01*
G03X1038498Y1513600I2073J-1401D01*
G01Y1511400D01*
G03X1038927Y1510000I2502J1D01*
G03X1038498Y1508600I2073J-1401D01*
G01Y1506400D01*
G03X1038927Y1505000I2502J1D01*
G03X1038498Y1503600I2073J-1401D01*
G01Y1501400D01*
G03X1038927Y1500000I2502J1D01*
G03X1038498Y1498600I2073J-1401D01*
G01Y1496400D01*
G03X1038927Y1495000I2502J1D01*
G03X1038498Y1493600I2073J-1401D01*
G01Y1491400D01*
G03X1038927Y1490000I2502J1D01*
G03X1038498Y1488600I2073J-1401D01*
G01Y1486400D01*
G03X1038927Y1485000I2502J1D01*
G03X1038498Y1483600I2073J-1401D01*
G01Y1481400D01*
G03X1038927Y1480000I2502J1D01*
G03X1038498Y1478600I2073J-1401D01*
G01Y1476400D01*
G03X1038927Y1475000I2502J1D01*
G03X1038498Y1473600I2073J-1401D01*
G01Y1471400D01*
G03X1038927Y1470000I2502J1D01*
G03X1038498Y1468600I2073J-1401D01*
G01Y1466400D01*
G03X1041000Y1463898I2502J0D01*
G01X1046567D01*
G02X1046709Y1463557I0J-200D01*
G01X1046403Y1463252D01*
X1041500D01*
G03X1039201Y1462299I1J-3252D01*
G01X1037701Y1460799D01*
G03X1036748Y1458500I2299J-2300D01*
G01Y1457000D01*
G03X1037701Y1454701I3252J1D01*
G01X1039201Y1453201D01*
G03X1041500Y1452248I2300J2299D01*
G01X1059553D01*
X1060498Y1451303D01*
Y1439438D01*
G03X1059089Y1437923I3252J-4438D01*
G02X1058411I-339J213D01*
G03X1049089I-4661J-2922D01*
G02X1048411I-339J213D01*
G03X1039089I-4661J-2922D01*
G02X1038411I-339J213D01*
G03X1036996Y1439443I-4662J-2922D01*
G03X1036049Y1441549I-3246J-194D01*
G01X1020299Y1457299D01*
G03X1018000Y1458252I-2300J-2299D01*
G01X1008846D01*
X1005752Y1461346D01*
Y1463898D01*
X1014000D01*
G03X1016502Y1466400I0J2502D01*
G01Y1468600D01*
G03X1016073Y1470000I-2502J-1D01*
G03X1016502Y1471400I-2073J1401D01*
G01Y1473600D01*
G03X1016073Y1475000I-2502J-1D01*
G03X1016502Y1476400I-2073J1401D01*
G01Y1478600D01*
G03X1016073Y1480000I-2502J-1D01*
G03X1016502Y1481400I-2073J1401D01*
G01Y1483600D01*
G03X1016073Y1485000I-2502J-1D01*
G03X1016502Y1486400I-2073J1401D01*
G01Y1488600D01*
G03X1016073Y1490000I-2502J-1D01*
G03X1016502Y1491400I-2073J1401D01*
G01Y1493600D01*
G03X1016073Y1495000I-2502J-1D01*
G03X1016502Y1496400I-2073J1401D01*
G01Y1498600D01*
G03X1016073Y1500000I-2502J-1D01*
G03X1016502Y1501400I-2073J1401D01*
G01Y1503600D01*
G03X1016073Y1505000I-2502J-1D01*
G03X1016502Y1506400I-2073J1401D01*
G01Y1508600D01*
G03X1016073Y1510000I-2502J-1D01*
G03X1016502Y1511400I-2073J1401D01*
G01Y1513600D01*
G03X1016073Y1515000I-2502J-1D01*
G03X1016502Y1516400I-2073J1401D01*
G01Y1518600D01*
G03X1016073Y1520000I-2502J-1D01*
G03X1016502Y1521400I-2073J1401D01*
G01Y1523600D01*
G03X1016073Y1525000I-2502J-1D01*
G03X1016502Y1526400I-2073J1401D01*
G01Y1528600D01*
G03X1016073Y1530000I-2502J-1D01*
G03X1016502Y1531400I-2073J1401D01*
G01Y1533600D01*
G03X1014000Y1536102I-2502J0D01*
G01X1005000D01*
G03X1003724Y1535752I0J-2501D01*
G01X997175D01*
G03X995755Y1535425I1J-3252D01*
G03X994700Y1535527I-1055J-5400D01*
G03X991392Y1534421I1J-5502D01*
G02X990752Y1534741I-240J320D01*
G01Y1535529D01*
X991971Y1536748D01*
G37*
G36*
G01X1055065Y1474248D02*
X1055678D01*
X1079448Y1450478D01*
Y1440945D01*
X1079282Y1440916D01*
G03X1077198Y1438450I417J-2466D01*
G01Y1432450D01*
G03X1079700Y1429948I2502J0D01*
G01X1085700D01*
G03X1087424Y1430638I-1J2502D01*
G02X1087976I276J-290D01*
G03X1089700Y1429948I1725J1812D01*
G01X1095700D01*
G03X1097424Y1430638I-1J2502D01*
G02X1097976I276J-290D01*
G03X1099700Y1429948I1725J1812D01*
G01X1105700D01*
G03X1107608Y1430832I0J2501D01*
G02X1108217I304J-259D01*
G03X1110125Y1429948I1908J1617D01*
G01X1116125D01*
G03X1118626Y1432450I0J2501D01*
G01Y1438450D01*
G03X1116543Y1440916I-2501J0D01*
G01X1116376Y1440945D01*
Y1443060D01*
G02X1117059Y1443342I400J-1D01*
G01X1119248Y1441153D01*
Y1373847D01*
X1116153Y1370752D01*
X1101876D01*
G03X1099577Y1369799I1J-3252D01*
G01X1086451Y1356673D01*
G03X1085498Y1354374I2299J-2300D01*
G03X1085501Y1354239I3252J5D01*
G03X1083487Y1352816I249J-2489D01*
G02X1082763I-362J170D01*
G03X1081371Y1354095I-2263J-1066D01*
G02X1081227Y1354753I139J375D01*
G01X1084799Y1358325D01*
G03X1085752Y1360624I-2299J2300D01*
G01Y1387500D01*
G03X1084799Y1389799I-3252J-1D01*
G01X1075752Y1398847D01*
Y1443900D01*
G03X1074799Y1446199I-3252J-1D01*
G01X1063199Y1457799D01*
G03X1062540Y1458307I-2298J-2300D01*
G02X1062448Y1458924I202J345D01*
G03X1063902Y1462650I-4047J3726D01*
G03X1060732Y1467633I-5501J0D01*
G01X1060700Y1467648D01*
X1054783Y1473566D01*
G02X1055065Y1474248I283J282D01*
G37*
G36*
G01X1052891Y1489248D02*
X1057828D01*
X1060642Y1486434D01*
G02X1060360Y1485752I-283J-282D01*
G01X1052891D01*
G02X1052492Y1486186I-1J400D01*
G03X1052502Y1486400I-2492J224D01*
G01Y1488600D01*
G03X1052492Y1488814I-2502J-10D01*
G02X1052891Y1489248I398J34D01*
G37*
G36*
G01Y1504248D02*
X1053853D01*
X1056667Y1501434D01*
G02X1056385Y1500752I-283J-282D01*
G01X1052891D01*
G02X1052492Y1501186I-1J400D01*
G03X1052502Y1501400I-2492J224D01*
G01Y1503600D01*
G03X1052492Y1503814I-2502J-10D01*
G02X1052891Y1504248I398J34D01*
G37*
G36*
G01X1064565Y1381748D02*
X1068062D01*
G03X1070774Y1379776I4438J3252D01*
G02X1070858Y1379056I-126J-380D01*
G03X1069312Y1377626I2894J-4679D01*
G01X1067722D01*
X1064283Y1381066D01*
G02X1064565Y1381748I283J282D01*
G37*
G36*
G01X1067002Y1439438D02*
Y1443835D01*
G02X1067684Y1444117I400J-1D01*
G01X1069248Y1442553D01*
Y1437973D01*
G02X1068503Y1437771I-400J0D01*
G03X1067002Y1439438I-4753J-2771D01*
G37*
G36*
G01X1061515Y1506748D02*
X1071729D01*
G02X1071988Y1506044I0J-400D01*
G03X1071112Y1505102I3564J-4192D01*
G01X1062197D01*
X1061233Y1506066D01*
G02X1061515Y1506748I283J282D01*
G37*
G36*
G01X1058847Y1526748D02*
X1116153D01*
X1116748Y1526153D01*
Y1502050D01*
G02X1115991Y1501871I-400J0D01*
G03X1111078Y1504902I-4916J-2471D01*
G01X1111072D01*
G02X1110830Y1505620I0J400D01*
G03X1113002Y1510000I-3330J4380D01*
G03X1110423Y1514661I-5501J0D01*
G02Y1515339I213J339D01*
G03X1113002Y1520000I-2922J4661D01*
G03X1101998I-5502J0D01*
G03X1104577Y1515339I5501J0D01*
G02Y1514661I-213J-339D01*
G03X1103062Y1513252I2923J-4661D01*
G01X1088635D01*
G02X1088237Y1513690I0J400D01*
G03X1088252Y1514000I-3237J312D01*
G01Y1515562D01*
G03X1089661Y1517077I-3252J4438D01*
G02X1090339I339J-213D01*
G03X1095000Y1514498I4661J2922D01*
G03Y1525502I0J5502D01*
G03X1090339Y1522923I0J-5501D01*
G02X1089661I-339J213D01*
G03X1085000Y1525502I-4661J-2922D01*
G03X1079498Y1520000I0J-5502D01*
G03X1080829Y1516412I5502J0D01*
G02X1080525Y1515752I-304J-260D01*
G01X1076975D01*
G02X1076671Y1516412I0J400D01*
G03X1078002Y1520000I-4171J3588D01*
G03X1072500Y1525502I-5502J0D01*
G03X1067839Y1522923I0J-5501D01*
G02X1067161I-339J213D01*
G03X1062500Y1525502I-4661J-2922D01*
G03X1058926Y1524183I0J-5502D01*
G01X1058785Y1524063D01*
X1058049Y1524799D01*
G03X1057773Y1525045I-2298J-2300D01*
G02X1057739Y1525641I249J313D01*
G01X1058847Y1526748D01*
G37*
G36*
G01X1088636Y1269876D02*
X1081313Y1277199D01*
G02X1081728Y1277860I283J283D01*
G03X1083125Y1277624I1397J4015D01*
G01X1112133D01*
G03X1115625Y1276373I3493J4251D01*
G03X1119117Y1277624I-1J5502D01*
G01X1129533D01*
G02X1129903Y1277073I0J-400D01*
G03X1129531Y1275606I5097J-2073D01*
G01X1129524Y1275536D01*
X1123864Y1269876D01*
X1114742D01*
G03X1111250Y1271127I-3493J-4251D01*
G03X1107758Y1269876I1J-5502D01*
G01X1088636D01*
G37*
G36*
G01X1075392Y1380319D02*
G03X1078002Y1385000I-2893J4681D01*
G03X1077775Y1386564I-5501J0D01*
G02X1078441Y1386960I383J113D01*
G01X1079248Y1386153D01*
Y1377348D01*
G02X1078503Y1377146I-400J0D01*
G03X1075476Y1379599I-4753J-2771D01*
G02X1075392Y1380319I126J380D01*
G37*
G36*
G01X1086634Y1451867D02*
X1089448Y1449053D01*
Y1440945D01*
X1089282Y1440916D01*
G03X1087976Y1440262I418J-2466D01*
G02X1087424I-276J290D01*
G03X1086118Y1440916I-1724J-1812D01*
G01X1085952Y1440945D01*
Y1451585D01*
G02X1086634Y1451867I400J-1D01*
G37*
G36*
G01X1110235Y1493962D02*
X1110333Y1493948D01*
G03X1111075Y1493898I740J5452D01*
G03X1115991Y1496929I0J5502D01*
G02X1116748Y1496750I357J-179D01*
G01Y1496347D01*
X1108340Y1487938D01*
X1108242Y1487952D01*
G03X1107500Y1488002I-740J-5452D01*
G03X1113002Y1482500I0J-5502D01*
G03X1112952Y1483242I-5502J2D01*
G01X1112938Y1483340D01*
X1116066Y1486467D01*
G02X1116748Y1486185I282J-283D01*
G01Y1478847D01*
X1107701Y1469799D01*
G03X1106748Y1467500I2299J-2300D01*
G01Y1456615D01*
G02X1106066Y1456333I-400J1D01*
G01X1074283Y1488116D01*
G02X1074565Y1488798I283J282D01*
G01X1103725D01*
G03X1106024Y1489751I-1J3252D01*
G01X1110235Y1493962D01*
G37*
G36*
G01X1089371Y1506748D02*
X1103062D01*
G03X1107497Y1504498I4438J3252D01*
G01X1107503D01*
G02X1107745Y1503780I0J-400D01*
G03X1105573Y1499400I3330J-4380D01*
G03X1105623Y1498658I5502J-2D01*
G01X1105637Y1498560D01*
X1102378Y1495302D01*
X1074447D01*
X1073930Y1495819D01*
G02X1074303Y1496491I283J283D01*
G03X1075550Y1496348I1246J5359D01*
G03X1080211Y1498927I0J5501D01*
G02X1080889I339J-213D01*
G03X1085550Y1496348I4661J2922D01*
G03X1091052Y1501850I0J5502D01*
G03X1089112Y1506044I-5503J0D01*
G02X1089371Y1506748I259J304D01*
G37*
G36*
G01X1085095Y1560748D02*
X1118439D01*
X1118820Y1560368D01*
G02X1118678Y1560026I-142J-142D01*
G01X1117400D01*
G03X1114898Y1557525I0J-2502D01*
G01Y1551525D01*
G03X1117400Y1549024I2501J0D01*
G01X1123400D01*
G03X1125902Y1551525I0J2502D01*
G01Y1554014D01*
X1127236Y1555348D01*
X1140501D01*
G03X1141024Y1554925I3873J4253D01*
G02Y1554275I-233J-325D01*
G03Y1544925I3351J-4675D01*
G02Y1544275I-233J-325D01*
G03Y1534925I3351J-4675D01*
G02Y1534275I-233J-325D01*
G03X1139024Y1531709I3351J-4675D01*
G02X1138252Y1531856I-372J147D01*
G01Y1537500D01*
G03X1137299Y1539799I-3252J-1D01*
G01X1129799Y1547299D01*
G03X1127500Y1548252I-2300J-2299D01*
G01X1085088D01*
G02X1084693Y1548717I-1J400D01*
G03X1084726Y1549125I-2468J405D01*
G01Y1551274D01*
X1088262D01*
G03X1092700Y1549023I4439J3251D01*
G03Y1560027I0J5502D01*
G03X1088262Y1557776I1J-5502D01*
G01X1084726D01*
Y1559925D01*
G03X1084700Y1560290I-2501J5D01*
G02X1085095Y1560748I395J58D01*
G37*
G36*
G01X1096066Y1357091D02*
G02X1096748Y1356809I282J-283D01*
G01Y1354245D01*
X1096582Y1354216D01*
G03X1094737Y1352816I418J-2466D01*
G02X1094013I-362J170D01*
G03X1093309Y1353706I-2263J-1066D01*
G02X1093276Y1354302I250J313D01*
G01X1096066Y1357091D01*
G37*
G36*
G01X1096634Y1450442D02*
X1099448Y1447628D01*
Y1440945D01*
X1099282Y1440916D01*
G03X1097976Y1440262I418J-2466D01*
G02X1097424I-276J290D01*
G03X1096118Y1440916I-1724J-1812D01*
G01X1095952Y1440945D01*
Y1450160D01*
G02X1096634Y1450442I400J-1D01*
G37*
G36*
G01X1115936Y1454725D02*
G03X1117500Y1454498I1564J5274D01*
G03X1121088Y1455829I0J5502D01*
G02X1121748Y1455525I260J-304D01*
G01Y1450000D01*
G03X1122701Y1447701I3252J1D01*
G01X1125498Y1444903D01*
Y1444583D01*
G02X1125157Y1444441I-200J0D01*
G01X1115540Y1454059D01*
G02X1115936Y1454725I283J283D01*
G37*
G36*
G01X1105952Y1440945D02*
Y1446285D01*
G02X1106634Y1446567I400J-1D01*
G01X1109874Y1443328D01*
Y1440945D01*
X1109707Y1440916D01*
G03X1108217Y1440068I417J-2466D01*
G02X1107608I-305J259D01*
G03X1106118Y1440916I-1907J-1618D01*
G01X1105952Y1440945D01*
G37*
G36*
G01X1137064Y1456748D02*
G03X1138626Y1456348I1563J2852D01*
G01X1139629D01*
X1139689Y1456264D01*
G03X1141024Y1454925I4685J3336D01*
G02Y1454275I-233J-325D01*
G03Y1444925I3351J-4675D01*
G02Y1444275I-233J-325D01*
G03Y1434925I3351J-4675D01*
G02Y1434275I-233J-325D01*
G03X1139630Y1432852I3350J-4676D01*
G01X1136122D01*
X1132002Y1436972D01*
Y1446250D01*
G03X1131049Y1448549I-3252J-1D01*
G01X1128252Y1451347D01*
Y1455525D01*
G02X1128912Y1455829I400J0D01*
G03X1132500Y1454498I3588J4171D01*
G03X1136938Y1456748I0J5502D01*
G01X1137064D01*
G37*
G36*
G01X1128252Y1496347D02*
Y1510160D01*
G02X1128934Y1510442I400J-1D01*
G01X1138720Y1500657D01*
X1138703Y1500555D01*
G03X1138623Y1499600I5672J-956D01*
G03X1141024Y1494925I5752J0D01*
G02Y1494275I-233J-325D01*
G03Y1484925I3351J-4675D01*
G02Y1484275I-233J-325D01*
G03Y1474925I3351J-4675D01*
G02Y1474275I-233J-325D01*
G03Y1464925I3351J-4675D01*
G02Y1464275I-233J-325D01*
G03X1139672Y1462912I3350J-4675D01*
G03X1138226Y1463252I-1448J-2912D01*
G01X1136938D01*
G03X1132500Y1465502I-4438J-3252D01*
G03X1128912Y1464171I0J-5502D01*
G02X1128252Y1464475I-260J304D01*
G01Y1483025D01*
G02X1128912Y1483329I400J0D01*
G03X1132500Y1481998I3588J4171D01*
G03Y1493002I0J5502D01*
G03X1131758Y1492952I-2J-5502D01*
G01X1131660Y1492938D01*
X1128252Y1496347D01*
G37*
G36*
G01X1153626Y1250739D02*
X1156355Y1253468D01*
G02X1157035Y1253138I283J-283D01*
G03X1156998Y1252500I5465J-637D01*
G03X1162500Y1246998I5502J0D01*
G03X1165992Y1248248I0J5503D01*
G01X1170000D01*
G03X1170319Y1248260I0J4252D01*
G02X1170748Y1247862I29J-399D01*
G01Y1244152D01*
X1163950D01*
G03X1162188Y1243425I1J-2502D01*
G03X1160425Y1244152I-1763J-1774D01*
G01X1153626D01*
Y1250739D01*
G37*
G36*
G01X1138252Y1520322D02*
Y1527344D01*
G02X1139024Y1527491I400J0D01*
G03X1141024Y1524925I5351J2109D01*
G02Y1524275I-233J-325D01*
G03X1138673Y1520355I3351J-4675D01*
G01X1138664Y1520288D01*
X1138475Y1520099D01*
X1138252Y1520322D01*
G37*
G36*
G01X1160427Y1230049D02*
G03X1162188Y1230775I-1J2501D01*
G03X1163948Y1230049I1762J1775D01*
G02X1164148Y1229849I0J-200D01*
G01Y1215151D01*
G02X1163948Y1214951I-200J0D01*
G03X1162188Y1214225I2J-2501D01*
G03X1160427Y1214951I-1762J-1775D01*
G02X1160228Y1215151I1J200D01*
G01Y1229849D01*
G02X1160427Y1230049I200J0D01*
G37*
G36*
G01X1161532Y1258645D02*
X1170066Y1267178D01*
G02X1170748Y1266895I282J-283D01*
G01Y1259261D01*
X1168239Y1256752D01*
X1165992D01*
G03X1162500Y1258002I-3492J-4253D01*
G03X1161862Y1257965I-1J-5502D01*
G02X1161532Y1258645I-47J397D01*
G37*
G36*
G01X1161675Y1322098D02*
G03X1163464Y1322852I-1J2502D01*
G02X1164036I286J-280D01*
G03X1165825Y1322098I1790J1748D01*
G01X1172624D01*
Y1284980D01*
G02X1171941Y1284697I-400J0D01*
G01X1154876Y1301761D01*
Y1322098D01*
X1161675D01*
G37*
G36*
G01X1161677Y1351299D02*
G03X1163464Y1352052I-2J2501D01*
G02X1164036I286J-280D01*
G03X1165823Y1351299I1789J1748D01*
G02X1166022Y1351099I-1J-200D01*
G01Y1336401D01*
G02X1165823Y1336201I-200J0D01*
G03X1164036Y1335448I2J-2501D01*
G02X1163464I-286J280D01*
G03X1161677Y1336201I-1789J-1748D01*
G02X1161478Y1336401I1J200D01*
G01Y1351099D01*
G02X1161677Y1351299I200J0D01*
G37*
G36*
G01X1186052Y1230049D02*
G03X1187812Y1230775I-2J2501D01*
G03X1189573Y1230049I1762J1775D01*
G02X1189772Y1229849I-1J-200D01*
G01Y1215151D01*
G02X1189573Y1214951I-200J0D01*
G03X1187812Y1214225I1J-2501D01*
G03X1186052Y1214951I-1762J-1775D01*
G02X1185852Y1215151I0J200D01*
G01Y1229849D01*
G02X1186052Y1230049I200J0D01*
G37*
G36*
G01X1195691Y1254053D02*
G02X1196374Y1253770I283J-283D01*
G01Y1244152D01*
X1189575D01*
G03X1187812Y1243425I0J-2501D01*
G03X1186050Y1244152I-1763J-1775D01*
G01X1179252D01*
Y1252505D01*
G02X1180014Y1252674I400J0D01*
G03X1185000Y1249498I4986J2326D01*
G03X1188492Y1250748I0J5503D01*
G01X1190625D01*
G03X1193631Y1251994I-1J4252D01*
G01X1195691Y1254053D01*
G37*
G36*
G01X1188411Y1273952D02*
G02X1189089I339J-213D01*
G03X1193144Y1271406I4662J2923D01*
G01X1193214Y1271399D01*
X1196374Y1268239D01*
Y1266761D01*
X1188864Y1259252D01*
X1188493D01*
X1188438Y1259295D01*
G03X1185000Y1260502I-3439J-4295D01*
G03X1180014Y1257326I0J-5502D01*
G02X1179252Y1257495I-362J169D01*
G01Y1266364D01*
X1184286Y1271399D01*
X1184356Y1271406D01*
G03X1188411Y1273952I-607J5469D01*
G37*
G36*
G01X1187925Y1322098D02*
G03X1189688Y1322825I0J2501D01*
G03X1191450Y1322098I1763J1775D01*
G01X1198248D01*
Y1287386D01*
X1193214Y1282351D01*
X1193144Y1282344D01*
G03X1189089Y1279798I607J-5469D01*
G02X1188411I-339J213D01*
G03X1184356Y1282344I-4662J-2923D01*
G01X1184286Y1282351D01*
X1181126Y1285511D01*
Y1322098D01*
X1187925D01*
G37*
G36*
G01X1187927Y1351299D02*
G03X1189688Y1352025I-1J2501D01*
G03X1191448Y1351299I1762J1775D01*
G02X1191648Y1351099I0J-200D01*
G01Y1336401D01*
G02X1191448Y1336201I-200J0D01*
G03X1189688Y1335475I2J-2501D01*
G03X1187927Y1336201I-1762J-1775D01*
G02X1187728Y1336401I1J200D01*
G01Y1351099D01*
G02X1187927Y1351299I200J0D01*
G37*
G36*
G01X1211677Y1230049D02*
G03X1213438Y1230775I-1J2501D01*
G03X1215198Y1230049I1762J1775D01*
G02X1215398Y1229849I0J-200D01*
G01Y1215151D01*
G02X1215198Y1214951I-200J0D01*
G03X1213438Y1214225I2J-2501D01*
G03X1211677Y1214951I-1762J-1775D01*
G02X1211478Y1215151I1J200D01*
G01Y1229849D01*
G02X1211677Y1230049I200J0D01*
G37*
G36*
G01X1204876Y1244152D02*
Y1268770D01*
G02X1205559Y1269053I400J0D01*
G01X1221998Y1252614D01*
Y1244152D01*
X1215200D01*
G03X1213438Y1243425I1J-2502D01*
G03X1211675Y1244152I-1763J-1774D01*
G01X1204876D01*
G37*
G36*
G01X1213550Y1322098D02*
G03X1215312Y1322825I-1J2502D01*
G03X1217075Y1322098I1763J1774D01*
G01X1223874D01*
Y1303011D01*
X1207434Y1286572D01*
G02X1206752Y1286855I-282J283D01*
G01Y1322098D01*
X1213550D01*
G37*
G36*
G01X1213552Y1351299D02*
G03X1215312Y1352025I-2J2501D01*
G03X1217073Y1351299I1762J1775D01*
G02X1217272Y1351099I-1J-200D01*
G01Y1336401D01*
G02X1217073Y1336201I-200J0D01*
G03X1215312Y1335475I1J-2501D01*
G03X1213552Y1336201I-1762J-1775D01*
G02X1213352Y1336401I0J200D01*
G01Y1351099D01*
G02X1213552Y1351299I200J0D01*
G37*
%LPC*%
G75*
G36*
G01X939498Y1417625D02*
Y1423625D01*
G02X942000Y1426126I2502J-1D01*
G01X948000D01*
G02X950502Y1423625I1J-2501D01*
G01Y1417625D01*
G02X948000Y1415124I-2502J1D01*
G01X942000D01*
G02X939498Y1417625I-1J2501D01*
G37*
G36*
G01X974498Y1379500D02*
Y1385500D01*
G02X977000Y1388002I2502J0D01*
G01X983000D01*
G02X985502Y1385500I0J-2502D01*
G01Y1379500D01*
G02X983000Y1376998I-2502J0D01*
G01X977000D01*
G02X974498Y1379500I0J2502D01*
G37*
G36*
G01X1009498Y1304500D02*
Y1310500D01*
G02X1012000Y1313002I2502J0D01*
G01X1018000D01*
G02X1020502Y1310500I0J-2502D01*
G01Y1304500D01*
G02X1018000Y1301998I-2502J0D01*
G01X1012000D01*
G02X1009498Y1304500I0J2502D01*
G37*
G36*
G01X941998Y1261500D02*
Y1267500D01*
G02X944500Y1270002I2502J0D01*
G01X950500D01*
G02X953002Y1267500I0J-2502D01*
G01Y1261500D01*
G02X950500Y1258998I-2502J0D01*
G01X944500D01*
G02X941998Y1261500I0J2502D01*
G37*
G36*
G01X916898Y1265500D02*
Y1269500D01*
G02X919400Y1272002I2502J0D01*
G01X931200D01*
G02X933702Y1269500I0J-2502D01*
G01Y1265500D01*
G02X931200Y1262998I-2502J0D01*
G01X919400D01*
G02X916898Y1265500I0J2502D01*
G37*
G36*
G01X861898Y1246800D02*
Y1288200D01*
G02X864400Y1290702I2502J0D01*
G01X895900D01*
G02X898402Y1288200I0J-2502D01*
G01Y1246800D01*
G02X895900Y1244298I-2502J0D01*
G01X864400D01*
G02X861898Y1246800I0J2502D01*
G37*
G36*
G01X886898Y1189150D02*
Y1192650D01*
G02X889400Y1195152I2502J0D01*
G01X895800D01*
G02X898302Y1192650I0J-2502D01*
G01Y1189150D01*
G02X895800Y1186648I-2502J0D01*
G01X889400D01*
G02X886898Y1189150I0J2502D01*
G37*
G36*
G01X861698Y1193750D02*
Y1206250D01*
G02X864200Y1208752I2502J0D01*
G01X870600D01*
G02X873102Y1206250I0J-2502D01*
G01Y1193750D01*
G02X870600Y1191248I-2502J0D01*
G01X864200D01*
G02X861698Y1193750I0J2502D01*
G37*
G36*
G01X899498Y1184000D02*
Y1190000D01*
G02X902000Y1192502I2502J0D01*
G01X908000D01*
G02X910502Y1190000I0J-2502D01*
G01Y1184000D01*
G02X908000Y1181498I-2502J0D01*
G01X902000D01*
G02X899498Y1184000I0J2502D01*
G37*
G36*
G01X960166Y1196752D02*
X966508D01*
G02X970000Y1198002I3492J-4253D01*
G02X974661Y1195423I0J-5501D01*
G03X975339I339J213D01*
G02X980000Y1198002I4661J-2922D01*
G02Y1186998I0J-5502D01*
G02X975339Y1189577I0J5501D01*
G03X974661I-339J-213D01*
G02X970000Y1186998I-4661J2922D01*
G02X966508Y1188248I0J5503D01*
G01X960166D01*
G02X958000Y1186998I-2166J1252D01*
G01X952000D01*
G02X949498Y1189500I0J2502D01*
G01Y1195500D01*
G02X952000Y1198002I2502J0D01*
G01X958000D01*
G02X960166Y1196752I0J-2502D01*
G37*
G36*
G01X1241024Y1554275D02*
G03Y1554925I-233J325D01*
G02X1238623Y1559600I3351J4675D01*
G02X1250127I5752J0D01*
G02X1247726Y1554925I-5752J0D01*
G03Y1554275I233J-325D01*
G02Y1544925I-3351J-4675D01*
G03Y1544275I233J-325D01*
G02Y1534925I-3351J-4675D01*
G03Y1534275I233J-325D01*
G02Y1524925I-3351J-4675D01*
G03Y1524275I233J-325D01*
G02Y1514925I-3351J-4675D01*
G03Y1514275I233J-325D01*
G02Y1504925I-3351J-4675D01*
G03Y1504275I233J-325D01*
G02Y1494925I-3351J-4675D01*
G03Y1494275I233J-325D01*
G02Y1484925I-3351J-4675D01*
G03Y1484275I233J-325D01*
G02Y1474925I-3351J-4675D01*
G03Y1474275I233J-325D01*
G02Y1464925I-3351J-4675D01*
G03Y1464275I233J-325D01*
G02Y1454925I-3351J-4675D01*
G03Y1454275I233J-325D01*
G02Y1444925I-3351J-4675D01*
G03Y1444275I233J-325D01*
G02Y1434925I-3351J-4675D01*
G03Y1434275I233J-325D01*
G02Y1424925I-3351J-4675D01*
G03Y1424275I233J-325D01*
G02X1250127Y1419600I-3351J-4675D01*
G02X1238623I-5752J0D01*
G02X1241024Y1424275I5752J0D01*
G03Y1424925I-233J325D01*
G02Y1434275I3351J4675D01*
G03Y1434925I-233J325D01*
G02Y1444275I3351J4675D01*
G03Y1444925I-233J325D01*
G02Y1454275I3351J4675D01*
G03Y1454925I-233J325D01*
G02Y1464275I3351J4675D01*
G03Y1464925I-233J325D01*
G02Y1474275I3351J4675D01*
G03Y1474925I-233J325D01*
G02Y1484275I3351J4675D01*
G03Y1484925I-233J325D01*
G02Y1494275I3351J4675D01*
G03Y1494925I-233J325D01*
G02Y1504275I3351J4675D01*
G03Y1504925I-233J325D01*
G02Y1514275I3351J4675D01*
G03Y1514925I-233J325D01*
G02Y1524275I3351J4675D01*
G03Y1524925I-233J325D01*
G02Y1534275I3351J4675D01*
G03Y1534925I-233J325D01*
G02Y1544275I3351J4675D01*
G03Y1544925I-233J325D01*
G02Y1554275I3351J4675D01*
G37*
G36*
G01X1016498Y1194802D02*
X1117702D01*
Y1186498D01*
X1016498D01*
Y1194802D01*
G37*
G36*
G01X1237500Y1402500D02*
X1155625D01*
Y1563125D01*
X1237500D01*
Y1402500D01*
G37*
G36*
G01X1000166Y1281752D02*
X1004008D01*
G02X1007500Y1283002I3492J-4253D01*
G02X1012161Y1280423I0J-5501D01*
G03X1012839I339J213D01*
G02X1017500Y1283002I4661J-2922D01*
G02Y1271998I0J-5502D01*
G02X1012839Y1274577I0J5501D01*
G03X1012161I-339J-213D01*
G02X1007500Y1271998I-4661J2922D01*
G02X1004008Y1273248I0J5503D01*
G01X1000166D01*
G02X998000Y1271998I-2166J1252D01*
G01X992000D01*
G02X989498Y1274500I0J2502D01*
G01Y1280500D01*
G02X992000Y1283002I2502J0D01*
G01X998000D01*
G02X1000166Y1281752I0J-2502D01*
G37*
G36*
G01X1108217Y1427068D02*
G02X1110125Y1427952I1908J-1617D01*
G01X1116125D01*
G02X1118626Y1425450I-1J-2502D01*
G01Y1419450D01*
G02X1117029Y1417118I-2501J0D01*
G03X1116899Y1416454I144J-373D01*
G02X1118627Y1412450I-3775J-4004D01*
G02X1116048Y1407789I-5501J0D01*
G03Y1407111I213J-339D01*
G02X1118627Y1402450I-2922J-4661D01*
G02X1113125Y1396948I-5502J0D01*
G02X1108907Y1398917I0J5502D01*
G03X1108201Y1398668I-306J-257D01*
G02X1102700Y1393273I-5501J107D01*
G02X1098828Y1394866I0J5502D01*
G03X1098150Y1394527I-282J-284D01*
G02X1098202Y1393775I-5450J-755D01*
G02X1087198I-5502J0D01*
G02X1089777Y1398436I5501J0D01*
G03Y1399114I-213J339D01*
G02X1087757Y1401358I2922J4662D01*
G03X1087010Y1401280I-359J-176D01*
G02X1081675Y1397123I-5335J1345D01*
G02X1076173Y1402625I0J5502D01*
G02X1078752Y1407286I5501J0D01*
G03Y1407964I-213J339D01*
G02X1076173Y1412625I2922J4661D01*
G02X1078429Y1417068I5503J0D01*
G02X1078449Y1417284I3246J-192D01*
G02X1077198Y1419450I1250J2166D01*
G01Y1425450D01*
G02X1079700Y1427952I2502J0D01*
G01X1085700D01*
G02X1087424Y1427262I-1J-2502D01*
G03X1087976I276J290D01*
G02X1089700Y1427952I1725J-1812D01*
G01X1095700D01*
G02X1097424Y1427262I-1J-2502D01*
G03X1097976I276J290D01*
G02X1099700Y1427952I1725J-1812D01*
G01X1105700D01*
G02X1107608Y1427068I0J-2501D01*
G03X1108217I304J259D01*
G37*
G36*
G01X1101898Y1551525D02*
Y1557525D01*
G02X1104400Y1560026I2502J-1D01*
G01X1110400D01*
G02X1112902Y1557525I1J-2501D01*
G01Y1551525D01*
G02X1110400Y1549024I-2502J1D01*
G01X1104400D01*
G02X1101898Y1551525I-1J2501D01*
G37*
G54D32*
X994375Y1215625D03*
G54D33*
X870000Y1302500D03*
G54D34*
X875625Y1372500D03*
G54D35*
X1235000Y1388750D03*
%LPD*%
G75*
G36*
G01X1087424Y1417638D02*
G02X1087976I276J-290D01*
G03X1089282Y1416984I1724J1812D01*
G01X1089448Y1416955D01*
Y1408213D01*
G03X1087365Y1405120I3252J-4438D01*
G02X1086618Y1405042I-388J98D01*
G03X1084598Y1407286I-4942J-2418D01*
G02Y1407964I213J339D01*
G03X1087177Y1412625I-2922J4661D01*
G03X1085617Y1416463I-5501J0D01*
G03X1085810Y1416951I-2917J1436D01*
G03X1087424Y1417638I-110J2499D01*
G37*
G36*
G01X1097424D02*
G02X1097976I276J-290D01*
G03X1099282Y1416984I1724J1812D01*
G01X1099448Y1416955D01*
Y1413213D01*
G03X1097198Y1408775I3252J-4438D01*
G03X1097250Y1408023I5502J3D01*
G02X1096572Y1407684I-396J-55D01*
G03X1095952Y1408213I-3871J-3910D01*
G01Y1416955D01*
X1096118Y1416984D01*
G03X1097424Y1417638I-418J2466D01*
G37*
G36*
G01X1107608Y1417832D02*
G02X1108217I304J-259D01*
G03X1109221Y1417118I1907J1619D01*
G02X1109351Y1416454I-144J-373D01*
G03X1107624Y1412557I3774J-4004D01*
G02X1106918Y1412308I-400J8D01*
G03X1105952Y1413213I-4217J-3534D01*
G01Y1416955D01*
X1106118Y1416984D01*
G03X1107608Y1417832I-417J2466D01*
G37*
G36*
G01X1105623Y1404114D02*
G03X1108201Y1408668I-2923J4661D01*
G02X1108907Y1408917I400J-8D01*
G03X1110202Y1407789I4217J3534D01*
G02Y1407111I-213J-339D01*
G03X1107624Y1402557I2923J-4661D01*
G02X1106918Y1402308I-400J8D01*
G03X1105623Y1403436I-4217J-3534D01*
G02Y1404114I213J339D01*
G37*
G54D10*
X867400Y1200000D03*
G54D20*
X950000Y1320000D03*
Y1328400D03*
X967500Y1320000D03*
X959100D03*
G54D11*
X872500Y1235625D03*
Y1225625D03*
X870000Y1302500D03*
X867500Y1407525D03*
X871250Y1560625D03*
X904375Y1448125D03*
X900625Y1458125D03*
X898125Y1538125D03*
X909375Y1540625D03*
X925000Y1357500D03*
X922500Y1410625D03*
X913750Y1441250D03*
X935625Y1301875D03*
Y1321875D03*
Y1311875D03*
X936875Y1340000D03*
X935000Y1357500D03*
X941562Y1402188D03*
X932000Y1432375D03*
X940000Y1458125D03*
X929375Y1459375D03*
X938750Y1551250D03*
X955000Y1307500D03*
X952500Y1355000D03*
X953750Y1431875D03*
X956875Y1463750D03*
X970000Y1192500D03*
Y1350000D03*
X976250Y1398750D03*
X980000Y1192500D03*
X983675Y1255625D03*
X990000Y1350000D03*
X987500Y1369375D03*
X981225Y1424475D03*
Y1434475D03*
X987350Y1468775D03*
X987500Y1511875D03*
Y1555000D03*
X1004500Y1247050D03*
X1007500Y1277500D03*
X993750Y1435000D03*
X1003750D03*
X994700Y1530025D03*
X1017500Y1277500D03*
X1013750Y1435000D03*
X1023750D03*
X1035000Y1239375D03*
X1039375Y1300625D03*
X1030000Y1362500D03*
X1033750Y1435000D03*
X1030225Y1455300D03*
X1041875Y1555000D03*
X1057500Y1282500D03*
Y1417500D03*
X1043750Y1435000D03*
X1053750D03*
X1058400Y1462650D03*
X1065750Y1247050D03*
X1070000Y1282500D03*
Y1295000D03*
X1064375Y1326875D03*
X1073750Y1374375D03*
X1072500Y1385000D03*
X1063750Y1435000D03*
X1075550Y1501850D03*
X1062500Y1520000D03*
X1072500D03*
X1082500Y1295000D03*
X1081675Y1402625D03*
Y1412625D03*
X1085550Y1501850D03*
X1085000Y1520000D03*
X1102500Y1229375D03*
X1095000Y1254375D03*
X1101875Y1273750D03*
X1102700Y1398775D03*
X1092700Y1403775D03*
Y1393775D03*
X1102700Y1408775D03*
X1097600Y1473675D03*
X1107500Y1482500D03*
X1097600Y1500625D03*
X1107500Y1510000D03*
Y1520000D03*
X1095000D03*
X1092700Y1554525D03*
X1121250Y1245625D03*
X1111250Y1265625D03*
X1115625Y1281875D03*
X1125000Y1308750D03*
X1109850Y1307075D03*
X1115000Y1376250D03*
X1113125Y1402450D03*
Y1412450D03*
X1117500Y1460000D03*
X1111075Y1499400D03*
X1135000Y1275000D03*
X1140000Y1305625D03*
X1138750Y1379375D03*
X1132500Y1460000D03*
Y1487500D03*
X1152500Y1272500D03*
X1144375Y1292500D03*
X1162500Y1252500D03*
X1173750Y1276875D03*
X1165000Y1310000D03*
X1185000Y1255000D03*
X1183750Y1276875D03*
X1190000Y1310000D03*
X1193750Y1276875D03*
X1203750D03*
X1212500Y1252500D03*
X1215000Y1310000D03*
X1225000Y1270000D03*
X1237500Y1310000D03*
G54D30*
G01X872500Y1235625D02*
X878202D01*
G01X866798D02*
X872500D01*
G01D02*
Y1241327D01*
G01X870000Y1302500D02*
X875702D01*
G01X864298D02*
X870000D01*
G01D02*
Y1308202D01*
G01Y1296798D02*
Y1302500D01*
G01X886698Y1190900D02*
X892600D01*
G01X880150Y1244098D02*
Y1267500D01*
G01D02*
X898602D01*
G01X880150D02*
Y1290902D01*
G01X890750Y1525625D02*
X896452D01*
G01X890750D02*
Y1531327D01*
G01Y1519923D02*
Y1525625D01*
G01X905000Y1187000D02*
X910702D01*
G01X899298D02*
X905000D01*
G01D02*
Y1192702D01*
G01Y1181298D02*
Y1187000D01*
G01X892600Y1186448D02*
Y1190900D01*
G01D02*
X898502D01*
G01X916698Y1267500D02*
X925300D01*
G01X922500Y1476750D02*
Y1482752D01*
G01Y1470748D02*
Y1476750D01*
G01Y1507248D02*
Y1513250D01*
G01D02*
Y1519252D01*
G01X931250Y1218673D02*
Y1224375D01*
G01D02*
X936952D01*
G01X925548D02*
X931250D01*
G01D02*
Y1230077D01*
G01X939923Y1230625D02*
X945625D01*
G01X925300Y1267500D02*
X933902D01*
G01X935625Y1321875D02*
X941327D01*
G01X929923D02*
X935625D01*
G01D02*
Y1327577D01*
G01X939298Y1420625D02*
X945000D01*
G01X927500Y1476750D02*
Y1482752D01*
G01X932500Y1476750D02*
Y1482752D01*
G01X937500Y1476750D02*
Y1482752D01*
G01X927500Y1470748D02*
Y1476750D01*
G01X932500Y1470748D02*
Y1476750D01*
G01X937500Y1470748D02*
Y1476750D01*
G01X927500Y1507248D02*
Y1513250D01*
G01X937500Y1507248D02*
Y1513250D01*
G01X932500Y1507248D02*
Y1513250D01*
G01X927500D02*
Y1519252D01*
G01X937500Y1513250D02*
Y1519252D01*
G01X932500Y1513250D02*
Y1519252D01*
G01X945625Y1230625D02*
X951327D01*
G01X945625D02*
Y1236327D01*
G01Y1224923D02*
Y1230625D01*
G01X947500Y1264500D02*
X953202D01*
G01X941798D02*
X947500D01*
G01D02*
Y1270202D01*
G01Y1258798D02*
Y1264500D01*
G01X944798Y1328400D02*
X950000D01*
G01D02*
Y1333602D01*
G01Y1328400D02*
X955202D01*
G01X945000Y1414923D02*
Y1420625D01*
G01D02*
X950702D01*
G01X945000D02*
Y1426327D01*
G01X973440Y1305000D02*
X979134D01*
G01X980000Y1186798D02*
Y1192500D01*
G01D02*
X985702D01*
G01X980000D02*
Y1198202D01*
G01X979134Y1301117D02*
Y1305000D01*
G01D02*
X984828D01*
G01X980000Y1382500D02*
X985702D01*
G01X974298D02*
X980000D01*
G01D02*
Y1388202D01*
G01Y1376798D02*
Y1382500D01*
G01X990000Y1397500D02*
X995702D01*
G01X984298D02*
X990000D01*
G01D02*
Y1403202D01*
G01Y1391798D02*
Y1397500D01*
G01X981225Y1418773D02*
Y1424475D01*
G01D02*
X986927D01*
G01X975523D02*
X981225D01*
G01X1002298Y1512500D02*
X1009500D01*
G01X1017500Y1277500D02*
X1023202D01*
G01X1017500D02*
Y1283202D01*
G01Y1271798D02*
Y1277500D01*
G01X1015000Y1301798D02*
Y1307500D01*
G01D02*
X1020702D01*
G01X1009298D02*
X1015000D01*
G01D02*
Y1313202D01*
G01X1016500Y1385000D02*
X1021402D01*
G01X1011598D02*
X1016500D01*
G01X1009500Y1512500D02*
X1016702D01*
G01X1019298Y1555000D02*
X1025000D01*
G01X1038298Y1502500D02*
X1045500D01*
G01X1025000Y1549298D02*
Y1555000D01*
G01D02*
X1030702D01*
G01X1043750Y1429298D02*
Y1435000D01*
G01D02*
Y1440702D01*
G01X1045500Y1502500D02*
X1052702D01*
G01X1072500Y1520000D02*
X1078202D01*
G01X1072500D02*
Y1525702D01*
G01X1086998Y1393775D02*
X1092700D01*
G01X1085550Y1496148D02*
Y1501850D01*
G01D02*
X1091252D01*
G01X1092700Y1393775D02*
X1098402D01*
G01X1092700Y1388073D02*
Y1393775D01*
G01X1102700Y1398775D02*
X1108402D01*
G01X1102700Y1393073D02*
Y1398775D01*
G01X1095000Y1514298D02*
Y1520000D01*
G01X1101798D02*
X1107500D01*
G01X1095000D02*
X1100702D01*
G01X1095000D02*
Y1525702D01*
G01X1101698Y1554525D02*
X1107400D01*
G01X1107423Y1402450D02*
X1113125D01*
G01Y1396748D02*
Y1402450D01*
G01X1107500Y1520000D02*
X1113202D01*
G01X1107500D02*
Y1525702D01*
G01X1107400Y1554525D02*
X1113102D01*
G01X1135623Y1207900D02*
X1149375D01*
G01X1138423Y1549600D02*
X1144375D01*
G01X1149375Y1200648D02*
Y1207900D01*
G01X1144375Y1549600D02*
X1150327D01*
G01X1226250Y1200648D02*
Y1207900D01*
G01D02*
X1240002D01*
G54D12*
X880150Y1267500D03*
G54D21*
X964075Y1408775D03*
Y1420975D03*
G54D31*
G01X872500Y1225625D02*
X876875Y1230000D01*
X887275D01*
G01X871250Y1560625D02*
X866250Y1555625D01*
Y1414025D01*
X867500Y1412775D01*
Y1407525D01*
G01X942500Y1513250D02*
Y1532500D01*
X919375Y1555625D01*
X891875D01*
X873125Y1536875D01*
Y1436875D01*
X885000Y1425000D01*
Y1397500D01*
X925000Y1357500D01*
G01X871250Y1560625D02*
X874963Y1564338D01*
X1006838D01*
X1007500Y1565000D01*
G01X917500Y1513250D02*
Y1545250D01*
X914000Y1548750D01*
X894999D01*
X880625Y1534376D01*
Y1439375D01*
X892500Y1427500D01*
Y1400000D01*
X935000Y1357500D01*
G01X892600Y1200000D02*
X905000D01*
G01X916600D02*
X905000D01*
G01X892600Y1209100D02*
X898050D01*
X900200Y1211250D01*
X939250D01*
X945625Y1217625D01*
G01X925300Y1257500D02*
X909375D01*
X906250Y1260625D01*
Y1295625D01*
X912500Y1301875D01*
X935625D01*
G01X904375Y1448125D02*
X900000Y1443750D01*
Y1407500D01*
X952500Y1355000D01*
G01X913750Y1441250D02*
X911250D01*
X906323Y1436323D01*
Y1413677D01*
X970000Y1350000D01*
G01X907500Y1513250D02*
Y1521875D01*
X903750Y1525625D01*
G01D02*
Y1532500D01*
X898125Y1538125D01*
G01X916475Y1230000D02*
X923875D01*
X931250Y1237375D01*
G01X925300Y1257500D02*
Y1243325D01*
X931250Y1237375D01*
G01X917500Y1476750D02*
Y1468125D01*
X920312Y1465313D01*
X923437D01*
X929375Y1459375D01*
G01X934500Y1200000D02*
X943125D01*
X1005625Y1262500D01*
X1021251D01*
X1055625Y1296874D01*
Y1318125D01*
X1064375Y1326875D01*
G01X934500Y1200000D02*
X928400D01*
G01X942000Y1192500D02*
X934500Y1200000D01*
G01X947500Y1277500D02*
X925300D01*
G01X935625Y1311875D02*
X945375D01*
X949750Y1307500D01*
X955000D01*
G01X932000Y1420625D02*
Y1400500D01*
X972500Y1360000D01*
X995000D01*
X1034500Y1320500D01*
G01X932000Y1420625D02*
Y1432375D01*
G01X940000Y1458125D02*
X942500Y1460625D01*
Y1476750D01*
G01X970000Y1192500D02*
X955000D01*
G01X970900Y1242900D02*
X945625Y1217625D01*
G01X959100Y1280000D02*
X950000D01*
X947500Y1277500D01*
G01X955000Y1307500D02*
X960250D01*
X962750Y1310000D01*
X979134D01*
G01X952500Y1476750D02*
Y1468125D01*
X956875Y1463750D01*
G01X970900Y1242900D02*
X970950D01*
X983675Y1255625D01*
G01X970900Y1280000D02*
Y1242900D01*
G01X977500Y1290000D02*
X974900D01*
X970900Y1286000D01*
Y1280000D01*
G01X964075Y1408775D02*
X981025D01*
G01X982000Y1277500D02*
Y1285500D01*
X977500Y1290000D01*
G01D02*
X1028750D01*
X1039375Y1300625D01*
G01X987500Y1369375D02*
X991875Y1365000D01*
X1002500D01*
X1030000Y1337500D01*
G01X976250Y1398750D02*
Y1404000D01*
X981025Y1408775D01*
G01D02*
X991725D01*
X1003000Y1397500D01*
G01X987500Y1511875D02*
X991875Y1507500D01*
X1009500D01*
G01X987500Y1555000D02*
X991250Y1558750D01*
X1001875D01*
X1005625Y1555000D01*
X1012000D01*
G01X1035000Y1239375D02*
X1012175D01*
X1004500Y1247050D01*
G01X1007500Y1277500D02*
X995000D01*
G01X1015000Y1320500D02*
X1006608D01*
X1006108Y1320000D01*
X1000866D01*
G01X993000Y1382500D02*
X1000500Y1390000D01*
X1016500D01*
G01Y1395000D02*
X1010750D01*
X1008250Y1397500D01*
X1003000D01*
G01X1007500Y1565000D02*
X1012000Y1560500D01*
Y1555000D01*
G01X1034500Y1320500D02*
X1015000D01*
G01X1051600Y1565000D02*
X1007500D01*
G01X1065750Y1247050D02*
X1042675D01*
X1035000Y1239375D01*
G01X1039375Y1300625D02*
Y1315625D01*
X1034500Y1320500D01*
G01X1030000Y1337500D02*
X1053750D01*
X1064375Y1326875D01*
G01X1030000Y1337500D02*
Y1362500D01*
G01X1095000Y1254375D02*
X1075625D01*
X1057500Y1272500D01*
Y1282500D01*
G01X1053750Y1435000D02*
Y1421250D01*
X1057500Y1417500D01*
G01X1051600Y1565000D02*
X1120200D01*
X1125475Y1559725D01*
Y1559600D01*
G01X1068225Y1554525D02*
X1062075D01*
X1051600Y1565000D01*
G01X1111250Y1265625D02*
X1086875D01*
X1070000Y1282500D01*
G01X1115625Y1281875D02*
X1083125D01*
X1070000Y1295000D01*
G01X1064375Y1326875D02*
X1068625D01*
X1077500Y1335750D01*
G01X1082500Y1295000D02*
X1129375D01*
X1140000Y1305625D01*
G01X1100000Y1335750D02*
X1088750D01*
G01D02*
X1077500D01*
G01X1095000Y1254375D02*
X1128750Y1220625D01*
Y1200625D01*
X1141875Y1187500D01*
X1235000D01*
X1247500Y1200000D01*
Y1245523D01*
X1238648Y1254375D01*
X1226250D01*
G01X1111250Y1265625D02*
X1125625D01*
X1135000Y1275000D01*
G01X1115625Y1281875D02*
X1143125D01*
X1152500Y1272500D01*
G01X1146600Y1369550D02*
X1136800D01*
X1109850Y1342600D01*
Y1307075D01*
G01X1125475Y1559600D02*
X1120400Y1554525D01*
G01X1140000Y1305625D02*
X1150625Y1316250D01*
G01X1144375Y1559600D02*
X1125475D01*
G01X1149375Y1207900D02*
X1175000D01*
G01X1149375Y1237100D02*
Y1252500D01*
X1173750Y1276875D01*
G01X1150625Y1316250D02*
Y1300000D01*
X1173750Y1276875D01*
G01X1150625Y1329150D02*
Y1316250D01*
G01X1172475Y1369550D02*
X1146600D01*
G01X1150625Y1358350D02*
Y1365525D01*
X1146600Y1369550D01*
G01X1162500Y1252500D02*
X1170000D01*
X1175000Y1257500D01*
G01X1176875Y1358350D02*
Y1365150D01*
X1172475Y1369550D01*
G01X1175000Y1207900D02*
Y1197500D01*
G01X1200625Y1207900D02*
X1175000D01*
G01Y1237100D02*
Y1257500D01*
G01X1185000Y1255000D02*
X1190625D01*
X1200625Y1265000D01*
G01X1175000Y1257500D02*
Y1268125D01*
X1183750Y1276875D01*
G01X1176875Y1329150D02*
Y1283750D01*
X1183750Y1276875D01*
G01X1198100Y1369550D02*
X1172475D01*
G01X1200625Y1207900D02*
Y1198125D01*
G01X1226250Y1207900D02*
X1200625D01*
G01Y1237100D02*
Y1265000D01*
G01D02*
Y1270000D01*
X1193750Y1276875D01*
G01X1202500Y1329150D02*
Y1285625D01*
X1193750Y1276875D01*
G01X1228125Y1329150D02*
Y1301250D01*
X1203750Y1276875D01*
G01X1226250Y1254375D02*
X1203750Y1276875D01*
G01X1228125Y1358350D02*
Y1365150D01*
X1223725Y1369550D01*
X1198100D01*
G01X1202500Y1358350D02*
Y1365150D01*
X1198100Y1369550D01*
G01X1226250Y1237100D02*
Y1254375D01*
G54D22*
X979134Y1305000D03*
Y1310000D03*
Y1315000D03*
Y1320000D03*
X1000866D03*
Y1315000D03*
Y1310000D03*
Y1305000D03*
G54D13*
X875625Y1372500D03*
X994375Y1215625D03*
X1235000Y1388750D03*
G54D14*
X892600Y1200000D03*
Y1190900D03*
Y1209100D03*
G54D23*
X1009500Y1467500D03*
Y1472500D03*
Y1477500D03*
Y1482500D03*
Y1487500D03*
Y1492500D03*
Y1497500D03*
Y1502500D03*
Y1507500D03*
Y1512500D03*
Y1517500D03*
Y1522500D03*
Y1527500D03*
Y1532500D03*
X1045500Y1467500D03*
Y1482500D03*
Y1477500D03*
Y1472500D03*
Y1497500D03*
Y1492500D03*
Y1487500D03*
Y1517500D03*
Y1512500D03*
Y1507500D03*
Y1502500D03*
Y1532500D03*
Y1527500D03*
Y1522500D03*
G54D24*
X1016500Y1380000D03*
Y1385000D03*
Y1390000D03*
Y1395000D03*
X1038500Y1385000D03*
Y1380000D03*
Y1395000D03*
Y1390000D03*
G54D15*
X887275Y1230000D03*
X916475D03*
G54D16*
X890750Y1525625D03*
X905000Y1187000D03*
Y1200000D03*
X903750Y1525625D03*
X942000Y1192500D03*
X931250Y1224375D03*
Y1237375D03*
X932000Y1420625D03*
X955000Y1192500D03*
X945625Y1217625D03*
Y1230625D03*
X947500Y1264500D03*
Y1277500D03*
X945000Y1420625D03*
X982000Y1277500D03*
X980000Y1382500D03*
X990000Y1397500D03*
X995000Y1277500D03*
X993000Y1382500D03*
X1003000Y1397500D03*
X1015000Y1307500D03*
Y1320500D03*
X1025000Y1555000D03*
X1012000D03*
X1077500Y1335750D03*
X1088750D03*
X1077500Y1348750D03*
X1088750D03*
X1082700Y1422450D03*
Y1435450D03*
X1100000Y1335750D03*
Y1348750D03*
X1102700Y1422450D03*
Y1435450D03*
X1092700Y1422450D03*
Y1435450D03*
X1107400Y1554525D03*
X1113125Y1422450D03*
Y1435450D03*
X1120400Y1554525D03*
G54D25*
X1068225D03*
X1080425D03*
G54D17*
X907500Y1476750D03*
Y1513250D03*
X912500Y1476750D03*
X917500D03*
X922500D03*
Y1513250D03*
X917500D03*
X912500D03*
X927500Y1476750D03*
X932500D03*
X937500D03*
Y1513250D03*
X932500D03*
X927500D03*
X942500Y1476750D03*
X947500D03*
X952500D03*
Y1513250D03*
X947500D03*
X942500D03*
G54D26*
X1149375Y1207900D03*
Y1237100D03*
X1150625Y1329150D03*
Y1358350D03*
X1175000Y1207900D03*
Y1237100D03*
X1176875Y1329150D03*
Y1358350D03*
X1200625Y1207900D03*
Y1237100D03*
X1202500Y1329150D03*
Y1358350D03*
X1226250Y1207900D03*
Y1237100D03*
X1228125Y1329150D03*
Y1358350D03*
G54D18*
X916600Y1200000D03*
X928400D03*
X970900Y1280000D03*
X959100D03*
G54D27*
X1144375Y1419600D03*
Y1429600D03*
Y1439600D03*
Y1449600D03*
Y1459600D03*
Y1469600D03*
Y1479600D03*
Y1489600D03*
Y1499600D03*
Y1509600D03*
Y1519600D03*
Y1529600D03*
Y1539600D03*
Y1549600D03*
Y1559600D03*
X1244375Y1419600D03*
Y1429600D03*
Y1449600D03*
Y1439600D03*
Y1469600D03*
Y1459600D03*
Y1479600D03*
Y1499600D03*
Y1489600D03*
Y1519600D03*
Y1509600D03*
Y1529600D03*
Y1549600D03*
Y1539600D03*
Y1559600D03*
G54D28*
G01X1021417Y1187500D02*
X1018283D01*
Y1193800D01*
X1021417D01*
G01X1020163Y1190755D02*
X1018283D01*
G01X1026620Y1190650D02*
X1028187D01*
Y1188760D01*
X1027717Y1188130D01*
X1027168Y1187710D01*
X1026385Y1187500D01*
X1025602Y1187710D01*
X1025053Y1188130D01*
X1024583Y1188760D01*
X1024270Y1189495D01*
X1024113Y1190335D01*
Y1191070D01*
X1024270Y1191700D01*
X1024583Y1192435D01*
X1025053Y1193065D01*
X1025523Y1193485D01*
X1026150Y1193800D01*
X1026698D01*
X1027325Y1193590D01*
X1027795Y1193170D01*
G01X1030883Y1187500D02*
Y1193800D01*
X1032842D01*
X1033468Y1193485D01*
X1033860Y1193065D01*
X1034017Y1192225D01*
X1033860Y1191385D01*
X1033390Y1190860D01*
X1032842Y1190545D01*
X1030883D01*
G01X1032842D02*
X1034017Y1187500D01*
G01X1043327Y1188760D02*
X1043797Y1188025D01*
X1044423Y1187605D01*
X1045128Y1187500D01*
X1045755Y1187605D01*
X1046382Y1188130D01*
X1046773Y1188760D01*
X1046852Y1189390D01*
X1046695Y1190125D01*
X1046147Y1190650D01*
X1045598Y1190860D01*
X1044893D01*
G01X1045598D02*
X1046068Y1191175D01*
X1046460Y1191700D01*
X1046617Y1192330D01*
X1046460Y1192960D01*
X1046068Y1193485D01*
X1045363Y1193800D01*
X1044658Y1193695D01*
X1043953Y1193275D01*
G01X1051350Y1187500D02*
Y1193800D01*
X1050410Y1192540D01*
G01Y1187500D02*
X1052290D01*
G01X1058590D02*
Y1193800D01*
X1055692Y1189285D01*
X1059608D01*
G01X1070250Y1193800D02*
Y1187500D01*
G01X1068448Y1193800D02*
X1072052D01*
G01X1075375Y1190335D02*
X1077882D01*
X1077647Y1191070D01*
X1077255Y1191490D01*
X1076707Y1191700D01*
X1076158Y1191595D01*
X1075688Y1191280D01*
X1075375Y1190545D01*
X1075218Y1189915D01*
Y1189285D01*
X1075375Y1188655D01*
X1075767Y1188025D01*
X1076237Y1187605D01*
X1076785Y1187500D01*
X1077333Y1187710D01*
X1077882Y1188340D01*
G01X1084260Y1187500D02*
Y1191700D01*
G01Y1190965D02*
X1083947Y1191385D01*
X1083477Y1191595D01*
X1082928Y1191700D01*
X1082380Y1191490D01*
X1081910Y1191070D01*
X1081597Y1190440D01*
X1081440Y1189600D01*
X1081597Y1188760D01*
X1081910Y1188130D01*
X1082380Y1187710D01*
X1082928Y1187500D01*
X1083477Y1187605D01*
X1083947Y1187920D01*
X1084260Y1188340D01*
G01X1086800Y1187500D02*
Y1191700D01*
G01Y1190545D02*
X1087035Y1191070D01*
X1087427Y1191490D01*
X1087975Y1191700D01*
X1088523Y1191490D01*
X1088915Y1191070D01*
X1089150Y1190545D01*
Y1187500D01*
G01Y1190545D02*
X1089385Y1191070D01*
X1089777Y1191490D01*
X1090325Y1191700D01*
X1090873Y1191490D01*
X1091265Y1191070D01*
X1091500Y1190440D01*
Y1187500D01*
G01X1101750D02*
Y1193800D01*
X1100810Y1192540D01*
G01Y1187500D02*
X1102690D01*
G01X1108050Y1193800D02*
X1107423Y1193590D01*
X1106953Y1193065D01*
X1106640Y1192435D01*
X1106405Y1191595D01*
X1106327Y1190650D01*
X1106405Y1189705D01*
X1106640Y1188865D01*
X1106953Y1188235D01*
X1107423Y1187710D01*
X1108050Y1187500D01*
X1108677Y1187710D01*
X1109147Y1188235D01*
X1109460Y1188865D01*
X1109695Y1189705D01*
X1109773Y1190650D01*
X1109695Y1191595D01*
X1109460Y1192435D01*
X1109147Y1193065D01*
X1108677Y1193590D01*
X1108050Y1193800D01*
G01X1112862Y1190125D02*
X1113410Y1190860D01*
X1113880Y1191280D01*
X1114507Y1191490D01*
X1115055Y1191280D01*
X1115447Y1190860D01*
X1115760Y1190230D01*
X1115838Y1189495D01*
X1115760Y1188865D01*
X1115447Y1188235D01*
X1114977Y1187710D01*
X1114428Y1187500D01*
X1113802Y1187710D01*
X1113253Y1188340D01*
X1112940Y1189285D01*
X1112862Y1190335D01*
X1113018Y1191700D01*
X1113253Y1192435D01*
X1113645Y1193170D01*
X1114193Y1193695D01*
X1114742Y1193800D01*
X1115290Y1193590D01*
X1115682Y1193065D01*
G54D19*
X925300Y1267500D03*
Y1257500D03*
Y1277500D03*
G54D29*
G01X907500Y1476750D02*
Y1463125D01*
X925625Y1445000D01*
X967500D01*
X977500Y1455000D01*
Y1475000D01*
X980000Y1477500D01*
X1009500D01*
G01X912500Y1476750D02*
Y1463750D01*
X926250Y1450000D01*
X965000D01*
X972500Y1457500D01*
Y1480000D01*
X975000Y1482500D01*
X1009500D01*
G01X912500Y1513250D02*
Y1537500D01*
X909375Y1540625D01*
G01X936875Y1340000D02*
X951875D01*
X967500Y1324375D01*
Y1320000D01*
G01X938750Y1551250D02*
X942500Y1555000D01*
X970000D01*
X980000Y1545000D01*
Y1505000D01*
X982500Y1502500D01*
X1009500D01*
G01X959100Y1320000D02*
X950000D01*
G01X947500Y1476750D02*
Y1458125D01*
X950625Y1455000D01*
X962500D01*
X967500Y1460000D01*
Y1482500D01*
X972500Y1487500D01*
X1009500D01*
G01X947500Y1513250D02*
Y1546875D01*
X950625Y1550000D01*
X967500D01*
X975000Y1542500D01*
Y1500000D01*
X977500Y1497500D01*
X1009500D01*
G01X952500Y1513250D02*
Y1543500D01*
X954000Y1545000D01*
X966000D01*
X970000Y1541000D01*
Y1497500D01*
X975000Y1492500D01*
X1009500D01*
G01X979134Y1315000D02*
X964100D01*
X959100Y1320000D01*
G01X979134D02*
X972500D01*
G01D02*
X967500D01*
G01X990000Y1350000D02*
X980000Y1340000D01*
Y1327500D01*
X972500Y1320000D01*
G01X987350Y1456525D02*
X964075Y1433250D01*
Y1420975D01*
G01X987350Y1456525D02*
Y1447950D01*
X981225Y1441825D01*
Y1434475D01*
G01X987350Y1468775D02*
Y1456525D01*
G01X1144375Y1509600D02*
X1135000Y1518975D01*
Y1537500D01*
X1127500Y1545000D01*
X987500D01*
X985000Y1542500D01*
Y1522500D01*
X990000Y1517500D01*
X1009500D01*
G01X1144375Y1499600D02*
X1130000Y1513975D01*
Y1535000D01*
X1125000Y1540000D01*
X990624D01*
X987500Y1536876D01*
Y1526250D01*
X991250Y1522500D01*
X1009500D01*
G01X1023750Y1435000D02*
Y1443750D01*
X1017500Y1450000D01*
X1002500D01*
X997500Y1455000D01*
Y1471000D01*
X999000Y1472500D01*
X1009500D01*
G01X1033750Y1435000D02*
Y1439250D01*
X1018000Y1455000D01*
X1007499D01*
X1002500Y1459999D01*
Y1466250D01*
X1003750Y1467500D01*
X1009500D01*
G01Y1532500D02*
X997175D01*
X994700Y1530025D01*
G01X1038500Y1385000D02*
X1072500D01*
G01X1073750Y1374375D02*
X1066375D01*
X1060750Y1380000D01*
X1038500D01*
G01X1063750Y1452650D02*
X1060900Y1455500D01*
X1041500D01*
X1040000Y1457000D01*
Y1458500D01*
X1041500Y1460000D01*
X1047750D01*
X1052500Y1464750D01*
Y1466250D01*
X1051250Y1467500D01*
X1045500D01*
G01X1092700Y1435450D02*
Y1450400D01*
X1060600Y1482500D01*
X1045500D01*
G01Y1477500D02*
X1057025D01*
X1082700Y1451825D01*
Y1435450D01*
G01X1058400Y1462650D02*
Y1465350D01*
X1051250Y1472500D01*
X1045500D01*
G01Y1497500D02*
X1060300D01*
X1113125Y1444675D01*
Y1435450D01*
G01X1102700D02*
Y1448975D01*
X1059175Y1492500D01*
X1045500D01*
G01Y1507500D02*
X1055200D01*
X1060850Y1501850D01*
X1063300D01*
G01X1107500Y1510000D02*
X1057500D01*
X1055000Y1512500D01*
X1045500D01*
G01Y1517500D02*
X1055000D01*
X1060000Y1512500D01*
X1083500D01*
X1085000Y1514000D01*
Y1520000D01*
G01X1045500Y1522500D02*
X1055750D01*
X1058250Y1520000D01*
X1062500D01*
G01X1120000Y1495000D02*
Y1527500D01*
X1117500Y1530000D01*
X1057500D01*
X1055000Y1527500D01*
X1045500D01*
G01Y1532500D02*
X1052500D01*
X1055000Y1535000D01*
X1120000D01*
X1125000Y1530000D01*
Y1495000D01*
G01X1077500Y1348750D02*
Y1355624D01*
X1082500Y1360624D01*
Y1387500D01*
X1072500Y1397500D01*
Y1443900D01*
X1063750Y1452650D01*
G01D02*
Y1435000D01*
G01X1111075Y1499400D02*
X1103725Y1492050D01*
X1073100D01*
X1063300Y1501850D01*
G01D02*
X1075550D01*
G01X1088750Y1348750D02*
Y1354374D01*
X1101876Y1367500D01*
X1117500D01*
X1122500Y1372500D01*
Y1442500D01*
X1110000Y1455000D01*
Y1467500D01*
X1120000Y1477500D01*
G01X1082700Y1422450D02*
Y1417900D01*
X1081675Y1416875D01*
Y1412625D01*
G01X1080425Y1554525D02*
X1092700D01*
G01X1128750Y1435625D02*
Y1373258D01*
X1118617Y1363125D01*
X1106250D01*
X1100000Y1356875D01*
Y1348750D01*
G01X1092700Y1422450D02*
Y1403775D01*
G01X1102700Y1422450D02*
Y1408775D01*
G01X1113125Y1422450D02*
Y1412450D01*
G01X1117500Y1460000D02*
Y1465000D01*
X1120000Y1467500D01*
Y1477500D01*
G01X1107500Y1482500D02*
X1120000Y1495000D01*
G01Y1477500D02*
Y1495000D01*
G01X1144375Y1429600D02*
X1134775D01*
X1128750Y1435625D01*
G01X1125000Y1495000D02*
Y1450000D01*
X1128750Y1446250D01*
Y1435625D01*
G01X1144375Y1459600D02*
X1138626D01*
X1138226Y1460000D01*
X1132500D01*
G01Y1487500D02*
X1125000Y1495000D01*
G01X1238475Y1428350D02*
Y1412425D01*
X1245825Y1405075D01*
G01X1244375Y1429600D02*
X1239725D01*
X1238475Y1428350D01*
M02*
