G04 ================== begin FILE IDENTIFICATION RECORD ==================*
G04 Layout Name:  autohood_teamschematic_v2FUCKUFUCKERT.brd*
G04 Film Name:    TOP*
G04 File Format:  Gerber RS274X*
G04 File Origin:  Cadence Allegro 17.4-S024*
G04 Origin Date:  Fri Mar  4 16:44:14 2022*
G04 *
G04 Layer:  ETCH/TOP*
G04 Layer:  PIN/TOP*
G04 Layer:  VIA CLASS/TOP*
G04 *
G04 Offset:    (0.00 0.00)*
G04 Mirror:    No*
G04 Mode:      Positive*
G04 Rotation:  0*
G04 FullContactRelief:  No*
G04 UndefLineWidth:     0.00*
G04 ================== end FILE IDENTIFICATION RECORD ====================*
%FSLAX25Y25*MOIN*%
%IR0*IPPOS*OFA0.00000B0.00000*MIA0B0*SFA1.00000B1.00000*%
%ADD20R,.118X.04*%
%ADD14R,.091X.221*%
%ADD21R,.108X.036*%
%ADD24C,.05*%
%ADD10R,.064X.125*%
%ADD11C,.06*%
%ADD28C,.065*%
%ADD22R,.05X.05*%
%ADD15R,.06X.06*%
%ADD16C,.059*%
%ADD12R,.315X.414*%
%ADD26R,.09X.022*%
%ADD18R,.63X.244*%
%ADD23R,.03X.048*%
%ADD17R,.023X.083*%
%ADD27R,.044X.018*%
%ADD13R,.064X.035*%
%ADD19R,.039X.075*%
%ADD25R,.05984X.02362*%
%ADD29C,.015*%
%ADD30C,.025*%
%ADD31C,.035*%
%ADD33C,.11004*%
%ADD32R,.25004X.25004*%
G75*
%LPD*%
G75*
G36*
G01X861250Y1570000D02*
X1251250D01*
Y1180000D01*
X861250D01*
Y1570000D01*
G37*
%LPC*%
G75*
G36*
G01X949498Y1432000D02*
Y1438000D01*
G02X952000Y1440502I2502J0D01*
G01X958000D01*
G02X960502Y1438000I0J-2502D01*
G01Y1432000D01*
G02X958000Y1429498I-2502J0D01*
G01X952000D01*
G02X949498Y1432000I0J2502D01*
G37*
G36*
G01X974498Y1379500D02*
Y1385500D01*
G02X977000Y1388002I2502J0D01*
G01X983000D01*
G02X985502Y1385500I0J-2502D01*
G01Y1379500D01*
G02X983000Y1376998I-2502J0D01*
G01X977000D01*
G02X974498Y1379500I0J2502D01*
G37*
G36*
G01X1009498Y1304500D02*
Y1310500D01*
G02X1012000Y1313002I2502J0D01*
G01X1018000D01*
G02X1020502Y1310500I0J-2502D01*
G01Y1304500D01*
G02X1018000Y1301998I-2502J0D01*
G01X1012000D01*
G02X1009498Y1304500I0J2502D01*
G37*
G36*
G01X884498Y1310000D02*
Y1316000D01*
G02X887000Y1318502I2502J0D01*
G01X893000D01*
G02X895502Y1316000I0J-2502D01*
G01Y1310000D01*
G02X893000Y1307498I-2502J0D01*
G01X887000D01*
G02X884498Y1310000I0J2502D01*
G37*
G36*
G01X941998Y1261500D02*
Y1267500D01*
G02X944500Y1270002I2502J0D01*
G01X950500D01*
G02X953002Y1267500I0J-2502D01*
G01Y1261500D01*
G02X950500Y1258998I-2502J0D01*
G01X944500D01*
G02X941998Y1261500I0J2502D01*
G37*
G36*
G01X916898Y1265500D02*
Y1269500D01*
G02X919400Y1272002I2502J0D01*
G01X931200D01*
G02X933702Y1269500I0J-2502D01*
G01Y1265500D01*
G02X931200Y1262998I-2502J0D01*
G01X919400D01*
G02X916898Y1265500I0J2502D01*
G37*
G36*
G01X861898Y1246800D02*
Y1288200D01*
G02X864400Y1290702I2502J0D01*
G01X895900D01*
G02X898402Y1288200I0J-2502D01*
G01Y1246800D01*
G02X895900Y1244298I-2502J0D01*
G01X864400D01*
G02X861898Y1246800I0J2502D01*
G37*
G36*
G01X924498Y1224500D02*
Y1230500D01*
G02X927000Y1233002I2502J0D01*
G01X933000D01*
G02X935502Y1230500I0J-2502D01*
G01Y1224500D01*
G02X933000Y1221998I-2502J0D01*
G01X927000D01*
G02X924498Y1224500I0J2502D01*
G37*
G36*
G01X886898Y1189150D02*
Y1192650D01*
G02X889400Y1195152I2502J0D01*
G01X895800D01*
G02X898302Y1192650I0J-2502D01*
G01Y1189150D01*
G02X895800Y1186648I-2502J0D01*
G01X889400D01*
G02X886898Y1189150I0J2502D01*
G37*
G36*
G01X861698Y1193750D02*
Y1206250D01*
G02X864200Y1208752I2502J0D01*
G01X870600D01*
G02X873102Y1206250I0J-2502D01*
G01Y1193750D01*
G02X870600Y1191248I-2502J0D01*
G01X864200D01*
G02X861698Y1193750I0J2502D01*
G37*
G36*
G01X899498Y1184000D02*
Y1190000D01*
G02X902000Y1192502I2502J0D01*
G01X908000D01*
G02X910502Y1190000I0J-2502D01*
G01Y1184000D01*
G02X908000Y1181498I-2502J0D01*
G01X902000D01*
G02X899498Y1184000I0J2502D01*
G37*
G36*
G01X960166Y1196752D02*
X966508D01*
G02X970000Y1198002I3492J-4253D01*
G02X974661Y1195423I0J-5501D01*
G03X975339I339J213D01*
G02X980000Y1198002I4661J-2922D01*
G02Y1186998I0J-5502D01*
G02X975339Y1189577I0J5501D01*
G03X974661I-339J-213D01*
G02X970000Y1186998I-4661J2922D01*
G02X966508Y1188248I0J5503D01*
G01X960166D01*
G02X958000Y1186998I-2166J1252D01*
G01X952000D01*
G02X949498Y1189500I0J2502D01*
G01Y1195500D01*
G02X952000Y1198002I2502J0D01*
G01X958000D01*
G02X960166Y1196752I0J-2502D01*
G37*
G36*
G01X1000166Y1281752D02*
X1004008D01*
G02X1007500Y1283002I3492J-4253D01*
G02X1012161Y1280423I0J-5501D01*
G03X1012839I339J213D01*
G02X1017500Y1283002I4661J-2922D01*
G02Y1271998I0J-5502D01*
G02X1012839Y1274577I0J5501D01*
G03X1012161I-339J-213D01*
G02X1007500Y1271998I-4661J2922D01*
G02X1004008Y1273248I0J5503D01*
G01X1000166D01*
G02X998000Y1271998I-2166J1252D01*
G01X992000D01*
G02X989498Y1274500I0J2502D01*
G01Y1280500D01*
G02X992000Y1283002I2502J0D01*
G01X998000D01*
G02X1000166Y1281752I0J-2502D01*
G37*
G36*
G01X963098Y1389101D02*
G03X962685Y1389501I-400J0D01*
G02X962500Y1389498I-182J5499D01*
G02X968002Y1395000I0J5502D01*
G02X967952Y1394258I-5502J-2D01*
G01X967938Y1394160D01*
X968649Y1393449D01*
G02X969602Y1391150I-2299J-2300D01*
G01Y1388386D01*
G02X970352Y1386600I-1752J-1786D01*
G01Y1381800D01*
G02X967850Y1379298I-2502J0D01*
G01X964850D01*
G02X962348Y1381800I0J2502D01*
G01Y1386600D01*
G02X963043Y1388330I2501J0D01*
G01X963098Y1388388D01*
Y1389101D01*
G37*
G36*
G01X1241649Y1554675D02*
G03Y1555325I-233J325D01*
G02X1239248Y1560000I3351J4675D01*
G02X1250752I5752J0D01*
G02X1248351Y1555325I-5752J0D01*
G03Y1554675I233J-325D01*
G02Y1545325I-3351J-4675D01*
G03Y1544675I233J-325D01*
G02Y1535325I-3351J-4675D01*
G03Y1534675I233J-325D01*
G02Y1525325I-3351J-4675D01*
G03Y1524675I233J-325D01*
G02Y1515325I-3351J-4675D01*
G03Y1514675I233J-325D01*
G02Y1505325I-3351J-4675D01*
G03Y1504675I233J-325D01*
G02Y1495325I-3351J-4675D01*
G03Y1494675I233J-325D01*
G02Y1485325I-3351J-4675D01*
G03Y1484675I233J-325D01*
G02Y1475325I-3351J-4675D01*
G03Y1474675I233J-325D01*
G02Y1465325I-3351J-4675D01*
G03Y1464675I233J-325D01*
G02Y1455325I-3351J-4675D01*
G03Y1454675I233J-325D01*
G02Y1445325I-3351J-4675D01*
G03Y1444675I233J-325D01*
G02Y1435325I-3351J-4675D01*
G03Y1434675I233J-325D01*
G02Y1425325I-3351J-4675D01*
G03Y1424675I233J-325D01*
G02X1250752Y1420000I-3351J-4675D01*
G02X1239248I-5752J0D01*
G02X1241649Y1424675I5752J0D01*
G03Y1425325I-233J325D01*
G02Y1434675I3351J4675D01*
G03Y1435325I-233J325D01*
G02Y1444675I3351J4675D01*
G03Y1445325I-233J325D01*
G02Y1454675I3351J4675D01*
G03Y1455325I-233J325D01*
G02Y1464675I3351J4675D01*
G03Y1465325I-233J325D01*
G02Y1474675I3351J4675D01*
G03Y1475325I-233J325D01*
G02Y1484675I3351J4675D01*
G03Y1485325I-233J325D01*
G02Y1494675I3351J4675D01*
G03Y1495325I-233J325D01*
G02Y1504675I3351J4675D01*
G03Y1505325I-233J325D01*
G02Y1514675I3351J4675D01*
G03Y1515325I-233J325D01*
G02Y1524675I3351J4675D01*
G03Y1525325I-233J325D01*
G02Y1534675I3351J4675D01*
G03Y1535325I-233J325D01*
G02Y1544675I3351J4675D01*
G03Y1545325I-233J325D01*
G02Y1554675I3351J4675D01*
G37*
G36*
G01X1237500Y1402500D02*
X1155625D01*
Y1563125D01*
X1237500D01*
Y1402500D01*
G37*
G36*
G01X886994Y1568006D02*
G02X890000Y1569252I3007J-3006D01*
G01X1118000D01*
G02X1121006Y1568006I-1J-4252D01*
G01X1128000Y1561013D01*
X1129994Y1563006D01*
G02X1133000Y1564252I3007J-3006D01*
G01X1141126D01*
G02X1145000Y1565752I3874J-4253D01*
G02X1150752Y1560000I0J-5752D01*
G02X1148351Y1555325I-5752J0D01*
G03Y1554675I233J-325D01*
G02Y1545325I-3351J-4675D01*
G03Y1544675I233J-325D01*
G02Y1535325I-3351J-4675D01*
G03Y1534675I233J-325D01*
G02Y1525325I-3351J-4675D01*
G03Y1524675I233J-325D01*
G02Y1515325I-3351J-4675D01*
G03Y1514675I233J-325D01*
G02Y1505325I-3351J-4675D01*
G03Y1504675I233J-325D01*
G02Y1495325I-3351J-4675D01*
G03Y1494675I233J-325D01*
G02Y1485325I-3351J-4675D01*
G03Y1484675I233J-325D01*
G02Y1475325I-3351J-4675D01*
G03Y1474675I233J-325D01*
G02Y1465325I-3351J-4675D01*
G03Y1464675I233J-325D01*
G02Y1455325I-3351J-4675D01*
G03Y1454675I233J-325D01*
G02Y1445325I-3351J-4675D01*
G03Y1444675I233J-325D01*
G02Y1435325I-3351J-4675D01*
G03Y1434675I233J-325D01*
G02Y1425325I-3351J-4675D01*
G03Y1424675I233J-325D01*
G02X1150752Y1420000I-3351J-4675D01*
G02X1139248I-5752J0D01*
G02X1141649Y1424675I5752J0D01*
G03Y1425325I-233J325D01*
G02X1139248Y1430000I3351J4675D01*
G02X1139328Y1430955I5752J-1D01*
G01X1139345Y1431057D01*
X1132684Y1437717D01*
G03X1132002Y1437435I-282J-283D01*
G01Y1373258D01*
G02X1131049Y1370959I-3252J1D01*
G01X1130752Y1370661D01*
Y1367995D01*
X1130918Y1367966D01*
G02X1133002Y1365500I-417J-2466D01*
G01Y1359500D01*
G02X1130500Y1356998I-2502J0D01*
G01X1124500D01*
G02X1122776Y1357688I1J2502D01*
G03X1122224I-276J-290D01*
G02X1120500Y1356998I-1725J1812D01*
G01X1114500D01*
G02X1112776Y1357688I1J2502D01*
G03X1112224I-276J-290D01*
G02X1110500Y1356998I-1725J1812D01*
G01X1104500D01*
G02X1101998Y1359500I0J2502D01*
G01Y1363403D01*
X1078441Y1386960D01*
G03X1077775Y1386564I-283J-283D01*
G02X1078002Y1385000I-5274J-1564D01*
G02X1073125Y1379534I-5502J0D01*
G03X1072786Y1379025I45J-398D01*
G02X1073002Y1377500I-5286J-1526D01*
G02X1067500Y1371998I-5502J0D01*
G02X1063057Y1374254I0J5503D01*
G02X1060951Y1375201I194J3246D01*
G01X1059403Y1376748D01*
X1041554D01*
X1041522Y1376737D01*
G02X1040700Y1376598I-822J2363D01*
G01X1036300D01*
G02X1033798Y1379100I0J2502D01*
G01Y1380900D01*
G02X1034377Y1382500I2502J-1D01*
G02X1033798Y1384100I1923J1601D01*
G01Y1385900D01*
G02X1034377Y1387500I2502J-1D01*
G02X1033798Y1389100I1923J1601D01*
G01Y1390900D01*
G02X1034377Y1392500I2502J-1D01*
G02X1033798Y1394100I1923J1601D01*
G01Y1395900D01*
G02X1036300Y1398402I2502J0D01*
G01X1040700D01*
G02X1041522Y1398263I0J-2502D01*
G01X1041554Y1398252D01*
X1043653D01*
X1046748Y1401347D01*
Y1408653D01*
X1041153Y1414248D01*
X993230D01*
G03X992947Y1413566I0J-400D01*
G01X1003511Y1403002D01*
X1006000D01*
G02X1008166Y1401751I0J-2501D01*
G02X1008250Y1401752I93J-4251D01*
G02X1011256Y1400506I-1J-4252D01*
G01X1012511Y1399252D01*
X1016500D01*
G02X1019091Y1398371I0J-4252D01*
G02X1021202Y1395900I-391J-2471D01*
G01Y1394100D01*
G02X1020623Y1392500I-2502J1D01*
G02X1021202Y1390900I-1923J-1601D01*
G01Y1389100D01*
G02X1020623Y1387500I-2502J1D01*
G02X1021202Y1385900I-1923J-1601D01*
G01Y1384100D01*
G02X1020623Y1382500I-2502J1D01*
G02X1021202Y1380900I-1923J-1601D01*
G01Y1379100D01*
G02X1018700Y1376598I-2502J0D01*
G01X1014300D01*
G02X1011798Y1379100I0J2502D01*
G01Y1380900D01*
G02X1012377Y1382500I2502J-1D01*
G02X1011798Y1384100I1923J1601D01*
G01Y1385748D01*
X1002261D01*
X998502Y1381989D01*
Y1379500D01*
G02X996000Y1376998I-2502J0D01*
G01X990000D01*
G02X987498Y1379500I0J2502D01*
G01Y1385500D01*
G02X990000Y1388002I2502J0D01*
G01X992489D01*
X997494Y1393006D01*
G02X997810Y1393292I3007J-3005D01*
G02X997498Y1394500I2190J1210D01*
G01Y1396989D01*
X996184Y1398303D01*
G03X995502Y1398020I-282J-283D01*
G01Y1394500D01*
G02X993000Y1391998I-2502J0D01*
G01X987000D01*
G02X984498Y1394500I0J2502D01*
G01Y1400500D01*
G02X987000Y1403002I2502J0D01*
G01X990520D01*
G03X990803Y1403684I0J400D01*
G01X985614Y1408874D01*
X981761D01*
X980502Y1407614D01*
Y1402242D01*
G02X981752Y1398750I-4253J-3492D01*
G02X970748I-5502J0D01*
G02X971998Y1402242I5503J0D01*
G01Y1409375D01*
G02X973244Y1412381I4252J-1D01*
G01X976994Y1416131D01*
G02X980000Y1417376I3006J-3006D01*
G01X982060D01*
G03X982342Y1418059I-1J400D01*
G01X980201Y1420201D01*
G02X979248Y1422500I2299J2300D01*
G01Y1447500D01*
G02X980201Y1449799I3252J-1D01*
G01X984248Y1453847D01*
Y1463062D01*
G02X981998Y1467500I3252J4438D01*
G02X993002I5502J0D01*
G02X990752Y1463062I-5502J0D01*
G01Y1452500D01*
G02X989799Y1450201I-3252J1D01*
G01X985752Y1446153D01*
Y1423847D01*
X988847Y1420752D01*
X1042500D01*
G02X1044799Y1419799I-1J-3252D01*
G01X1052299Y1412299D01*
G02X1053252Y1410000I-2299J-2300D01*
G01Y1400000D01*
G02X1052299Y1397701I-3252J1D01*
G01X1047299Y1392701D01*
G02X1045000Y1391748I-2300J2299D01*
G01X1043567D01*
G03X1043171Y1391287I-1J-400D01*
G02X1043202Y1390900I-2471J-393D01*
G01Y1389100D01*
G02X1043171Y1388713I-2502J6D01*
G03X1043567Y1388252I395J-61D01*
G01X1068062D01*
G02X1072500Y1390502I4438J-3252D01*
G02X1074064Y1390275I0J-5501D01*
G03X1074460Y1390941I113J383D01*
G01X1070201Y1395201D01*
G02X1069248Y1397500I2299J2300D01*
G01Y1432027D01*
G03X1068503Y1432229I-400J0D01*
G02X1063750Y1429498I-4753J2771D01*
G02X1059089Y1432077I0J5501D01*
G03X1058411I-339J-213D01*
G02X1058002Y1431508I-4663J2920D01*
G01Y1423011D01*
X1058037Y1422976D01*
G02X1063002Y1417500I-537J-5476D01*
G02X1057500Y1411998I-5502J0D01*
G02X1052031Y1416894I0J5503D01*
G01X1052024Y1416964D01*
X1050744Y1418244D01*
G02X1049498Y1421250I3006J3007D01*
G01Y1431508D01*
G02X1049089Y1432077I4254J3489D01*
G03X1048411I-339J-213D01*
G02X1039089I-4661J2922D01*
G03X1038411I-339J-213D01*
G02X1029089I-4661J2922D01*
G03X1028411I-339J-213D01*
G02X1019089I-4661J2922D01*
G03X1018411I-339J-213D01*
G02X1009089I-4661J2922D01*
G03X1008411I-339J-213D01*
G02X999089I-4661J2922D01*
G03X998411I-339J-213D01*
G02X993750Y1429498I-4661J2922D01*
G02Y1440502I0J5502D01*
G02X998411Y1437923I0J-5501D01*
G03X999089I339J213D01*
G02X1008411I4661J-2922D01*
G03X1009089I339J213D01*
G02X1018411I4661J-2922D01*
G03X1019089I339J213D01*
G02X1020498Y1439438I4661J-2923D01*
G01Y1442403D01*
X1016153Y1446748D01*
X1002500D01*
G02X1000201Y1447701I1J3252D01*
G01X995201Y1452701D01*
G02X994248Y1455000I2299J2300D01*
G01Y1471000D01*
G02X995201Y1473299I3252J-1D01*
G01X995467Y1473566D01*
G03X995185Y1474248I-283J282D01*
G01X981347D01*
X980752Y1473653D01*
Y1455000D01*
G02X979799Y1452701I-3252J1D01*
G01X969799Y1442701D01*
G02X967500Y1441748I-2300J2299D01*
G01X946573D01*
G03X946180Y1441276I0J-400D01*
G02X946252Y1440500I-4180J-779D01*
G01Y1440169D01*
X946344Y1440110D01*
G02X947502Y1438000I-1343J-2110D01*
G01Y1432000D01*
G02X945000Y1429498I-2502J0D01*
G01X942511D01*
X939252Y1426239D01*
Y1407772D01*
G03X939781Y1407394I400J0D01*
G02X941562Y1407690I1780J-5206D01*
G02X947031Y1402794I0J-5503D01*
G01X947038Y1402724D01*
X947206Y1402556D01*
G02X948452Y1399550I-3006J-3007D01*
G01Y1389102D01*
X950150D01*
G02X952652Y1386600I0J-2502D01*
G01Y1385637D01*
X952663Y1385605D01*
G02X952902Y1384200I-4013J-1405D01*
G02X952663Y1382795I-4252J0D01*
G01X952652Y1382763D01*
Y1381800D01*
G02X950150Y1379298I-2502J0D01*
G01X947150D01*
G02X945874Y1379648I0J2501D01*
G01X945740Y1379728D01*
X942902Y1376889D01*
Y1376800D01*
G02X940495Y1374300I-2502J0D01*
G03X940302Y1374100I7J-200D01*
G01Y1370900D01*
G03X940495Y1370700I200J0D01*
G02X942902Y1368200I-95J-2500D01*
G01Y1364600D01*
G02X940400Y1362098I-2502J0D01*
G01X929600D01*
G02X927489Y1363258I0J2501D01*
G03X926752Y1363043I-337J-215D01*
G01Y1361761D01*
X941761Y1346752D01*
X944531D01*
G03X944892Y1347324I0J400D01*
G02X944648Y1348400I2258J1078D01*
G01Y1353200D01*
G02X947150Y1355702I2502J0D01*
G01X950150D01*
G02X952652Y1353200I0J-2502D01*
G01Y1348400D01*
G02X952408Y1347324I-2502J2D01*
G03X952769Y1346752I361J-172D01*
G01X962231D01*
G03X962592Y1347324I0J400D01*
G02X962348Y1348400I2258J1078D01*
G01Y1353200D01*
G02X964850Y1355702I2502J0D01*
G01X967850D01*
G02X970352Y1353200I0J-2502D01*
G01Y1348400D01*
G02X970108Y1347324I-2502J2D01*
G03X970469Y1346752I361J-172D01*
G01X987500D01*
G02X990506Y1345506I-1J-4252D01*
G01X999261Y1336752D01*
X1022500D01*
G02X1023897Y1336515I-3J-4252D01*
G03X1024312Y1337176I132J378D01*
G01X1000739Y1360748D01*
X991875D01*
G02X988869Y1361994I1J4252D01*
G01X986964Y1363899D01*
X986894Y1363906D01*
G02X981998Y1369375I607J5469D01*
G02X987500Y1374877I5502J0D01*
G02X992969Y1369981I0J-5503D01*
G01X992976Y1369911D01*
X993636Y1369252D01*
X1002500D01*
G02X1005506Y1368006I-1J-4252D01*
G01X1025066Y1348447D01*
G03X1025748Y1348730I282J283D01*
G01Y1359008D01*
G02X1024498Y1362500I4253J3492D01*
G02X1035502I5502J0D01*
G02X1034252Y1359008I-5503J0D01*
G01Y1339261D01*
X1051761Y1321752D01*
X1100739D01*
X1103248Y1324261D01*
Y1344334D01*
G02X1101998Y1346500I1252J2166D01*
G01Y1352500D01*
G02X1104500Y1355002I2502J0D01*
G01X1110500D01*
G02X1112224Y1354312I-1J-2502D01*
G03X1112776I276J290D01*
G02X1114500Y1355002I1725J-1812D01*
G01X1120500D01*
G02X1122224Y1354312I-1J-2502D01*
G03X1122776I276J290D01*
G02X1124500Y1355002I1725J-1812D01*
G01X1130500D01*
G02X1133002Y1352500I0J-2502D01*
G01Y1346500D01*
G02X1131752Y1344334I-2502J0D01*
G01Y1322500D01*
G02X1131740Y1322181I-4252J0D01*
G03X1132138Y1321752I399J-29D01*
G01X1133239D01*
X1169494Y1358006D01*
G02X1172500Y1359252I3007J-3006D01*
G01X1230000D01*
G02X1233006Y1358006I-1J-4252D01*
G01X1243006Y1348006D01*
G02X1244252Y1345000I-3006J-3007D01*
G01Y1210000D01*
G02X1243006Y1206994I-4252J1D01*
G01X1238006Y1201994D01*
G02X1235000Y1200748I-3007J3006D01*
G01X946015D01*
G03X945670Y1200147I0J-400D01*
G02X946252Y1198000I-3669J-2147D01*
G01Y1197669D01*
X946344Y1197610D01*
G02X947502Y1195500I-1343J-2110D01*
G01Y1189500D01*
G02X945000Y1186998I-2502J0D01*
G01X939000D01*
G02X936498Y1189500I0J2502D01*
G01Y1195500D01*
G02X936902Y1196862I2502J-1D01*
G01X936990Y1196998D01*
X933750Y1200237D01*
X932852Y1199339D01*
Y1196250D01*
G02X930350Y1193748I-2502J0D01*
G01X926450D01*
G02X923949Y1196248I0J2501D01*
G01X923948Y1196448D01*
X921052D01*
X921051Y1196248D01*
G02X918550Y1193748I-2501J1D01*
G01X914650D01*
G02X912234Y1195600I0J2502D01*
G01X912194Y1195748D01*
X910166D01*
G02X908000Y1194498I-2166J1252D01*
G01X902000D01*
G02X899834Y1195748I0J2502D01*
G01X889400D01*
G02X886898Y1198250I0J2502D01*
G01Y1201750D01*
G02X889400Y1204252I2502J0D01*
G01X899834D01*
G02X900018Y1204526I2164J-1255D01*
G03X899860Y1204848I-158J122D01*
G01X889400D01*
G02X886898Y1207350I0J2502D01*
G01Y1210850D01*
G02X889400Y1213352I2502J0D01*
G01X917770D01*
G03X918053Y1214034I0J400D01*
G01X915639Y1216448D01*
X910050D01*
G02X907549Y1218948I0J2501D01*
G01X907548Y1219148D01*
X892452D01*
X892451Y1218948D01*
G02X889950Y1216448I-2501J1D01*
G01X880850D01*
G02X878348Y1218950I0J2502D01*
G01Y1225748D01*
X874261D01*
X872976Y1224464D01*
X872969Y1224394D01*
G02X867500Y1219498I-5469J607D01*
G02X861998Y1225000I0J5502D01*
G02X864577Y1229661I5501J0D01*
G03Y1230339I-213J339D01*
G02X861998Y1235000I2922J4661D01*
G02X873002I5502J0D01*
G02X872992Y1234675I-5502J7D01*
G03X873392Y1234252I399J-23D01*
G01X878348D01*
Y1241050D01*
G02X880850Y1243552I2502J0D01*
G01X889950D01*
G02X892451Y1241052I0J-2501D01*
G01X892452Y1240852D01*
X907548D01*
X907549Y1241052D01*
G02X910050Y1243552I2501J-1D01*
G01X919150D01*
G02X920885Y1242852I-1J-2502D01*
G03X921445Y1242858I277J288D01*
G01X922094Y1243506D01*
G02X924829Y1244743I3007J-3006D01*
G02X927000Y1246002I2171J-1242D01*
G01X929489D01*
X933248Y1249761D01*
Y1253239D01*
X933239Y1253248D01*
X932291D01*
X932251Y1253230D01*
G02X931200Y1252998I-1052J2270D01*
G01X919400D01*
G02X916898Y1255500I0J2502D01*
G01Y1259500D01*
G02X919400Y1262002I2502J0D01*
G01X931200D01*
G02X932290Y1261752I0J-2501D01*
G01X935000D01*
G02X938006Y1260506I-1J-4252D01*
G01X940506Y1258006D01*
G02X941752Y1255000I-3006J-3007D01*
G01Y1248000D01*
G02X940506Y1244994I-4252J1D01*
G01X935502Y1239989D01*
Y1237500D01*
G02X933000Y1234998I-2502J0D01*
G01X927000D01*
G02X925999Y1235207I0J2502D01*
G01X925874Y1235262D01*
X921652Y1231039D01*
Y1222461D01*
X924257Y1219856D01*
G03X924810Y1219844I283J283D01*
G02X926500Y1220502I1691J-1844D01*
G01X932500D01*
G02X935002Y1218000I0J-2502D01*
G01Y1212000D01*
G02X933969Y1209975I-2501J0D01*
G03X934204Y1209252I235J-323D01*
G01X937796D01*
G03X938031Y1209975I0J400D01*
G02X936998Y1212000I1468J2025D01*
G01Y1218000D01*
G02X939500Y1220502I2502J0D01*
G01X945500D01*
G02X948002Y1218000I0J-2502D01*
G01Y1212000D01*
G02X946969Y1209975I-2501J0D01*
G03X947204Y1209252I235J-323D01*
G01X1233239D01*
X1235748Y1211761D01*
Y1343239D01*
X1228239Y1350748D01*
X1174261D01*
X1138006Y1314494D01*
G02X1135000Y1313248I-3007J3006D01*
G01X1050000D01*
G02X1046994Y1314494I1J4252D01*
G01X1039676Y1321812D01*
G03X1039015Y1321397I-283J-283D01*
G02X1039252Y1320000I-4015J-1400D01*
G01Y1305000D01*
G02X1038006Y1301994I-4252J1D01*
G01X1023006Y1286994D01*
G02X1020000Y1285748I-3007J3006D01*
G01X986252D01*
Y1282666D01*
G02X987502Y1280500I-1252J-2166D01*
G01Y1274500D01*
G02X985000Y1271998I-2502J0D01*
G01X979000D01*
G02X976498Y1274500I0J2502D01*
G01Y1280500D01*
G02X977748Y1282666I2502J0D01*
G01Y1283739D01*
X976200Y1285287D01*
X975277Y1284365D01*
X975299Y1284259D01*
G02X975352Y1283750I-2449J-512D01*
G01Y1276250D01*
G02X972850Y1273748I-2502J0D01*
G01X968950D01*
G02X966449Y1276248I0J2501D01*
G01X966448Y1276448D01*
X963552D01*
X963551Y1276248D01*
G02X961050Y1273748I-2501J1D01*
G01X957150D01*
G02X954734Y1275600I0J2502D01*
G01X954694Y1275748D01*
X953002D01*
Y1274500D01*
G02X950500Y1271998I-2502J0D01*
G01X944500D01*
G02X942334Y1273248I0J2502D01*
G01X932290D01*
G02X931200Y1272998I-1090J2251D01*
G01X919400D01*
G02X916898Y1275500I0J2502D01*
G01Y1279500D01*
G02X919400Y1282002I2502J0D01*
G01X931200D01*
G02X932290Y1281752I0J-2501D01*
G01X942334D01*
G02X944500Y1283002I2166J-1252D01*
G01X946989D01*
G02X950000Y1284252I3011J-3001D01*
G01X954694D01*
X954734Y1284400D01*
G02X957150Y1286252I2416J-650D01*
G01X961050D01*
G02X963551Y1283752I0J-2501D01*
G01X963552Y1283552D01*
X966448D01*
X966449Y1283752D01*
G02X966634Y1284695I2501J-1D01*
G01X966648Y1284731D01*
Y1286000D01*
G02X967894Y1289006I4252J-1D01*
G01X971894Y1293006D01*
G02X974900Y1294252I3007J-3006D01*
G01X1018239D01*
X1030748Y1306761D01*
Y1316248D01*
X1020166D01*
G02X1018000Y1314998I-2166J1252D01*
G01X1012000D01*
G02X1009834Y1316248I0J2502D01*
G01X1008109D01*
X1008066Y1316226D01*
G02X1006539Y1315770I-1959J3774D01*
G01X1006360Y1315752D01*
Y1313819D01*
G02X1005983Y1312500I-2502J2D01*
G02X1006360Y1311181I-2125J-1321D01*
G01Y1308819D01*
G02X1005983Y1307500I-2502J2D01*
G02X1006360Y1306181I-2125J-1321D01*
G01Y1303819D01*
G02X1003858Y1301318I-2502J1D01*
G01X997874D01*
G02X995372Y1303819I-1J2501D01*
G01Y1306181D01*
G02X995749Y1307500I2502J-2D01*
G02X995372Y1308819I2125J1321D01*
G01Y1311181D01*
G02X995749Y1312500I2502J-2D01*
G02X995372Y1313819I2125J1321D01*
G01Y1316181D01*
G02X995749Y1317500I2502J-2D01*
G02X995372Y1318819I2125J1321D01*
G01Y1321181D01*
G02X997874Y1323682I2502J-1D01*
G01X998741D01*
X998786Y1323708D01*
G02X1000866Y1324252I2081J-3708D01*
G01X1004608D01*
G02X1006608Y1324752I2000J-3752D01*
G01X1009834D01*
G02X1012000Y1326002I2166J-1252D01*
G01X1018000D01*
G02X1020166Y1324752I0J-2502D01*
G01X1023270D01*
G03X1023553Y1325434I0J400D01*
G01X1020739Y1328248D01*
X997500D01*
G02X994494Y1329494I1J4252D01*
G01X985739Y1338248D01*
X982495D01*
G03X982326Y1337486I0J-400D01*
G02X985502Y1332500I-2326J-4986D01*
G02X983330Y1328120I-5502J0D01*
G01X983252Y1328060D01*
Y1327500D01*
G02X982299Y1325201I-3252J1D01*
G01X981464Y1324365D01*
G03X981746Y1323682I283J-283D01*
G01X982126D01*
G02X984628Y1321181I1J-2501D01*
G01Y1318819D01*
G02X984251Y1317500I-2502J2D01*
G02X984628Y1316181I-2125J-1321D01*
G01Y1313819D01*
G02X984251Y1312500I-2502J2D01*
G02X984628Y1311181I-2125J-1321D01*
G01Y1308819D01*
G02X984251Y1307500I-2502J2D01*
G02X984628Y1306181I-2125J-1321D01*
G01Y1303819D01*
G02X982126Y1301318I-2502J1D01*
G01X976142D01*
G02X973640Y1303819I-1J2501D01*
G01Y1305748D01*
X964511D01*
X963256Y1304494D01*
G02X960250Y1303248I-3007J3006D01*
G01X958493D01*
X958438Y1303205D01*
G02X955000Y1301998I-3439J4295D01*
G02X951562Y1303205I1J5502D01*
G01X951507Y1303248D01*
X949750D01*
G02X946744Y1304494I1J4252D01*
G01X945489Y1305748D01*
X938492D01*
G02X937923Y1305339I-3489J4254D01*
G03Y1304661I213J-339D01*
G02X940502Y1300000I-2922J-4661D01*
G02X935000Y1294498I-5502J0D01*
G02X931508Y1295748I0J5503D01*
G01X925306D01*
X925266Y1295600D01*
G02X922850Y1293748I-2416J650D01*
G01X918950D01*
G02X916449Y1296248I0J2501D01*
G01X916448Y1296448D01*
X913552D01*
X913551Y1296248D01*
G02X911050Y1293748I-2501J1D01*
G01X907150D01*
G02X904734Y1295600I0J2502D01*
G01X904694Y1295748D01*
X895166D01*
G02X893000Y1294498I-2166J1252D01*
G01X887000D01*
G02X884834Y1295748I0J2502D01*
G01X873492D01*
G02X870000Y1294498I-3492J4253D01*
G02X864498Y1300000I0J5502D01*
G02X867077Y1304661I5501J0D01*
G03Y1305339I-213J339D01*
G02X864498Y1310000I2922J4661D01*
G02X875502I5502J0D01*
G02X872923Y1305339I-5501J0D01*
G03Y1304661I213J-339D01*
G02X873492Y1304252I-2920J-4663D01*
G01X884834D01*
G02X887000Y1305502I2166J-1252D01*
G01X893000D01*
G02X895166Y1304252I0J-2502D01*
G01X904694D01*
X904734Y1304400D01*
G02X907150Y1306252I2416J-650D01*
G01X911050D01*
G02X913551Y1303752I0J-2501D01*
G01X913552Y1303552D01*
X916448D01*
X916449Y1303752D01*
G02X918950Y1306252I2501J-1D01*
G01X922850D01*
G02X925266Y1304400I0J-2502D01*
G01X925306Y1304252D01*
X931508D01*
G02X932077Y1304661I3489J-4254D01*
G03Y1305339I-213J339D01*
G02Y1314661I2922J4661D01*
G03Y1315339I-213J339D01*
G02X929498Y1320000I2922J4661D01*
G02X940502I5502J0D01*
G02X937923Y1315339I-5501J0D01*
G03Y1314661I213J-339D01*
G02X938492Y1314252I-2920J-4663D01*
G01X947250D01*
G02X950256Y1313006I-1J-4252D01*
G01X951508Y1311755D01*
X951647Y1311862D01*
G02X958353I3353J-4361D01*
G01X958492Y1311755D01*
X959744Y1313006D01*
G02X960335Y1313499I3008J-3005D01*
G03X960391Y1314111I-227J329D01*
G01X959504Y1314998D01*
X956600D01*
G02X954258Y1316619I0J2502D01*
G01X954210Y1316748D01*
X952390D01*
X952341Y1316619D01*
G02X950000Y1314998I-2341J880D01*
G01X945000D01*
G02X942498Y1317500I0J2502D01*
G01Y1322500D01*
G02X943165Y1324200I2502J-1D01*
G02X942498Y1325900I1835J1701D01*
G01Y1330900D01*
G02X945000Y1333402I2502J0D01*
G01X950000D01*
G02X952502Y1330900I0J-2502D01*
G01Y1325900D01*
G02X951835Y1324200I-2502J1D01*
G02X952341Y1323381I-1835J-1700D01*
G01X952390Y1323252D01*
X954210D01*
X954258Y1323381D01*
G02X956600Y1325002I2342J-881D01*
G01X970000D01*
G02X971697Y1324338I0J-2502D01*
G03X972251Y1324350I271J294D01*
G01X976311Y1328409D01*
X976168Y1328552D01*
X976167Y1328553D01*
G02X974498Y1332500I3833J3947D01*
G02X977674Y1337486I5502J0D01*
G03X977505Y1338248I-169J362D01*
G01X940000D01*
G02X936994Y1339494I1J4252D01*
G01X919494Y1356994D01*
G02X918248Y1360000I3006J3007D01*
G01Y1390000D01*
G02X919494Y1393006I4252J-1D01*
G01X930748Y1404261D01*
Y1428000D01*
G02X931994Y1431006I4252J-1D01*
G01X936498Y1435511D01*
Y1438000D01*
G02X936902Y1439362I2502J-1D01*
G01X936990Y1439498D01*
X929494Y1446994D01*
G02X928248Y1450000I3006J3007D01*
G01Y1451270D01*
G03X927566Y1451553I-400J0D01*
G01X910574Y1434562D01*
Y1432938D01*
X910593Y1432920D01*
G02X915452Y1427500I-593J-5420D01*
G02X910000Y1422048I-5452J0D01*
G02X905415Y1424550I0J5452D01*
G03X904743I-336J-217D01*
G02X904452Y1424141I-4583J2953D01*
G01X904410Y1424086D01*
Y1422300D01*
G02X904259Y1421177I-4251J0D01*
G01X904252Y1421151D01*
Y1382242D01*
G02X905502Y1378750I-4253J-3492D01*
G02X902923Y1374089I-5501J0D01*
G03Y1373411I213J-339D01*
G02X905502Y1368750I-2922J-4661D01*
G02X894498I-5502J0D01*
G02X897077Y1373411I5501J0D01*
G03Y1374089I-213J339D01*
G02X894498Y1378750I2922J4661D01*
G02X895748Y1382242I5503J0D01*
G01Y1422142D01*
G02X895899Y1423265I4251J0D01*
G01X895906Y1423291D01*
Y1424086D01*
X895864Y1424141D01*
G02X895573Y1424550I4292J3362D01*
G03X894900I-336J-216D01*
G02X885730I-4585J2950D01*
G03X885057I-336J-216D01*
G02X884766Y1424141I-4583J2953D01*
G01X884724Y1424086D01*
Y1422300D01*
G02X884252Y1420353I-4252J0D01*
G01Y1382242D01*
G02X885502Y1378750I-4253J-3492D01*
G02X882923Y1374089I-5501J0D01*
G03Y1373411I213J-339D01*
G02X885502Y1368750I-2922J-4661D01*
G02X874498I-5502J0D01*
G02X877077Y1373411I5501J0D01*
G03Y1374089I-213J339D01*
G02X874498Y1378750I2922J4661D01*
G02X875748Y1382242I5503J0D01*
G01Y1421828D01*
G02X876199Y1423733I4252J-1D01*
G01X876220Y1423776D01*
Y1424086D01*
X876178Y1424141D01*
G02Y1430859I4293J3359D01*
G01X876220Y1430914D01*
Y1431224D01*
X876199Y1431267D01*
G02X875748Y1433172I3801J1906D01*
G01Y1537500D01*
G02X876994Y1540506I4252J-1D01*
G01X881994Y1545506D01*
G02X885000Y1546752I3007J-3006D01*
G01X922500D01*
G02X925506Y1545506I-1J-4252D01*
G01X929216Y1541797D01*
G03X929827Y1541852I283J283D01*
G02X930201Y1542299I2671J-1855D01*
G01X945201Y1557299D01*
G02X947500Y1558252I2300J-2299D01*
G01X970000D01*
G02X972299Y1557299I-1J-3252D01*
G01X982299Y1547299D01*
G02X983091Y1546010I-2298J-2300D01*
G03X983754Y1545852I380J125D01*
G01X985201Y1547299D01*
G02X987500Y1548252I2300J-2299D01*
G01X1127500D01*
G02X1129799Y1547299I-1J-3252D01*
G01X1137299Y1539799D01*
G02X1138252Y1537500I-2299J-2300D01*
G01Y1523847D01*
X1138847Y1523252D01*
X1140255D01*
G02X1141649Y1524675I4744J-3253D01*
G03Y1525325I-233J325D01*
G02Y1534675I3351J4675D01*
G03Y1535325I-233J325D01*
G02Y1544675I3351J4675D01*
G03Y1545325I-233J325D01*
G02Y1554675I3351J4675D01*
G03Y1555325I-233J325D01*
G02X1141126Y1555748I3350J4676D01*
G01X1134761D01*
X1133502Y1554489D01*
Y1552000D01*
G02X1131000Y1549498I-2502J0D01*
G01X1125000D01*
G02X1122498Y1552000I0J2502D01*
G01Y1554489D01*
X1121184Y1555803D01*
G03X1120502Y1555520I-282J-283D01*
G01Y1552000D01*
G02X1118000Y1549498I-2502J0D01*
G01X1112000D01*
G02X1109498Y1552000I0J2502D01*
G01Y1558000D01*
G02X1110531Y1560025I2501J0D01*
G03X1110296Y1560748I-235J323D01*
G01X1029704D01*
G03X1029469Y1560025I0J-400D01*
G02X1030502Y1558000I-1468J-2025D01*
G01Y1552000D01*
G02X1028000Y1549498I-2502J0D01*
G01X1022000D01*
G02X1019498Y1552000I0J2502D01*
G01Y1558000D01*
G02X1020531Y1560025I2501J0D01*
G03X1020296Y1560748I-235J323D01*
G01X1016251D01*
Y1560546D01*
G02X1016252Y1560500I-4249J-115D01*
G01Y1560169D01*
X1016344Y1560110D01*
G02X1017502Y1558000I-1343J-2110D01*
G01Y1552000D01*
G02X1015000Y1549498I-2502J0D01*
G01X1009000D01*
G02X1006834Y1550748I0J2502D01*
G01X1005625D01*
G02X1002619Y1551994I1J4252D01*
G01X1000114Y1554498D01*
X993011D01*
X992976Y1554463D01*
G02X987500Y1549498I-5476J537D01*
G02X981998Y1555000I0J5502D01*
G02X985174Y1559986I5502J0D01*
G03X985005Y1560748I-169J362D01*
G01X932495D01*
G03X932326Y1559986I0J-400D01*
G02X935502Y1555000I-2326J-4986D01*
G02X930000Y1549498I-5502J0D01*
G02X926508Y1550748I0J5503D01*
G01X918166D01*
G02X916000Y1549498I-2166J1252D01*
G01X910000D01*
G02X907498Y1552000I0J2502D01*
G01Y1554489D01*
X906184Y1555803D01*
G03X905502Y1555520I-282J-283D01*
G01Y1552000D01*
G02X903000Y1549498I-2502J0D01*
G01X897000D01*
G02X894498Y1552000I0J2502D01*
G01Y1558000D01*
G02X895531Y1560025I2501J0D01*
G03X895296Y1560748I-235J323D01*
G01X891761D01*
X871752Y1540739D01*
Y1408492D01*
G02X873002Y1405000I-4253J-3492D01*
G02X861998I-5502J0D01*
G02X863248Y1408492I5503J0D01*
G01Y1542500D01*
G02X864494Y1545506I4252J-1D01*
G01X886994Y1568006D01*
G37*
G54D33*
X870000Y1325000D03*
X997500Y1351250D03*
G54D32*
X983750Y1223750D03*
X1220000Y1225000D03*
X1052500Y1358750D03*
%LPD*%
G75*
G36*
G01X959475Y1541748D02*
X964653D01*
X966748Y1539653D01*
Y1497500D01*
G03X967701Y1495201I3252J1D01*
G01X971648Y1491254D01*
G02X971490Y1490591I-283J-283D01*
G03X970201Y1489799I1011J-3090D01*
G01X965201Y1484799D01*
G03X964741Y1484220I2299J-2299D01*
G02X964002Y1484432I-339J212D01*
G01Y1507200D01*
G03X961500Y1509702I-2502J0D01*
G01X898500D01*
G03X895998Y1507200I0J-2502D01*
G01Y1482800D01*
G03X898500Y1480298I2502J0D01*
G01X961500D01*
G03X963525Y1481331I0J2501D01*
G02X964248Y1481096I323J-235D01*
G01Y1461347D01*
X961153Y1458252D01*
X951347D01*
X950752Y1458847D01*
Y1461748D01*
X953650D01*
G03X956152Y1464250I0J2502D01*
G01Y1472550D01*
G03X953650Y1475052I-2502J0D01*
G01X906350D01*
G03X903848Y1472550I0J-2502D01*
G01Y1464250D01*
G03X906350Y1461748I2502J0D01*
G01X915270D01*
G02X915553Y1461065I0J-400D01*
G01X897152Y1442664D01*
G03X895906Y1439658I3006J-3007D01*
G01Y1430913D01*
G03X895573Y1430450I4254J-3411D01*
G02X894900I-336J216D01*
G03X894609Y1430859I-4583J-2953D01*
G01X894566Y1430914D01*
Y1432700D01*
G03X893321Y1435706I-4251J0D01*
G01X891752Y1437276D01*
Y1530739D01*
X891761Y1530748D01*
X915739D01*
X917553Y1528935D01*
G02X917270Y1528252I-283J-283D01*
G01X906350D01*
G03X903848Y1525750I0J-2502D01*
G01Y1517450D01*
G03X906350Y1514948I2502J0D01*
G01X953650D01*
G03X956152Y1517450I0J2502D01*
G01Y1525750D01*
G03X953650Y1528252I-2502J0D01*
G01X952730D01*
G02X952447Y1528935I0J400D01*
G01X955536Y1532024D01*
X955606Y1532031D01*
G03X960502Y1537500I-607J5469D01*
G03X959171Y1541088I-5502J0D01*
G02X959475Y1541748I304J260D01*
G37*
G36*
G01X917704Y1560748D02*
X927505D01*
G02X927674Y1559986I0J-400D01*
G03X926508Y1559252I2325J-4987D01*
G01X918166D01*
G03X917469Y1560025I-2166J-1252D01*
G02X917704Y1560748I235J323D01*
G37*
G36*
G01X936961Y1398448D02*
G02X937536Y1398438I283J-283D01*
G03X939948Y1396928I4026J3750D01*
G01Y1385961D01*
X936889Y1382902D01*
X929600D01*
G03X927489Y1381742I0J-2501D01*
G02X926752Y1381957I-337J215D01*
G01Y1388239D01*
X936961Y1398448D01*
G37*
G36*
G01X926752Y1369757D02*
Y1375243D01*
G02X927489Y1375458I400J0D01*
G03X929505Y1374300I2111J1342D01*
G02X929698Y1374100I-7J-200D01*
G01Y1370900D01*
G02X929505Y1370700I-200J0D01*
G03X927489Y1369542I95J-2500D01*
G02X926752Y1369757I-337J215D01*
G37*
G36*
G01X993062Y1514248D02*
X1002109D01*
G02X1002508Y1513814I1J-400D01*
G03X1002498Y1513600I2492J-224D01*
G01Y1511752D01*
X993636D01*
X992976Y1512411D01*
X992969Y1512481D01*
G03X992685Y1513715I-5468J-609D01*
G02X993062Y1514248I377J133D01*
G37*
G36*
G01X991971Y1536748D02*
X1051185D01*
G02X1051467Y1536066I-1J-400D01*
G01X1051201Y1535799D01*
X1051073Y1535860D01*
G03X1050000Y1536102I-1073J-2260D01*
G01X1041000D01*
G03X1038498Y1533600I0J-2502D01*
G01Y1531400D01*
G03X1038927Y1530000I2502J1D01*
G03X1038498Y1528600I2073J-1401D01*
G01Y1526400D01*
G03X1038927Y1525000I2502J1D01*
G03X1038498Y1523600I2073J-1401D01*
G01Y1521400D01*
G03X1038927Y1520000I2502J1D01*
G03X1038498Y1518600I2073J-1401D01*
G01Y1516400D01*
G03X1038927Y1515000I2502J1D01*
G03X1038498Y1513600I2073J-1401D01*
G01Y1511400D01*
G03X1038927Y1510000I2502J1D01*
G03X1038498Y1508600I2073J-1401D01*
G01Y1506400D01*
G03X1038927Y1505000I2502J1D01*
G03X1038498Y1503600I2073J-1401D01*
G01Y1501400D01*
G03X1038927Y1500000I2502J1D01*
G03X1038498Y1498600I2073J-1401D01*
G01Y1496400D01*
G03X1038927Y1495000I2502J1D01*
G03X1038498Y1493600I2073J-1401D01*
G01Y1491400D01*
G03X1038927Y1490000I2502J1D01*
G03X1038498Y1488600I2073J-1401D01*
G01Y1486400D01*
G03X1038927Y1485000I2502J1D01*
G03X1038498Y1483600I2073J-1401D01*
G01Y1481400D01*
G03X1038927Y1480000I2502J1D01*
G03X1038498Y1478600I2073J-1401D01*
G01Y1476400D01*
G03X1038927Y1475000I2502J1D01*
G03X1038498Y1473600I2073J-1401D01*
G01Y1471400D01*
G03X1038927Y1470000I2502J1D01*
G03X1038498Y1468600I2073J-1401D01*
G01Y1466400D01*
G03X1041000Y1463898I2502J0D01*
G01X1047903D01*
X1060498Y1451303D01*
Y1439438D01*
G03X1059089Y1437923I3252J-4438D01*
G02X1058411I-339J213D01*
G03X1049089I-4661J-2922D01*
G02X1048411I-339J213D01*
G03X1039089I-4661J-2922D01*
G02X1038411I-339J213D01*
G03X1036996Y1439443I-4662J-2922D01*
G03X1036049Y1441549I-3246J-194D01*
G01X1020299Y1457299D01*
G03X1018000Y1458252I-2300J-2299D01*
G01X1008846D01*
X1005752Y1461346D01*
Y1463898D01*
X1014000D01*
G03X1016502Y1466400I0J2502D01*
G01Y1468600D01*
G03X1016073Y1470000I-2502J-1D01*
G03X1016502Y1471400I-2073J1401D01*
G01Y1473600D01*
G03X1016073Y1475000I-2502J-1D01*
G03X1016502Y1476400I-2073J1401D01*
G01Y1478600D01*
G03X1016073Y1480000I-2502J-1D01*
G03X1016502Y1481400I-2073J1401D01*
G01Y1483600D01*
G03X1016073Y1485000I-2502J-1D01*
G03X1016502Y1486400I-2073J1401D01*
G01Y1488600D01*
G03X1016073Y1490000I-2502J-1D01*
G03X1016502Y1491400I-2073J1401D01*
G01Y1493600D01*
G03X1016073Y1495000I-2502J-1D01*
G03X1016502Y1496400I-2073J1401D01*
G01Y1498600D01*
G03X1016073Y1500000I-2502J-1D01*
G03X1016502Y1501400I-2073J1401D01*
G01Y1503600D01*
G03X1016073Y1505000I-2502J-1D01*
G03X1016502Y1506400I-2073J1401D01*
G01Y1508600D01*
G03X1016073Y1510000I-2502J-1D01*
G03X1016502Y1511400I-2073J1401D01*
G01Y1513600D01*
G03X1016073Y1515000I-2502J-1D01*
G03X1016502Y1516400I-2073J1401D01*
G01Y1518600D01*
G03X1016073Y1520000I-2502J-1D01*
G03X1016502Y1521400I-2073J1401D01*
G01Y1523600D01*
G03X1016073Y1525000I-2502J-1D01*
G03X1016502Y1526400I-2073J1401D01*
G01Y1528600D01*
G03X1016073Y1530000I-2502J-1D01*
G03X1016502Y1531400I-2073J1401D01*
G01Y1533600D01*
G03X1014000Y1536102I-2502J0D01*
G01X1005000D01*
G03X1003724Y1535752I0J-2501D01*
G01X1000000D01*
G03X998536Y1535403I2J-3252D01*
G03X997500Y1535502I-1039J-5403D01*
G03X991998Y1530000I0J-5502D01*
G03X993329Y1526412I5502J0D01*
G02X993025Y1525752I-304J-260D01*
G01X992597D01*
X990752Y1527597D01*
Y1535529D01*
X991971Y1536748D01*
G37*
G36*
G01X1058847Y1526748D02*
X1116153D01*
X1116748Y1526153D01*
Y1496347D01*
X1108340Y1487938D01*
X1108242Y1487952D01*
G03X1107500Y1488002I-740J-5452D01*
G03X1113002Y1482500I0J-5502D01*
G03X1112952Y1483242I-5502J2D01*
G01X1112938Y1483340D01*
X1116066Y1486467D01*
G02X1116748Y1486185I282J-283D01*
G01Y1478847D01*
X1107701Y1469799D01*
G03X1106748Y1467500I2299J-2300D01*
G01Y1455000D01*
G03X1107701Y1452701I3252J1D01*
G01X1119248Y1441153D01*
Y1373847D01*
X1115201Y1369799D01*
G03X1114286Y1367992I2299J-2299D01*
G03X1112776Y1367312I214J-2492D01*
G02X1112224I-276J290D01*
G03X1110500Y1368002I-1725J-1812D01*
G01X1106597D01*
X1090540Y1384059D01*
G02X1090936Y1384725I283J283D01*
G03X1092500Y1384498I1564J5274D01*
G03X1098002Y1390000I0J5502D01*
G03X1097950Y1390752I-5502J-3D01*
G02X1098628Y1391091I396J55D01*
G03X1102500Y1389498I3872J3909D01*
G03X1108002Y1395000I0J5502D01*
G03X1107950Y1395752I-5502J-3D01*
G02X1108628Y1396091I396J55D01*
G03X1112500Y1394498I3872J3909D01*
G03X1118002Y1400000I0J5502D01*
G03X1115423Y1404661I-5501J0D01*
G02Y1405339I213J339D01*
G03X1118002Y1410000I-2922J4661D01*
G03X1116274Y1414004I-5503J0D01*
G02X1116404Y1414668I274J291D01*
G03X1118002Y1417000I-904J2333D01*
G01Y1423000D01*
G03X1115500Y1425502I-2502J0D01*
G01X1109500D01*
G03X1107776Y1424812I1J-2502D01*
G02X1107224I-276J290D01*
G03X1105500Y1425502I-1725J-1812D01*
G01X1099500D01*
G03X1097776Y1424812I1J-2502D01*
G02X1097224I-276J290D01*
G03X1095500Y1425502I-1725J-1812D01*
G01X1089500D01*
G03X1087776Y1424812I1J-2502D01*
G02X1087224I-276J290D01*
G03X1085500Y1425502I-1725J-1812D01*
G01X1079500D01*
G03X1076998Y1423000I0J-2502D01*
G01Y1417000D01*
G03X1078596Y1414668I2502J1D01*
G02X1078726Y1414004I-144J-373D01*
G03X1076998Y1410000I3775J-4004D01*
G03X1079577Y1405339I5501J0D01*
G02Y1404661I-213J-339D01*
G03X1076998Y1400000I2922J-4661D01*
G03X1077225Y1398436I5501J0D01*
G02X1076559Y1398040I-383J-113D01*
G01X1075752Y1398847D01*
Y1442585D01*
G02X1076434Y1442867I400J-1D01*
G01X1079248Y1440053D01*
Y1438495D01*
X1079082Y1438466D01*
G03X1076998Y1436000I417J-2466D01*
G01Y1430000D01*
G03X1079500Y1427498I2502J0D01*
G01X1085500D01*
G03X1087224Y1428188I-1J2502D01*
G02X1087776I276J-290D01*
G03X1089500Y1427498I1725J1812D01*
G01X1095500D01*
G03X1097224Y1428188I-1J2502D01*
G02X1097776I276J-290D01*
G03X1099500Y1427498I1725J1812D01*
G01X1105500D01*
G03X1107224Y1428188I-1J2502D01*
G02X1107776I276J-290D01*
G03X1109500Y1427498I1725J1812D01*
G01X1115500D01*
G03X1118002Y1430000I0J2502D01*
G01Y1436000D01*
G03X1115500Y1438502I-2502J0D01*
G01X1111597D01*
X1110752Y1439347D01*
Y1440000D01*
G03X1109799Y1442299I-3252J-1D01*
G01X1094799Y1457299D01*
G03X1092500Y1458252I-2300J-2299D01*
G01X1088847D01*
X1053533Y1493566D01*
G02X1053815Y1494248I283J282D01*
G01X1058653D01*
X1062062Y1490840D01*
X1062048Y1490742D01*
G03X1061998Y1490000I5452J-740D01*
G03X1073002I5502J0D01*
G03X1072775Y1491564I-5501J0D01*
G02X1073441Y1491960I383J113D01*
G01X1076748Y1488653D01*
Y1481938D01*
G03X1074498Y1477500I3252J-4438D01*
G03X1085502I5502J0D01*
G03X1083252Y1481938I-5502J0D01*
G01Y1490000D01*
G03X1082299Y1492299I-3252J-1D01*
G01X1068533Y1506066D01*
G02X1068815Y1506748I283J282D01*
G01X1103062D01*
G03X1107500Y1504498I4438J3252D01*
G03X1113002Y1510000I0J5502D01*
G03X1110423Y1514661I-5501J0D01*
G02Y1515339I213J339D01*
G03X1113002Y1520000I-2922J4661D01*
G03X1101998I-5502J0D01*
G03X1104577Y1515339I5501J0D01*
G02Y1514661I-213J-339D01*
G03X1103062Y1513252I2923J-4661D01*
G01X1088635D01*
G02X1088237Y1513690I0J400D01*
G03X1088252Y1514000I-3237J312D01*
G01Y1515562D01*
G03X1089661Y1517077I-3252J4438D01*
G02X1090339I339J-213D01*
G03X1095000Y1514498I4661J2922D01*
G03Y1525502I0J5502D01*
G03X1090339Y1522923I0J-5501D01*
G02X1089661I-339J213D01*
G03X1085000Y1525502I-4661J-2922D01*
G03X1079498Y1520000I0J-5502D01*
G03X1080829Y1516412I5502J0D01*
G02X1080525Y1515752I-304J-260D01*
G01X1076975D01*
G02X1076671Y1516412I0J400D01*
G03X1078002Y1520000I-4171J3588D01*
G03X1072500Y1525502I-5502J0D01*
G03X1067839Y1522923I0J-5501D01*
G02X1067161I-339J213D01*
G03X1062500Y1525502I-4661J-2922D01*
G03X1058926Y1524183I0J-5502D01*
G01X1058785Y1524063D01*
X1058049Y1524799D01*
G03X1057773Y1525045I-2298J-2300D01*
G02X1057739Y1525641I249J313D01*
G01X1058847Y1526748D01*
G37*
G36*
G01X1052891Y1504248D02*
X1053653D01*
X1055201Y1502701D01*
G03X1057500Y1501748I2300J2299D01*
G01X1063653D01*
X1069460Y1495941D01*
G02X1069064Y1495275I-283J-283D01*
G03X1067500Y1495502I-1564J-5274D01*
G03X1066758Y1495452I-2J-5502D01*
G01X1066660Y1495438D01*
X1062299Y1499799D01*
G03X1060000Y1500752I-2300J-2299D01*
G01X1052891D01*
G02X1052492Y1501186I-1J400D01*
G03X1052502Y1501400I-2492J224D01*
G01Y1503600D01*
G03X1052492Y1503814I-2502J-10D01*
G02X1052891Y1504248I398J34D01*
G37*
G36*
G01X1067002Y1439438D02*
Y1443835D01*
G02X1067684Y1444117I400J-1D01*
G01X1069248Y1442553D01*
Y1437973D01*
G02X1068503Y1437771I-400J0D01*
G03X1067002Y1439438I-4753J-2771D01*
G37*
G36*
G01X1087161Y1397077D02*
G02X1087839I339J-213D01*
G03X1089577Y1395339I4661J2923D01*
G02Y1394661I-213J-339D01*
G03X1086998Y1390000I2922J-4661D01*
G03X1087225Y1388436I5501J0D01*
G02X1086559Y1388040I-383J-113D01*
G01X1080540Y1394059D01*
G02X1080936Y1394725I283J283D01*
G03X1082500Y1394498I1564J5274D01*
G03X1087161Y1397077I0J5501D01*
G37*
G36*
G01X1086404Y1414668D02*
G03X1087224Y1415188I-904J2332D01*
G02X1087776I276J-290D01*
G03X1089082Y1414534I1724J1812D01*
G01X1089248Y1414505D01*
Y1404438D01*
G03X1087839Y1402923I3252J-4438D01*
G02X1087161I-339J213D01*
G03X1085423Y1404661I-4661J-2923D01*
G02Y1405339I213J339D01*
G03X1088002Y1410000I-2922J4661D01*
G03X1086274Y1414004I-5503J0D01*
G02X1086404Y1414668I274J291D01*
G37*
G36*
G01X1097224Y1415188D02*
G02X1097776I276J-290D01*
G03X1099082Y1414534I1724J1812D01*
G01X1099248Y1414505D01*
Y1409438D01*
G03X1096998Y1405000I3252J-4438D01*
G03X1097050Y1404248I5502J3D01*
G02X1096372Y1403909I-396J-55D01*
G03X1095752Y1404438I-3871J-3910D01*
G01Y1414505D01*
X1095918Y1414534D01*
G03X1097224Y1415188I-418J2466D01*
G37*
G36*
G01X1111752Y1344334D02*
G03X1112224Y1344688I-1254J2164D01*
G02X1112776I276J-290D01*
G03X1113248Y1344334I1726J1810D01*
G01Y1324261D01*
X1112434Y1323447D01*
G02X1111752Y1323730I-282J283D01*
G01Y1344334D01*
G37*
G36*
G01X1107224Y1415188D02*
G02X1107776I276J-290D01*
G03X1108596Y1414668I1724J1812D01*
G02X1108726Y1414004I-144J-373D01*
G03X1106998Y1410000I3775J-4004D01*
G03X1107050Y1409248I5502J3D01*
G02X1106372Y1408909I-396J-55D01*
G03X1105752Y1409438I-3871J-3910D01*
G01Y1414505D01*
X1105918Y1414534D01*
G03X1107224Y1415188I-418J2466D01*
G37*
G36*
G01X1115936Y1454725D02*
G03X1117500Y1454498I1564J5274D01*
G03X1121088Y1455829I0J5502D01*
G02X1121748Y1455525I260J-304D01*
G01Y1450000D01*
G03X1122701Y1447701I3252J1D01*
G01X1125498Y1444903D01*
Y1444583D01*
G02X1125157Y1444441I-200J0D01*
G01X1115540Y1454059D01*
G02X1115936Y1454725I283J283D01*
G37*
G36*
G01X1121752Y1344334D02*
G03X1122224Y1344688I-1254J2164D01*
G02X1122776I276J-290D01*
G03X1123248Y1344334I1726J1810D01*
G01Y1324261D01*
X1122434Y1323447D01*
G02X1121752Y1323730I-282J283D01*
G01Y1344334D01*
G37*
G36*
G01X1136938Y1456748D02*
X1140255D01*
G03X1141649Y1455325I4744J3253D01*
G02Y1454675I-233J-325D01*
G03Y1445325I3351J-4675D01*
G02Y1444675I-233J-325D01*
G03X1139358Y1441120I3351J-4675D01*
G02X1138683Y1440915I-392J78D01*
G01X1128252Y1451347D01*
Y1455525D01*
G02X1128912Y1455829I400J0D01*
G03X1132500Y1454498I3588J4171D01*
G03X1136938Y1456748I0J5502D01*
G37*
G36*
G01X1128252Y1496347D02*
Y1516185D01*
G02X1128934Y1516467I400J-1D01*
G01X1137701Y1507701D01*
G03X1140000Y1506748I2300J2299D01*
G01X1140254D01*
X1140314Y1506664D01*
G03X1141649Y1505325I4685J3336D01*
G02Y1504675I-233J-325D01*
G03Y1495325I3351J-4675D01*
G02Y1494675I-233J-325D01*
G03Y1485325I3351J-4675D01*
G02Y1484675I-233J-325D01*
G03Y1475325I3351J-4675D01*
G02Y1474675I-233J-325D01*
G03Y1465325I3351J-4675D01*
G02Y1464675I-233J-325D01*
G03X1140255Y1463252I3350J-4676D01*
G01X1136938D01*
G03X1132500Y1465502I-4438J-3252D01*
G03X1128912Y1464171I0J-5502D01*
G02X1128252Y1464475I-260J304D01*
G01Y1483025D01*
G02X1128912Y1483329I400J0D01*
G03X1132500Y1481998I3588J4171D01*
G03Y1493002I0J5502D01*
G03X1131758Y1492952I-2J-5502D01*
G01X1131660Y1492938D01*
X1128252Y1496347D01*
G37*
G54D10*
X867400Y1200000D03*
G54D11*
X867500Y1235000D03*
Y1225000D03*
X870000Y1300000D03*
Y1310000D03*
Y1325000D03*
X867500Y1405000D03*
X880000Y1368750D03*
Y1378750D03*
X900000Y1368750D03*
Y1378750D03*
Y1455000D03*
X935000Y1300000D03*
Y1320000D03*
Y1310000D03*
X941562Y1402188D03*
X927500Y1440000D03*
X930000Y1555000D03*
X955000Y1307500D03*
Y1537500D03*
X970000Y1192500D03*
X962500Y1395000D03*
X976250Y1398750D03*
X980000Y1192500D03*
Y1332500D03*
X987500Y1369375D03*
Y1467500D03*
Y1511875D03*
Y1555000D03*
X1007500Y1277500D03*
X997500Y1351250D03*
X993750Y1435000D03*
X1003750D03*
X997500Y1530000D03*
X1017500Y1277500D03*
X1013750Y1435000D03*
X1023750D03*
X1030000Y1362500D03*
X1033750Y1435000D03*
X1057500Y1417500D03*
X1043750Y1435000D03*
X1053750D03*
X1055000Y1450000D03*
X1072500Y1385000D03*
X1067500Y1377500D03*
X1063750Y1435000D03*
X1067500Y1490000D03*
X1062500Y1520000D03*
X1072500D03*
X1082500Y1400000D03*
Y1410000D03*
X1080000Y1477500D03*
X1085000Y1520000D03*
X1102500Y1405000D03*
Y1395000D03*
X1092500Y1400000D03*
Y1390000D03*
X1095000Y1467500D03*
X1107500Y1482500D03*
Y1510000D03*
Y1520000D03*
X1095000D03*
X1112500Y1400000D03*
Y1410000D03*
X1117500Y1460000D03*
X1132500D03*
Y1487500D03*
X1210000Y1342500D03*
Y1367500D03*
G54D20*
X925300Y1267500D03*
Y1257500D03*
Y1277500D03*
G54D30*
G01X867500Y1235000D02*
X873202D01*
G01X867500D02*
Y1240702D01*
G01X870000Y1319298D02*
Y1325000D01*
G01Y1310000D02*
X875702D01*
G01X864298D02*
X870000D01*
G01D02*
Y1315702D01*
G01Y1325000D02*
X875702D01*
G01X864298D02*
X870000D01*
G01D02*
Y1330702D01*
G01X874298Y1368750D02*
X880000D01*
G01X886698Y1190900D02*
X892600D01*
G01X880150Y1244098D02*
Y1267500D01*
G01D02*
X898602D01*
G01X880150D02*
Y1290902D01*
G01X890000Y1313000D02*
X895702D01*
G01X884298D02*
X890000D01*
G01D02*
Y1318702D01*
G01Y1307298D02*
Y1313000D01*
G01X880000Y1368750D02*
X885702D01*
G01X880000Y1363048D02*
Y1368750D01*
G01X905000Y1187000D02*
X910702D01*
G01X899298D02*
X905000D01*
G01D02*
Y1192702D01*
G01Y1181298D02*
Y1187000D01*
G01X892600Y1186448D02*
Y1190900D01*
G01D02*
X898502D01*
G01X892600D02*
Y1195352D01*
G01X900000Y1368750D02*
X905702D01*
G01X894298D02*
X900000D01*
G01Y1363048D02*
Y1368750D01*
G01X903648Y1468400D02*
X907500D01*
G01D02*
Y1475252D01*
G01Y1461548D02*
Y1468400D01*
G01Y1514748D02*
Y1521600D01*
G01X903648D02*
X907500D01*
G01D02*
Y1528452D01*
G01X900000Y1549298D02*
Y1555000D01*
G01D02*
X905702D01*
G01X894298D02*
X900000D01*
G01X924298Y1227500D02*
X930000D01*
G01X916698Y1267500D02*
X925300D01*
G01X936798Y1215000D02*
X942500D01*
G01X930000Y1227500D02*
X935702D01*
G01X930000D02*
Y1233202D01*
G01Y1221798D02*
Y1227500D01*
G01X925300Y1267500D02*
X933902D01*
G01X925300D02*
Y1272202D01*
G01Y1262798D02*
Y1267500D01*
G01X935000Y1320000D02*
X940702D01*
G01X929298D02*
X935000D01*
G01D02*
Y1325702D01*
G01Y1366400D02*
X943102D01*
G01X935000Y1361898D02*
Y1366400D01*
G01X942500Y1215000D02*
X948202D01*
G01X942500D02*
Y1220702D01*
G01X947500Y1264500D02*
X953202D01*
G01X941798D02*
X947500D01*
G01D02*
Y1270202D01*
G01Y1258798D02*
Y1264500D01*
G01Y1328400D02*
X952702D01*
G01X942298D02*
X947500D01*
G01D02*
Y1333602D01*
G01X955000Y1435000D02*
X960702D01*
G01X949298D02*
X955000D01*
G01D02*
Y1440702D01*
G01Y1429298D02*
Y1435000D01*
G01X952500Y1468400D02*
X956352D01*
G01X952500D02*
Y1475252D01*
G01Y1461548D02*
Y1468400D01*
G01Y1514748D02*
Y1521600D01*
G01D02*
X956352D01*
G01X952500D02*
Y1528452D01*
G01X973440Y1305000D02*
X979134D01*
G01X980000Y1186798D02*
Y1192500D01*
G01D02*
X985702D01*
G01X980000D02*
Y1198202D01*
G01X979134Y1301117D02*
Y1305000D01*
G01D02*
X984828D01*
G01X980000Y1382500D02*
X985702D01*
G01X974298D02*
X980000D01*
G01D02*
Y1388202D01*
G01Y1376798D02*
Y1382500D01*
G01X990000Y1397500D02*
X995702D01*
G01X984298D02*
X990000D01*
G01D02*
Y1403202D01*
G01Y1391798D02*
Y1397500D01*
G01X1002298Y1512500D02*
X1009500D01*
G01X1017500Y1277500D02*
X1023202D01*
G01X1017500D02*
Y1283202D01*
G01Y1271798D02*
Y1277500D01*
G01X1015000Y1301798D02*
Y1307500D01*
G01D02*
X1020702D01*
G01X1009298D02*
X1015000D01*
G01D02*
Y1313202D01*
G01X1016500Y1385000D02*
X1021402D01*
G01X1011598D02*
X1016500D01*
G01X1009500Y1512500D02*
X1016702D01*
G01X1019298Y1555000D02*
X1025000D01*
G01X1038298Y1502500D02*
X1045500D01*
G01X1025000Y1549298D02*
Y1555000D01*
G01D02*
X1030702D01*
G01X1043750Y1435000D02*
Y1440702D01*
G01Y1429298D02*
Y1435000D01*
G01X1045500Y1502500D02*
X1052702D01*
G01X1072500Y1520000D02*
X1078202D01*
G01X1072500D02*
Y1525702D01*
G01X1086798Y1390000D02*
X1092500D01*
G01X1076798Y1400000D02*
X1082500D01*
G01Y1394298D02*
Y1400000D01*
G01X1092500Y1384298D02*
Y1390000D01*
G01X1102500Y1395000D02*
X1108202D01*
G01X1102500Y1389298D02*
Y1395000D01*
G01X1092500Y1390000D02*
X1098202D01*
G01X1095000Y1514298D02*
Y1520000D01*
G01X1101798D02*
X1107500D01*
G01X1095000D02*
X1100702D01*
G01X1095000D02*
Y1525702D01*
G01X1112500Y1400000D02*
X1118202D01*
G01X1112500Y1394298D02*
Y1400000D01*
G01X1107500Y1520000D02*
X1113202D01*
G01X1107500D02*
Y1525702D01*
G01X1115000Y1549298D02*
Y1555000D01*
G01D02*
X1120702D01*
G01X1109298D02*
X1115000D01*
G01X1145000Y1550000D02*
X1150952D01*
G01X1139048D02*
X1145000D01*
G54D12*
X880150Y1267500D03*
G54D21*
X935000Y1366400D03*
Y1378600D03*
G54D31*
G01X867500Y1225000D02*
X872500Y1230000D01*
X885400D01*
G01X870000Y1300000D02*
X890000D01*
G01X907500Y1565000D02*
X890000D01*
X867500Y1542500D01*
Y1405000D01*
G01X909100Y1300000D02*
X890000D01*
G01X880000Y1378750D02*
Y1421828D01*
X880472Y1422300D01*
Y1427500D01*
G01D02*
Y1432700D01*
X880000Y1433172D01*
Y1537500D01*
X885000Y1542500D01*
X922500D01*
X927500Y1537500D01*
Y1521600D01*
G01X922500D02*
Y1530000D01*
X917500Y1535000D01*
X890000D01*
X887500Y1532500D01*
Y1435515D01*
X890315Y1432700D01*
Y1427500D01*
G01X892600Y1200000D02*
X905000D01*
G01X916600D02*
X905000D01*
G01X892600Y1209100D02*
X923600D01*
X929500Y1215000D01*
G01X900000Y1378750D02*
Y1422142D01*
X900158Y1422300D01*
Y1427500D01*
G01D02*
Y1439658D01*
X922500Y1462000D01*
Y1468400D01*
G01X910000Y1427500D02*
X906323Y1431177D01*
Y1436323D01*
X927500Y1457500D01*
Y1468400D01*
G01X1007500Y1565000D02*
X907500D01*
G01X913000Y1555000D02*
X907500Y1560500D01*
Y1565000D01*
G01X929500Y1215000D02*
X923100D01*
X914600Y1223500D01*
Y1230000D01*
G01X930000Y1240500D02*
X925100D01*
X914600Y1230000D01*
G01X935000Y1300000D02*
X920900D01*
G01X942000Y1435000D02*
X935000Y1428000D01*
Y1402500D01*
X922500Y1390000D01*
Y1360000D01*
X940000Y1342500D01*
X987500D01*
X997500Y1332500D01*
X1022500D01*
X1034500Y1320500D01*
G01X930000Y1555000D02*
X913000D01*
G01X942000Y1192500D02*
Y1198000D01*
X935000Y1205000D01*
G01D02*
X1235000D01*
X1240000Y1210000D01*
Y1345000D01*
X1230000Y1355000D01*
X1172500D01*
X1135000Y1317500D01*
X1122500D01*
G01X928400Y1200000D02*
Y1200900D01*
X932500Y1205000D01*
X935000D01*
G01X930000Y1240500D02*
X937500Y1248000D01*
Y1255000D01*
X935000Y1257500D01*
X925300D01*
G01X947500Y1277500D02*
X925300D01*
G01X935000Y1310000D02*
X947250D01*
X949750Y1307500D01*
X955000D01*
G01X935000Y1378600D02*
X938600D01*
X944200Y1384200D01*
G01D02*
Y1399550D01*
X941562Y1402188D01*
G01X942000Y1435000D02*
Y1440500D01*
X932500Y1450000D01*
Y1468400D01*
G01X970000Y1192500D02*
X955000D01*
G01X959100Y1280000D02*
X950000D01*
X947500Y1277500D01*
G01X955000Y1307500D02*
X960250D01*
X962750Y1310000D01*
X979134D01*
G01X944200Y1384200D02*
X948650D01*
G01X947500Y1521600D02*
Y1530000D01*
X955000Y1537500D01*
G01X977500Y1290000D02*
X974900D01*
X970900Y1286000D01*
Y1280000D01*
G01X982000Y1277500D02*
Y1285500D01*
X977500Y1290000D01*
G01X1034500Y1320500D02*
X1035000Y1320000D01*
Y1305000D01*
X1020000Y1290000D01*
X977500D01*
G01X987500Y1369375D02*
X991875Y1365000D01*
X1002500D01*
X1030000Y1337500D01*
G01X1003000Y1397500D02*
X987375Y1413125D01*
X980000D01*
X976250Y1409375D01*
Y1398750D01*
G01X987500Y1511875D02*
X991875Y1507500D01*
X1009500D01*
G01X987500Y1555000D02*
X991250Y1558750D01*
X1001875D01*
X1005625Y1555000D01*
X1012000D01*
G01X1007500Y1277500D02*
X995000D01*
G01X1015000Y1320500D02*
X1006608D01*
X1006108Y1320000D01*
X1000866D01*
G01X993000Y1382500D02*
X1000500Y1390000D01*
X1016500D01*
G01Y1395000D02*
X1010750D01*
X1008250Y1397500D01*
X1003000D01*
G01X1012000Y1555000D02*
Y1560500D01*
X1007500Y1565000D01*
G01X1034500Y1320500D02*
X1015000D01*
G01X1007500Y1565000D02*
X1118000D01*
X1128000Y1555000D01*
G01X1030000Y1337500D02*
X1050000Y1317500D01*
X1102500D01*
G01X1030000Y1362500D02*
Y1337500D01*
G01X1053750Y1435000D02*
Y1421250D01*
X1057500Y1417500D01*
G01X1107500Y1349500D02*
Y1322500D01*
X1102500Y1317500D01*
G01D02*
X1112500D01*
G01X1127500Y1349500D02*
Y1322500D01*
X1122500Y1317500D01*
G01X1117500Y1349500D02*
Y1322500D01*
X1112500Y1317500D01*
G01D02*
X1122500D01*
G01X1145000Y1560000D02*
X1133000D01*
X1128000Y1555000D01*
G54D13*
X892600Y1200000D03*
Y1190900D03*
Y1209100D03*
G54D22*
X947500Y1320000D03*
Y1328400D03*
X967500Y1320000D03*
X959100D03*
G54D23*
X948650Y1350800D03*
Y1384200D03*
X966350Y1350800D03*
Y1384200D03*
G54D14*
X885400Y1230000D03*
X914600D03*
G54D15*
X890000Y1300000D03*
Y1313000D03*
X905000Y1187000D03*
Y1200000D03*
X900000Y1555000D03*
X913000D03*
X942000Y1192500D03*
X942500Y1215000D03*
X929500D03*
X930000Y1227500D03*
Y1240500D03*
X942000Y1435000D03*
X955000Y1192500D03*
X947500Y1264500D03*
Y1277500D03*
X955000Y1435000D03*
X982000Y1277500D03*
X980000Y1382500D03*
X990000Y1397500D03*
X995000Y1277500D03*
X993000Y1382500D03*
X1003000Y1397500D03*
X1015000Y1307500D03*
Y1320500D03*
X1025000Y1555000D03*
X1012000D03*
X1082500Y1420000D03*
Y1433000D03*
X1107500Y1349500D03*
Y1362500D03*
X1102500Y1420000D03*
X1092500D03*
X1102500Y1433000D03*
X1092500D03*
X1117500Y1349500D03*
Y1362500D03*
X1112500Y1420000D03*
Y1433000D03*
X1115000Y1555000D03*
X1127500Y1349500D03*
Y1362500D03*
X1128000Y1555000D03*
G54D24*
X983750Y1223750D03*
X1052500Y1358750D03*
X1220000Y1225000D03*
G54D25*
X979134Y1305000D03*
Y1310000D03*
Y1315000D03*
Y1320000D03*
X1000866D03*
Y1315000D03*
Y1310000D03*
Y1305000D03*
G54D16*
X880472Y1427500D03*
X890315D03*
X900158D03*
X910000D03*
G54D17*
X907500Y1468400D03*
Y1521600D03*
X922500Y1468400D03*
X917500D03*
X912500D03*
Y1521600D03*
X917500D03*
X922500D03*
X937500Y1468400D03*
X932500D03*
X927500D03*
Y1521600D03*
X932500D03*
X937500D03*
X952500Y1468400D03*
X947500D03*
X942500D03*
Y1521600D03*
X947500D03*
X952500D03*
G54D26*
X1009500Y1467500D03*
Y1472500D03*
Y1477500D03*
Y1482500D03*
Y1487500D03*
Y1492500D03*
Y1497500D03*
Y1502500D03*
Y1507500D03*
Y1512500D03*
Y1517500D03*
Y1522500D03*
Y1527500D03*
Y1532500D03*
X1045500Y1467500D03*
Y1482500D03*
Y1477500D03*
Y1472500D03*
Y1497500D03*
Y1492500D03*
Y1487500D03*
Y1517500D03*
Y1512500D03*
Y1507500D03*
Y1502500D03*
Y1532500D03*
Y1527500D03*
Y1522500D03*
G54D27*
X1016500Y1380000D03*
Y1385000D03*
Y1390000D03*
Y1395000D03*
X1038500Y1385000D03*
Y1380000D03*
Y1395000D03*
Y1390000D03*
G54D18*
X930000Y1495000D03*
G54D19*
X916600Y1200000D03*
X920900Y1300000D03*
X909100D03*
X928400Y1200000D03*
X970900Y1280000D03*
X959100D03*
G54D28*
X1145000Y1420000D03*
Y1430000D03*
Y1440000D03*
Y1450000D03*
Y1460000D03*
Y1470000D03*
Y1480000D03*
Y1490000D03*
Y1500000D03*
Y1510000D03*
Y1520000D03*
Y1530000D03*
Y1540000D03*
Y1550000D03*
Y1560000D03*
X1245000Y1420000D03*
Y1430000D03*
Y1450000D03*
Y1440000D03*
Y1470000D03*
Y1460000D03*
Y1480000D03*
Y1500000D03*
Y1490000D03*
Y1520000D03*
Y1510000D03*
Y1530000D03*
Y1550000D03*
Y1540000D03*
Y1560000D03*
G54D29*
G01X1009500Y1477500D02*
X980000D01*
X977500Y1475000D01*
Y1455000D01*
X967500Y1445000D01*
X945000D01*
X937500Y1452500D01*
Y1468400D01*
G01X1009500Y1502500D02*
X982500D01*
X980000Y1505000D01*
Y1545000D01*
X970000Y1555000D01*
X947500D01*
X932500Y1540000D01*
Y1521600D01*
G01X1009500Y1497500D02*
X977500D01*
X975000Y1500000D01*
Y1542500D01*
X967500Y1550000D01*
X950000D01*
X937500Y1537500D01*
Y1521600D01*
G01X947500Y1320000D02*
X959100D01*
G01X1009500Y1482500D02*
X975000D01*
X972500Y1480000D01*
Y1457500D01*
X965000Y1450000D01*
X947500D01*
X942500Y1455000D01*
Y1468400D01*
G01X1009500Y1487500D02*
X972500D01*
X967500Y1482500D01*
Y1460000D01*
X962500Y1455000D01*
X950000D01*
X947500Y1457500D01*
Y1468400D01*
G01X1009500Y1492500D02*
X975000D01*
X970000Y1497500D01*
Y1541000D01*
X966000Y1545000D01*
X952500D01*
X942500Y1535000D01*
Y1521600D01*
G01X979134Y1315000D02*
X964100D01*
X959100Y1320000D01*
G01X979134D02*
X972500D01*
G01D02*
X967500D01*
G01X980000Y1332500D02*
Y1327500D01*
X972500Y1320000D01*
G01X966350Y1384200D02*
Y1391150D01*
X962500Y1395000D01*
G01X1038500D02*
X1045000D01*
X1050000Y1400000D01*
Y1410000D01*
X1042500Y1417500D01*
X987500D01*
X982500Y1422500D01*
Y1447500D01*
X987500Y1452500D01*
Y1467500D01*
G01X1009500Y1517500D02*
X990000D01*
X985000Y1522500D01*
Y1542500D01*
X987500Y1545000D01*
X1127500D01*
X1135000Y1537500D01*
Y1522500D01*
X1137500Y1520000D01*
X1145000D01*
G01Y1510000D02*
X1140000D01*
X1130000Y1520000D01*
Y1535000D01*
X1125000Y1540000D01*
X990624D01*
X987500Y1536876D01*
Y1526250D01*
X991250Y1522500D01*
X1009500D01*
G01X1023750Y1435000D02*
Y1443750D01*
X1017500Y1450000D01*
X1002500D01*
X997500Y1455000D01*
Y1471000D01*
X999000Y1472500D01*
X1009500D01*
G01X1033750Y1435000D02*
Y1439250D01*
X1018000Y1455000D01*
X1007499D01*
X1002500Y1459999D01*
Y1466250D01*
X1003750Y1467500D01*
X1009500D01*
G01X997500Y1530000D02*
X1000000Y1532500D01*
X1009500D01*
G01X1038500Y1385000D02*
X1072500D01*
G01X1038500Y1380000D02*
X1060750D01*
X1063250Y1377500D01*
X1067500D01*
G01X1063750Y1452650D02*
X1048900Y1467500D01*
X1045500D01*
G01X1092500Y1433000D02*
Y1437500D01*
X1052500Y1477500D01*
X1045500D01*
G01X1082500Y1433000D02*
Y1441400D01*
X1051400Y1472500D01*
X1045500D01*
G01Y1482500D02*
X1052500D01*
X1085000Y1450000D01*
X1090000D01*
X1098616Y1441384D01*
Y1436884D01*
X1102500Y1433000D01*
G01X1112500D02*
X1107500Y1438000D01*
Y1440000D01*
X1092500Y1455000D01*
X1087500D01*
X1050000Y1492500D01*
X1045500D01*
G01Y1497500D02*
X1060000D01*
X1067500Y1490000D01*
G01X1045500Y1507500D02*
X1055000D01*
X1057500Y1505000D01*
X1065000D01*
X1080000Y1490000D01*
Y1477500D01*
G01X1107500Y1510000D02*
X1057500D01*
X1055000Y1512500D01*
X1045500D01*
G01Y1517500D02*
X1055000D01*
X1060000Y1512500D01*
X1083500D01*
X1085000Y1514000D01*
Y1520000D01*
G01X1045500Y1522500D02*
X1055750D01*
X1058250Y1520000D01*
X1062500D01*
G01X1120000Y1495000D02*
Y1527500D01*
X1117500Y1530000D01*
X1057500D01*
X1055000Y1527500D01*
X1045500D01*
G01Y1532500D02*
X1052500D01*
X1055000Y1535000D01*
X1120000D01*
X1125000Y1530000D01*
Y1495000D01*
G01X1107500Y1362500D02*
X1072500Y1397500D01*
Y1443900D01*
X1063750Y1452650D01*
G01Y1435000D02*
Y1452650D01*
G01X1082500Y1420000D02*
Y1410000D01*
G01X1092500Y1400000D02*
Y1420000D01*
G01X1102500Y1405000D02*
Y1420000D01*
G01X1117500Y1362500D02*
Y1367500D01*
X1122500Y1372500D01*
Y1442500D01*
X1110000Y1455000D01*
Y1467500D01*
X1120000Y1477500D01*
G01X1112500Y1410000D02*
Y1420000D01*
G01X1117500Y1460000D02*
Y1465000D01*
X1120000Y1467500D01*
Y1477500D01*
G01X1107500Y1482500D02*
X1120000Y1495000D01*
G01Y1477500D02*
Y1495000D01*
G01X1127500Y1362500D02*
Y1372008D01*
X1128750Y1373258D01*
Y1446250D01*
G01D02*
X1145000Y1430000D01*
G01X1125000Y1495000D02*
Y1450000D01*
X1128750Y1446250D01*
G01X1145000Y1460000D02*
X1132500D01*
G01Y1487500D02*
X1125000Y1495000D01*
M02*
